<svg xmlns:xlink="http://www.w3.org/1999/xlink" xmlns="http://www.w3.org/2000/svg" width="25" height="25" viewBox="0 0 25 25" fill="none">
<path d="M20.207 10.4723H20.202C20.053 6.16026 16.634 2.60126 12.452 2.47626C11.3808 2.43985 10.3133 2.6208 9.31387 3.00819C8.31447 3.39557 7.40388 3.98138 6.63703 4.73026C5.86507 5.47354 5.25175 6.36556 4.8341 7.35245C4.41645 8.33934 4.20314 9.40064 4.20703 10.4723C3.10403 10.4723 2.20703 11.3693 2.20703 12.4723V16.4723C2.20703 17.5753 3.10403 18.4723 4.20703 18.4723H5.20703C5.47225 18.4723 5.7266 18.3669 5.91414 18.1794C6.10167 17.9918 6.20703 17.7375 6.20703 17.4723V10.4723C6.20703 8.83526 6.85403 7.30626 8.02903 6.16526C8.60488 5.60441 9.28806 5.16563 10.0376 4.87523C10.7872 4.58482 11.5876 4.44878 12.391 4.47526C15.599 4.57126 18.207 7.39326 18.207 10.7653V18.4723C18.207 19.5753 17.31 20.4723 16.207 20.4723H14.207C14.207 20.207 14.1017 19.9527 13.9141 19.7652C13.7266 19.5776 13.4722 19.4723 13.207 19.4723H11.207C10.9418 19.4723 10.6875 19.5776 10.4999 19.7652C10.3124 19.9527 10.207 20.207 10.207 20.4723V21.4723C10.207 21.7375 10.3124 21.9918 10.4999 22.1794C10.6875 22.3669 10.9418 22.4723 11.207 22.4723H16.207C18.413 22.4723 20.207 20.6783 20.207 18.4723C21.31 18.4723 22.207 17.5753 22.207 16.4723V12.4723C22.207 11.3693 21.31 10.4723 20.207 10.4723Z" fill="#1BB6C1"/>
<head xmlns=""/></svg>