<svg width="296" height="61" viewBox="0 0 296 61" fill="none" xmlns="http://www.w3.org/2000/svg">
<path d="M194.25 4.89489H198.317V27.4222H194.25V31.8025H207.078V27.4222H202.698V6.61573L203.511 8.02369C203.949 8.80589 204.888 10.4954 205.576 11.7782C206.296 13.061 206.984 14.3126 207.172 14.5003C207.328 14.7193 207.892 15.7205 208.392 16.6905C209.831 19.5377 210.457 20.664 210.833 21.1021C211.02 21.3211 211.458 22.1033 211.803 22.8229C212.147 23.5425 212.804 24.7627 213.304 25.5449C213.774 26.3271 214.556 27.7351 215.056 28.6737C216.902 32.178 216.809 32.1154 219.625 32.1154H222.096V4.89489H226.477V0.827454H213.648V4.89489H218.029V23.8241L216.621 21.3524C215.839 20.007 215.213 18.8493 215.213 18.7867C215.213 18.6929 214.681 17.7542 213.993 16.6905C213.336 15.6267 211.834 12.9985 210.645 10.8396C209.456 8.68073 208.204 6.428 207.86 5.83353C207.516 5.20777 206.734 3.8311 206.139 2.76731L205.044 0.827454H194.25V4.89489Z" fill="black"/>
<path d="M230.575 9.93225C227.634 10.8396 224.412 13.9058 223.348 16.8782C222.409 19.4751 222.566 23.3548 223.692 25.8578C224.975 28.6425 226.664 30.0817 230.826 31.9277C231.232 32.1154 233.016 32.2719 234.737 32.2719C238.96 32.2406 241.151 31.4584 243.716 28.9866C244.749 28.048 245.562 27.0781 245.562 26.859C245.562 26.4523 242.621 24.9192 241.808 24.9192C241.557 24.9192 241.151 25.2008 240.963 25.5137C240.744 25.8578 239.93 26.5775 239.148 27.1094C237.459 28.267 234.956 28.6425 232.765 28.048C230.951 27.5787 228.573 25.1695 228.104 23.3861L227.791 22.1033H245.562V21.0082C245.562 19.4438 244.936 16.7843 244.248 15.4389L243.654 14.25L245.969 14.4377L247.189 18.3487C247.878 20.5076 248.535 22.5413 248.691 22.8855C248.847 23.2296 249.066 23.8554 249.16 24.2934C249.254 24.7315 249.88 26.6713 250.506 28.5799L251.632 32.1154H253.76C256.294 32.1154 255.731 33.0541 258.547 24.1996C259.673 20.6327 260.674 17.723 260.737 17.723C260.799 17.723 261.175 18.7555 261.519 19.9757C261.895 21.2272 262.301 22.5413 262.458 22.8855C262.614 23.2296 263.334 25.4511 264.053 27.829L265.399 32.1467L269.779 31.959L270.186 30.8639C270.374 30.2694 271.031 28.2044 271.625 26.3272C272.22 24.4186 273.315 20.9456 274.066 18.5677L275.442 14.2813H277.507L277.288 15.6892C277.132 16.8469 277.226 17.4101 277.914 18.7867C279.134 21.2898 280.261 21.853 287.144 23.4799C289.459 24.0431 290.304 24.6689 290.304 25.8891C290.304 27.4222 288.395 28.267 285.298 28.0793C284.829 28.0793 283.89 27.6725 283.17 27.2032C282.107 26.5149 281.794 26.1081 281.637 25.1695L281.45 23.9806H277.163V31.8025H279.353C280.98 31.8025 281.543 31.7087 281.543 31.3958C281.543 31.0516 281.888 31.0829 283.202 31.521C284.172 31.8651 285.736 32.0841 287.081 32.1154C293.902 32.1467 297.438 26.5775 293.902 21.4462C292.87 19.9757 290.961 19.1309 287.144 18.5052C283.327 17.8481 282.232 17.5039 281.825 16.753C281.324 15.7831 282.107 14.5003 283.577 13.9997C285.548 13.3114 287.613 13.7494 288.927 15.1261C289.522 15.7205 289.991 16.4714 289.991 16.8156C289.991 17.3475 290.241 17.4101 292.025 17.4101H294.059V9.90097H292.025C290.46 9.90097 289.991 9.99483 289.991 10.339C289.991 10.7457 289.835 10.7457 288.833 10.3077C287.519 9.77581 284.234 9.61937 282.419 9.99483C281.762 10.12 280.605 10.7145 279.823 11.3089L278.415 12.404V9.90097H268.371L268.559 14.1248L269.904 14.2187C270.624 14.2813 271.218 14.3439 271.218 14.4064C271.218 14.4377 270.874 15.5015 270.467 16.7217C270.029 17.9733 269.779 18.9745 269.873 18.9745C269.967 18.9745 269.904 19.1622 269.717 19.3499C269.56 19.5689 269.091 20.9456 268.715 22.4162C268.309 23.8867 267.902 25.2634 267.777 25.5137C267.62 25.7953 267.088 24.5437 266.369 22.2284C265.743 20.1947 264.929 17.6917 264.617 16.7217C263.834 14.3751 263.866 14.2813 264.961 14.2813H265.899V9.90097H255.261V14.2813H257.42L256.951 15.9083C256.669 16.8156 256.138 18.5364 255.731 19.7567C255.355 20.9456 254.792 22.7603 254.511 23.7928C254.198 24.794 253.854 25.5137 253.728 25.3572C253.572 25.2008 253.009 23.6051 252.477 21.7904C251.914 19.9757 251.35 18.2236 251.194 17.8794C250.881 17.2224 250.255 14.907 250.255 14.5003C250.255 14.3751 250.819 14.2813 251.507 14.2813H252.758V9.90097H243.372V13.8745L242.183 12.7482C241.526 12.1224 240.243 11.2151 239.305 10.6832C237.772 9.86968 237.24 9.74453 234.611 9.68195C232.984 9.65066 231.17 9.74453 230.575 9.93225ZM237.584 14.2813C238.616 14.9383 240.212 16.9095 240.65 18.0984C240.838 18.6303 240.4 18.6616 234.455 18.6616C229.199 18.6616 228.041 18.599 228.041 18.2236C228.041 17.2536 230.106 14.7193 231.483 14.031C233.235 13.1236 235.863 13.2175 237.584 14.2813Z" fill="black"/>
<path d="M183.581 26.2333C182.892 27.0155 182.673 27.5474 182.673 28.5486C182.673 29.6437 182.861 30.0191 183.737 30.8013C185.114 32.0216 186.365 32.2719 187.711 31.6774C189.557 30.8639 189.964 30.3633 190.12 28.705C190.245 27.2345 190.183 27.0468 189.244 26.1707C188.368 25.3572 188.024 25.2321 186.365 25.2321C184.676 25.2321 184.426 25.3259 183.581 26.2333Z" fill="black"/>
<path d="M0.264557 30.551H4.01911V54.9556H0.264557V59.3985L9.27549 59.2734C17.2226 59.1795 18.4116 59.0857 19.6631 58.5538C22.0723 57.5525 23.2299 56.5826 24.3563 54.7366C25.4201 53.0158 25.4514 52.8281 25.4514 49.7931C25.4514 46.8208 25.3888 46.5392 24.544 45.2251C23.5741 43.7545 22.6667 42.9098 21.1023 42.065C20.5704 41.7834 20.2889 41.5331 20.4766 41.5018C20.6643 41.5018 21.3214 41.0012 21.9471 40.4067C24.7943 37.6534 24.7005 31.9277 21.7594 28.8615C21.0398 28.1106 20.1011 27.3284 19.6944 27.1094C18.13 26.3272 13.5619 25.8578 6.92889 25.8578H0.264557V30.551ZM16.3779 31.3645C17.5981 31.9277 18.7245 33.7111 18.7245 35.0878C18.7245 36.2454 17.5981 38.2792 16.6282 38.9049C16.0337 39.3117 14.9699 39.4994 12.7172 39.562L9.65095 39.6871V30.4572L12.4669 30.6449C14.0938 30.7388 15.7208 31.0516 16.3779 31.3645ZM17.5042 45.0999C20.5392 46.5705 21.1962 50.6692 18.787 53.1722C17.7858 54.236 16.6282 54.5489 12.7172 54.7992L9.65095 55.0182V44.2239L13.03 44.3803C15.3454 44.5055 16.722 44.6932 17.5042 45.0999Z" fill="black"/>
<path d="M25.2949 30.551H29.3624V54.9556H25.2949V59.336H37.8101V54.9556H34.3684L34.3059 40.4693L34.212 26.0143L25.2949 25.8265V30.551Z" fill="black"/>
<path d="M84.1163 30.551H88.1837V54.9556H84.1163V59.336H96.9444V54.9556H93.1898V48.5416L103.984 59.336H110.398V54.9556H106.331L98.5088 47.1962L100.48 45.5693C101.544 44.6932 102.701 43.7233 103.046 43.4417C103.39 43.1288 104.391 42.3153 105.298 41.5644C106.738 40.3755 107.05 40.2503 108.646 40.2503H110.398V35.87L103.922 35.9326L97.4137 36.0264L97.226 40.219L100.417 40.4067L98.8217 41.6583C96.9444 43.1288 95.6303 44.1926 94.4726 45.1625C94.0346 45.5693 93.5653 45.8821 93.4401 45.8821C93.315 45.8821 93.1585 41.408 93.1273 35.9326L93.0334 26.0143L84.1163 25.8265V30.551Z" fill="black"/>
<path d="M130.82 26.0456C130.695 26.1707 130.601 27.2345 130.601 28.4234V30.551H134.982V54.9556H130.946L131.822 52.8906L129.85 51.9207L127.911 50.9508L126.816 52.39C125.439 54.2673 123.593 55.2685 121.278 55.425C117.898 55.644 115.458 53.7041 114.488 50.0747C113.237 45.3189 115.708 40.6883 119.807 40.0626C122.373 39.6871 125.627 41.5018 126.065 43.5668C126.19 44.0674 126.315 44.6619 126.409 44.8496C126.471 45.1312 127.222 45.2564 128.724 45.2564H130.914V35.87H128.724C126.753 35.87 126.534 35.9326 126.534 36.4957C126.534 37.2779 126.503 37.2779 125.22 36.527C124.657 36.1829 123.311 35.7448 122.216 35.5258C119.995 35.0565 117.711 35.4007 115.395 36.4957C113.33 37.5282 110.765 40.1251 109.764 42.284C108.981 43.9736 108.888 44.5055 108.888 47.4465C108.888 51.4514 109.576 53.4538 111.86 56.2384C113.487 58.147 114.206 58.6476 116.741 59.555C118.243 60.0869 122.028 60.2433 123.812 59.8679C125.501 59.5237 127.973 58.1783 129.287 56.8955L130.601 55.5814V59.336H143.742V54.9556H139.988V42.7846L140.895 42.1589C142.397 41.0951 145.088 39.9374 146.089 39.9374C147.403 39.9374 148.342 40.6883 148.748 42.065C148.905 42.722 149.061 46.6956 149.061 51.2637V59.336H157.822V57.2084C157.853 55.1434 157.853 55.1121 158.323 55.9881C158.604 56.4888 159.261 57.3022 159.793 57.8028C160.826 58.7415 164.142 59.9617 165.613 59.9617C167.302 59.9617 170.838 58.585 171.902 57.5213C172.34 57.0832 172.371 57.1458 172.465 58.1783L172.559 59.336H181.006L180.819 55.1121L176.97 54.9244L176.845 47.5091C176.751 39.3117 176.626 38.8423 174.655 37.3092C172.715 35.87 171.057 35.4007 167.834 35.4319C164.299 35.4632 161.889 36.2454 159.95 37.9976C158.635 39.1865 157.697 40.7196 157.978 41.1576C158.072 41.3141 159.073 41.627 160.262 41.8147L162.359 42.1902L163.579 41.0951C165.644 39.2178 168.992 39.1552 170.838 41.0012C171.651 41.8147 171.839 42.3153 172.027 43.9736C172.152 45.0686 172.183 46.0073 172.121 46.1011C172.027 46.1637 171.213 45.9134 170.275 45.5067C167.803 44.4429 163.892 44.4742 161.702 45.6318C158.604 47.2588 157.29 49.668 157.603 53.1409L157.759 54.9556H153.786L153.692 47.0398C153.598 39.4994 153.567 39.0926 152.91 38.0289C151.47 35.7761 148.029 34.7749 144.9 35.7135C143.273 36.2141 141.052 37.2779 140.77 37.7473C140.176 38.7172 139.988 37.497 139.925 32.0216L139.831 26.0143L135.42 25.9204C133.011 25.8891 130.946 25.9517 130.82 26.0456ZM170.056 49.6993C171.902 50.6692 172.058 50.8256 172.152 51.8581C172.246 52.8593 172.089 53.1409 171.057 53.9857C170.4 54.5176 170.002 54.7993 169.689 54.9557C169.376 55.1122 169.398 55.1749 169.242 55.2686C168.981 55.4251 168.898 55.4875 168.71 55.5188C168.491 55.5188 167.803 55.644 167.208 55.7378C165.675 56.0507 163.548 55.425 162.953 54.4863C162.672 54.0796 162.39 53.1722 162.296 52.4839C162.14 51.3262 162.234 51.1072 163.391 49.9496C164.549 48.7919 164.768 48.6981 166.332 48.6981C167.646 48.6981 168.522 48.9484 170.056 49.6993Z" fill="black"/>
<path d="M45.1315 35.8387C43.0978 36.4019 40.5947 37.8411 39.4684 39.0614C38.342 40.3129 36.9653 42.8785 36.5586 44.5993C36.0267 46.8833 36.3083 50.6066 37.2156 52.9219C38.2794 55.644 41.0641 58.3035 43.9426 59.336C50.732 61.7764 57.9596 58.5225 60.2436 51.9833C60.9632 49.887 60.9632 45.6318 60.2436 43.5981C59.3988 41.2515 58.9608 40.5319 57.3651 38.9675C55.6755 37.3092 54.0486 36.4019 51.4204 35.7135C49.0738 35.1191 47.5407 35.1504 45.1315 35.8387ZM51.702 41.1264C59.1485 45.2251 54.9246 56.9894 46.7272 54.9244C44.756 54.4237 42.4094 52.2023 41.9088 50.4189C41.0954 47.4778 41.6585 44.5993 43.3794 42.6908C45.6634 40.1564 48.8861 39.562 51.702 41.1264Z" fill="black"/>
<path d="M70.1932 35.7448C67.0018 36.5583 63.435 39.9687 62.3086 43.2227C61.6203 45.2877 61.6203 50.1686 62.3399 52.1084C63.0595 54.017 65.5 57.3335 66.8454 58.2409C68.8478 59.555 70.9128 60.0869 73.8539 60.0869C75.3557 60.0869 76.8888 59.9304 77.2955 59.7427C77.7023 59.555 78.6096 59.1482 79.3605 58.8666C80.8936 58.2096 82.8961 56.2697 83.9912 54.3299C84.3979 53.6103 84.7108 52.9532 84.6795 52.9219C84.2415 52.5778 81.144 51.2011 80.7998 51.2011C80.5808 51.2011 80.174 51.5765 79.9237 52.0459C78.5158 54.7679 74.2293 56.2697 71.2882 55.0808C68.9729 54.1422 66.9079 50.6066 66.9079 47.603C66.9079 43.5042 70.068 39.9374 73.76 39.9374C74.6986 39.9374 77.5458 41.2515 78.2342 42.0337C78.5158 42.3466 78.9225 43.1914 79.1415 43.911L79.517 45.2564H83.8034V35.87H81.6133C79.6421 35.87 79.4231 35.9326 79.4231 36.4957C79.4231 37.2467 79.1728 37.2779 78.2655 36.6522C77.3581 36.0264 74.1667 35.2129 72.8526 35.3068C72.2582 35.3381 71.0692 35.5258 70.1932 35.7448Z" fill="black"/>
<path d="M207.673 36.1516C206.671 36.4645 205.263 37.1528 204.481 37.6847L203.042 38.6546L202.854 36.0264H194.094V40.4067L198.005 40.5945V54.9556H193.937V59.336H207.109L206.922 55.1121L203.011 54.9244V43.1601L204.2 42.3466C205.858 41.1889 208.204 40.2503 209.393 40.2503C210.082 40.2503 210.645 40.5006 211.177 41.0638L211.928 41.8773L212.115 59.336H220.845V54.9556H217.09V48.4477C217.09 39.7184 216.558 37.8098 213.805 36.3706C212.147 35.5258 209.8 35.4319 207.673 36.1516Z" fill="black"/>
<path d="M181.641 36.089C181.516 36.1829 181.422 37.2467 181.422 38.4356V40.5632H184.864V54.9556H181.422V59.336H193.624V54.9556H189.87V35.87H185.865C183.643 35.87 181.735 35.9638 181.641 36.089Z" fill="black"/>
<path d="M0.264557 30.551H4.01911V54.9556H0.264557V59.3985L9.27549 59.2734C17.2226 59.1795 18.4116 59.0857 19.6631 58.5538C22.0723 57.5525 23.2299 56.5826 24.3563 54.7366C25.4201 53.0158 25.4514 52.8281 25.4514 49.7931C25.4514 46.8208 25.3888 46.5392 24.544 45.2251C23.5741 43.7545 22.6667 42.9098 21.1023 42.065C20.5704 41.7834 20.2889 41.5331 20.4766 41.5018C20.6643 41.5018 21.3214 41.0012 21.9471 40.4067C24.7943 37.6534 24.7005 31.9277 21.7594 28.8615C21.0398 28.1106 20.1011 27.3284 19.6944 27.1094C18.13 26.3272 13.5619 25.8578 6.92889 25.8578H0.264557V30.551ZM16.3779 31.3645C17.5981 31.9277 18.7245 33.7111 18.7245 35.0878C18.7245 36.2454 17.5981 38.2792 16.6282 38.9049C16.0337 39.3117 14.9699 39.4994 12.7172 39.562L9.65095 39.6871V30.4572L12.4669 30.6449C14.0938 30.7388 15.7208 31.0516 16.3779 31.3645ZM17.5042 45.0999C20.5392 46.5705 21.1962 50.6692 18.787 53.1722C17.7858 54.236 16.6282 54.5489 12.7172 54.7992L9.65095 55.0182V44.2239L13.03 44.3803C15.3454 44.5055 16.722 44.6932 17.5042 45.0999Z" fill="#FAA014"/>
<path d="M25.2949 30.551H29.3624V54.9556H25.2949V59.336H37.8101V54.9556H34.3684L34.3059 40.4693L34.212 26.0143L25.2949 25.8265V30.551Z" fill="#FAA014"/>
<path d="M84.1163 30.551H88.1837V54.9556H84.1163V59.336H96.9444V54.9556H93.1898V48.5416L103.984 59.336H110.398V54.9556H106.331L98.5088 47.1962L100.48 45.5693C101.544 44.6932 102.701 43.7233 103.046 43.4417C103.39 43.1288 104.391 42.3153 105.298 41.5644C106.738 40.3755 107.05 40.2503 108.646 40.2503H110.398V35.87L103.922 35.9326L97.4137 36.0264L97.226 40.219L100.417 40.4067L98.8217 41.6583C96.9444 43.1288 95.6303 44.1926 94.4726 45.1625C94.0346 45.5693 93.5653 45.8821 93.4401 45.8821C93.315 45.8821 93.1585 41.408 93.1273 35.9326L93.0334 26.0143L84.1163 25.8265V30.551Z" fill="#FAA014"/>
<path d="M130.82 26.0456C130.695 26.1707 130.601 27.2345 130.601 28.4234V30.551H134.982V54.9556H130.946L131.822 52.8906L129.85 51.9207L127.911 50.9508L126.816 52.39C125.439 54.2673 123.593 55.2685 121.278 55.425C117.898 55.644 115.458 53.7041 114.488 50.0747C113.237 45.3189 115.708 40.6883 119.807 40.0626C122.373 39.6871 125.627 41.5018 126.065 43.5668C126.19 44.0674 126.315 44.6619 126.409 44.8496C126.471 45.1312 127.222 45.2564 128.724 45.2564H130.914V35.87H128.724C126.753 35.87 126.534 35.9326 126.534 36.4957C126.534 37.2779 126.503 37.2779 125.22 36.527C124.657 36.1829 123.311 35.7448 122.216 35.5258C119.995 35.0565 117.711 35.4007 115.395 36.4957C113.33 37.5282 110.765 40.1251 109.764 42.284C108.981 43.9736 108.888 44.5055 108.888 47.4465C108.888 51.4514 109.576 53.4538 111.86 56.2384C113.487 58.147 114.206 58.6476 116.741 59.555C118.243 60.0869 122.028 60.2433 123.812 59.8679C125.501 59.5237 127.973 58.1783 129.287 56.8955L130.601 55.5814V59.336H143.742V54.9556H139.988V42.7846L140.895 42.1589C142.397 41.0951 145.088 39.9374 146.089 39.9374C147.403 39.9374 148.342 40.6883 148.748 42.065C148.905 42.722 149.061 46.6956 149.061 51.2637V59.336H157.822V57.2084C157.853 55.1434 157.853 55.1121 158.323 55.9881C158.604 56.4888 159.261 57.3022 159.793 57.8028C160.826 58.7415 164.142 59.9617 165.613 59.9617C167.302 59.9617 170.838 58.585 171.902 57.5213C172.34 57.0832 172.371 57.1458 172.465 58.1783L172.559 59.336H181.006L180.819 55.1121L176.97 54.9244L176.845 47.5091C176.751 39.3117 176.626 38.8423 174.655 37.3092C172.715 35.87 171.057 35.4007 167.834 35.4319C164.299 35.4632 161.889 36.2454 159.95 37.9976C158.635 39.1865 157.697 40.7196 157.978 41.1576C158.072 41.3141 159.073 41.627 160.262 41.8147L162.359 42.1902L163.579 41.0951C165.644 39.2178 168.992 39.1552 170.838 41.0012C171.651 41.8147 171.839 42.3153 172.027 43.9736C172.152 45.0686 172.183 46.0073 172.121 46.1011C172.027 46.1637 171.213 45.9134 170.275 45.5067C167.803 44.4429 163.892 44.4742 161.702 45.6318C158.604 47.2588 157.29 49.668 157.603 53.1409L157.759 54.9556H153.786L153.692 47.0398C153.598 39.4994 153.567 39.0926 152.91 38.0289C151.47 35.7761 148.029 34.7749 144.9 35.7135C143.273 36.2141 141.052 37.2779 140.77 37.7473C140.176 38.7172 139.988 37.497 139.925 32.0216L139.831 26.0143L135.42 25.9204C133.011 25.8891 130.946 25.9517 130.82 26.0456ZM170.056 49.6993C171.902 50.6692 172.058 50.8256 172.152 51.8581C172.246 52.8593 172.089 53.1409 171.057 53.9857C170.4 54.5176 170.002 54.7993 169.689 54.9557C169.376 55.1122 169.398 55.1749 169.242 55.2686C168.981 55.4251 168.898 55.4875 168.71 55.5188C168.491 55.5188 167.803 55.644 167.208 55.7378C165.675 56.0507 163.548 55.425 162.953 54.4863C162.672 54.0796 162.39 53.1722 162.296 52.4839C162.14 51.3262 162.234 51.1072 163.391 49.9496C164.549 48.7919 164.768 48.6981 166.332 48.6981C167.646 48.6981 168.522 48.9484 170.056 49.6993Z" fill="#FAA014"/>
<path d="M45.1315 35.8387C43.0978 36.4019 40.5947 37.8411 39.4684 39.0614C38.342 40.3129 36.9653 42.8785 36.5586 44.5993C36.0267 46.8833 36.3083 50.6066 37.2156 52.9219C38.2794 55.644 41.0641 58.3035 43.9426 59.336C50.732 61.7764 57.9596 58.5225 60.2436 51.9833C60.9632 49.887 60.9632 45.6318 60.2436 43.5981C59.3988 41.2515 58.9608 40.5319 57.3651 38.9675C55.6755 37.3092 54.0486 36.4019 51.4204 35.7135C49.0738 35.1191 47.5407 35.1504 45.1315 35.8387ZM51.702 41.1264C59.1485 45.2251 54.9246 56.9894 46.7272 54.9244C44.756 54.4237 42.4094 52.2023 41.9088 50.4189C41.0954 47.4778 41.6585 44.5993 43.3794 42.6908C45.6634 40.1564 48.8861 39.562 51.702 41.1264Z" fill="#FAA014"/>
<path d="M70.1932 35.7448C67.0018 36.5583 63.435 39.9687 62.3086 43.2227C61.6203 45.2877 61.6203 50.1686 62.3399 52.1084C63.0595 54.017 65.5 57.3335 66.8454 58.2409C68.8478 59.555 70.9128 60.0869 73.8539 60.0869C75.3557 60.0869 76.8888 59.9304 77.2955 59.7427C77.7023 59.555 78.6096 59.1482 79.3605 58.8666C80.8936 58.2096 82.8961 56.2697 83.9912 54.3299C84.3979 53.6103 84.7108 52.9532 84.6795 52.9219C84.2415 52.5778 81.144 51.2011 80.7998 51.2011C80.5808 51.2011 80.174 51.5765 79.9237 52.0459C78.5158 54.7679 74.2293 56.2697 71.2882 55.0808C68.9729 54.1422 66.9079 50.6066 66.9079 47.603C66.9079 43.5042 70.068 39.9374 73.76 39.9374C74.6986 39.9374 77.5458 41.2515 78.2342 42.0337C78.5158 42.3466 78.9225 43.1914 79.1415 43.911L79.517 45.2564H83.8034V35.87H81.6133C79.6421 35.87 79.4231 35.9326 79.4231 36.4957C79.4231 37.2467 79.1728 37.2779 78.2655 36.6522C77.3581 36.0264 74.1667 35.2129 72.8526 35.3068C72.2582 35.3381 71.0692 35.5258 70.1932 35.7448Z" fill="#FAA014"/>
<path d="M207.673 36.1516C206.671 36.4645 205.263 37.1528 204.481 37.6847L203.042 38.6546L202.854 36.0264H194.094V40.4067L198.005 40.5945V54.9556H193.937V59.336H207.109L206.922 55.1121L203.011 54.9244V43.1601L204.2 42.3466C205.858 41.1889 208.204 40.2503 209.393 40.2503C210.082 40.2503 210.645 40.5006 211.177 41.0638L211.928 41.8773L212.115 59.336H220.845V54.9556H217.09V48.4477C217.09 39.7184 216.558 37.8098 213.805 36.3706C212.147 35.5258 209.8 35.4319 207.673 36.1516Z" fill="#FAA014"/>
<path d="M181.641 36.089C181.516 36.1829 181.422 37.2467 181.422 38.4356V40.5632H184.864V54.9556H181.422V59.336H193.624V54.9556H189.87V35.87H185.865C183.643 35.87 181.735 35.9638 181.641 36.089Z" fill="#FAA014"/>
</svg>
