<svg width="151" height="47" viewBox="0 0 151 47" fill="none" xmlns="http://www.w3.org/2000/svg">
    <g clip-path="url(#clip0)">
        <path d="M0.193402 0.137573H0V0.330976H0.193402V0.137573Z" fill="white"/>
        <path d="M0 0.137573V46.5541H46.4166V0.137573H0ZM16.6771 26.3165V18.0428C16.6771 14.929 20.7018 13.434 22.8311 17.0525C22.9859 17.3136 26.3395 23.0906 26.3395 23.0906V18.0428C26.3395 14.929 30.3622 13.434 32.4916 17.0525C32.6463 17.3136 35.9999 23.0906 35.9999 23.0906V15.0025H38.0074V28.5813C38.0125 28.673 37.9864 28.7639 37.9334 28.839C37.8804 28.9141 37.8036 28.9691 37.7154 28.9951C37.5026 29.0532 37.2783 28.9216 37.1139 28.6431C37.081 28.589 35.3733 25.6531 33.7332 22.8159L30.7239 17.6347C30.3023 16.9191 29.6737 16.7934 29.227 16.9152C28.9696 16.9872 28.7434 17.1428 28.5841 17.3574C28.4248 17.5721 28.3414 17.8336 28.347 18.1008V28.5813C28.3517 28.673 28.3255 28.7636 28.2725 28.8387C28.2196 28.9137 28.1429 28.9688 28.0549 28.9951C27.8403 29.0532 27.6159 28.9216 27.4535 28.6431C27.4244 28.5948 25.8405 25.8659 24.3107 23.2279C22.3612 19.8665 21.0809 17.6618 21.0615 17.6289C20.6399 16.9114 20.0094 16.7876 19.5588 16.9094C19.3012 16.9814 19.0748 17.1369 18.9152 17.3515C18.7555 17.566 18.6717 17.8276 18.6769 18.095V28.355C18.6681 28.4914 18.6099 28.62 18.513 28.7166C18.4161 28.8131 18.2873 28.8709 18.1508 28.8791H12.9425C11.4734 28.8791 10.0646 28.2955 9.02579 27.2567C7.98702 26.218 7.40344 24.8091 7.40344 23.34C7.40344 21.871 7.98702 20.4621 9.02579 19.4234C10.0646 18.3846 11.4734 17.801 12.9425 17.801H15.6501V19.8047H12.9657C12.028 19.8047 11.1288 20.1771 10.4658 20.8401C9.80277 21.5032 9.4303 22.4024 9.4303 23.34C9.4303 24.2777 9.80277 25.1769 10.4658 25.84C11.1288 26.503 12.028 26.8754 12.9657 26.8754H16.124C16.1972 26.876 16.2699 26.8618 16.3376 26.8339C16.4053 26.8059 16.4668 26.7646 16.5183 26.7126C16.5699 26.6605 16.6105 26.5986 16.6377 26.5306C16.665 26.4626 16.6784 26.3898 16.6771 26.3165ZM40.8079 28.647C40.8079 31.7608 36.7832 33.2558 34.6538 29.6392C34.501 29.3781 31.1455 23.5992 31.1455 23.5992V28.647C31.1455 31.7608 27.1227 33.2558 24.9934 29.6392C24.8387 29.3781 21.4851 23.5992 21.4851 23.5992V28.3588C21.4851 30.5191 20.2028 31.6892 18.1972 31.6892H12.9464C10.7336 31.6892 8.61138 30.8102 7.04669 29.2455C5.48201 27.6808 4.60297 25.5587 4.60297 23.3458C4.60297 21.133 5.48201 19.0109 7.04669 17.4462C8.61138 15.8815 10.7336 15.0025 12.9464 15.0025H15.654V17.0061H12.9464C12.1138 17.0061 11.2894 17.1701 10.5202 17.4887C9.75107 17.8073 9.05218 18.2743 8.46349 18.863C7.87479 19.4517 7.40781 20.1506 7.08921 20.9197C6.7706 21.6889 6.60662 22.5133 6.60662 23.3458C6.60662 24.1784 6.7706 25.0028 7.08921 25.772C7.40781 26.5411 7.87479 27.24 8.46349 27.8287C9.05218 28.4174 9.75107 28.8844 10.5202 29.203C11.2894 29.5216 12.1138 29.6856 12.9464 29.6856H18.1508C18.5002 29.6787 18.8334 29.5369 19.0806 29.29C19.3279 29.0431 19.4701 28.7101 19.4775 28.3608V18.1008C19.4726 18.0092 19.4987 17.9187 19.5518 17.8439C19.6048 17.7691 19.6816 17.7145 19.7696 17.6888C19.9823 17.6308 20.2067 17.7623 20.3711 18.0408L23.6183 23.636C25.5059 26.8909 26.7456 29.028 26.7611 29.0512C27.1846 29.7668 27.8151 29.8925 28.2657 29.7687C28.5233 29.6966 28.7494 29.5407 28.9084 29.3256C29.0675 29.1105 29.1503 28.8486 29.1438 28.5813V18.1027C29.1385 18.0114 29.164 17.921 29.2163 17.8459C29.2685 17.7709 29.3445 17.7156 29.432 17.6888C29.6428 17.6308 29.8652 17.7623 30.0276 18.0408L33.037 23.2259L36.4196 29.057C36.7503 29.6179 37.2106 29.8171 37.6109 29.8171C37.7162 29.8171 37.8209 29.8028 37.9223 29.7745C38.1832 29.7044 38.4129 29.5486 38.5746 29.3322C38.7363 29.1158 38.8206 28.8513 38.8139 28.5813V15.0025H40.8137L40.8079 28.647Z"
              fill="#CC0000"/>
    </g>
    <g clip-path="url(#clip1)">
        <path d="M52 10.2414H58.1668C61.4429 10.2414 62.3101 11.9758 62.3101 14.481V18.4316C62.3101 20.5515 61.3465 21.6114 60.383 21.9968C61.4429 22.3822 62.6955 23.2494 62.6955 25.851V31.4397C62.6955 34.234 61.4429 36.1611 58.5522 36.1611H52V10.2414ZM55.9506 13.8066V20.5515H57.1069C58.1668 20.5515 58.4558 19.7806 58.4558 18.7207V15.4446C58.4558 14.3847 58.1668 13.8066 57.1069 13.8066H55.9506ZM55.9506 24.4057V32.596H57.1069C58.3595 32.596 58.6486 32.0178 58.6486 30.8616V26.1401C58.6486 25.0802 58.3595 24.5021 57.1069 24.5021L55.9506 24.4057ZM64.5263 10.2414H68.5732V30.7652C68.5732 31.9215 68.9586 32.596 69.8259 32.596C70.7894 32.596 71.0785 31.9215 71.0785 30.7652V10.2414H75.1254V30.5725C75.1254 34.234 73.6801 36.5466 70.2113 36.5466H69.5368C66.068 36.5466 64.6226 34.3304 64.6226 30.5725L64.5263 10.2414ZM136.793 36.5466C136.311 36.6429 135.83 36.6429 135.348 36.6429C133.806 36.6429 132.554 36.2575 131.686 35.4866C130.819 34.7158 130.337 33.6559 130.337 32.4032V26.3328H134.192V31.4397C134.192 31.9215 134.288 32.3069 134.481 32.596C134.673 32.885 134.962 32.9814 135.444 32.9814C135.926 32.9814 136.215 32.885 136.408 32.596C136.601 32.2105 136.697 31.9215 136.601 31.536V29.3199C136.601 28.549 136.311 27.8745 135.926 27.2C135.541 26.4292 134.673 25.3693 133.517 23.9239C132.65 22.864 131.879 21.8041 131.205 20.6478C130.723 19.7806 130.434 18.9134 130.434 18.1426V14.0956C130.434 12.843 130.916 11.7831 131.783 11.0122C132.554 10.2414 133.806 9.85596 135.348 9.85596C136.986 9.85596 138.142 10.2414 139.106 11.0122C139.973 11.7831 140.358 12.7466 140.358 14.0956V19.5879H136.504V15.0592C136.504 14.481 136.408 14.0956 136.215 13.9029C136.119 13.7102 135.83 13.6138 135.348 13.6138C134.962 13.6138 134.577 13.7102 134.481 13.9993C134.384 14.2883 134.192 14.5774 134.192 15.1555V17.5644C134.192 17.9499 134.384 18.4316 134.577 18.7207C134.866 19.2025 135.444 20.0697 136.408 21.3223C137.95 23.2494 139.009 24.5984 139.491 25.562C140.069 26.4292 140.358 27.2 140.358 27.7782V32.4032L138.528 34.5231L136.793 36.5466ZM89.2898 10.2414H93.2403V36.2575H89.2898V10.2414ZM99.1181 10.2414L102.491 24.213V10.2414H106.056V36.2575H102.876L99.1181 21.3223V36.2575H95.5529V10.2414H99.1181ZM117.233 10.2414V13.9993H112.222V20.8405H116.173V24.7911H112.222V32.3069H117.426V36.2575H108.272V10.2414H117.233ZM87.2663 14.0956V19.5879H83.412V15.0592C83.412 14.481 83.3157 14.0956 83.123 13.9029C82.9303 13.7102 82.6412 13.6138 82.2558 13.6138C81.774 13.6138 81.4849 13.7102 81.2922 13.9993C81.0995 14.192 81.0031 14.5774 81.0031 15.1555V17.5644C81.0031 17.9499 81.1959 18.4316 81.3886 18.7207C81.6776 19.2025 82.2558 20.0697 83.2193 21.3223C84.761 23.2494 85.8209 24.5984 86.3027 25.562C86.8809 26.4292 87.1699 27.2 87.1699 27.7782V32.4032C87.1699 33.7522 86.6881 34.7158 85.8209 35.4866C84.9537 36.2575 83.7011 36.6429 82.0631 36.6429C80.5214 36.6429 79.2687 36.2575 78.4015 35.4866C77.5343 34.7158 77.0525 33.6559 77.0525 32.4032V26.3328H80.9068V31.4397C80.9068 31.9215 81.0031 32.3069 81.1959 32.596C81.3886 32.885 81.6776 32.9814 82.1594 32.9814C82.6412 32.9814 82.9303 32.885 83.123 32.596C83.3157 32.2105 83.412 31.9215 83.3157 31.536V29.3199C83.3157 28.549 83.0266 27.8745 82.6412 27.2C82.2558 26.4292 81.3886 25.3693 80.2323 23.9239C79.3651 22.864 78.5942 21.8041 77.9198 20.6478C77.438 19.7806 77.1489 18.9134 77.1489 18.1426V14.0956C77.1489 12.843 77.6307 11.7831 78.4979 11.0122C79.3651 10.2414 80.6177 9.85596 82.2558 9.85596C83.8938 9.85596 85.0501 10.2414 86.0136 11.0122C86.7845 11.7831 87.2663 12.7466 87.2663 14.0956ZM128.699 14.0956V19.5879H124.845V15.0592C124.845 14.481 124.749 14.0956 124.556 13.9029C124.363 13.7102 124.074 13.6138 123.689 13.6138C123.207 13.6138 122.918 13.7102 122.725 13.9993C122.533 14.2883 122.436 14.5774 122.436 15.1555V17.5644C122.436 17.9499 122.629 18.4316 122.822 18.7207C123.111 19.2025 123.689 20.0697 124.652 21.3223C126.194 23.2494 127.254 24.5984 127.736 25.562C128.314 26.4292 128.603 27.2 128.603 27.7782V32.4032C128.603 33.7522 128.121 34.7158 127.254 35.4866C126.387 36.2575 125.134 36.6429 123.496 36.6429C121.954 36.6429 120.702 36.2575 119.835 35.4866C118.967 34.7158 118.486 33.6559 118.486 32.4032V26.3328H122.34V31.4397C122.34 31.9215 122.436 32.3069 122.629 32.596C122.822 32.885 123.111 32.9814 123.592 32.9814C124.074 32.9814 124.363 32.885 124.556 32.596C124.749 32.2105 124.845 31.9215 124.749 31.536V29.3199C124.749 28.549 124.46 27.8745 124.074 27.2C123.689 26.4292 122.822 25.3693 121.665 23.9239C120.798 22.864 120.027 21.8041 119.353 20.6478C118.871 19.7806 118.582 18.9134 118.582 18.1426V14.0956C118.582 12.843 119.064 11.7831 119.931 11.0122C120.895 10.2414 122.051 9.85596 123.592 9.85596C125.231 9.85596 126.387 10.2414 127.35 11.0122C128.218 11.7831 128.699 12.7466 128.699 14.0956Z"
              fill="black"/>
        <path d="M150.283 36.2575L145.465 30.7653L140.744 36.2575H150.283Z" fill="#00C59E"/>
    </g>
    <defs>
        <clipPath id="clip0">
            <rect width="46.4166" height="46.4166" fill="white" transform="translate(0 0.137573)"/>
        </clipPath>
        <clipPath id="clip1">
            <rect width="98.2831" height="26.9797" fill="white" transform="translate(52 9.85596)"/>
        </clipPath>
    </defs>
</svg>
