<svg width="275" height="65" viewBox="0 0 275 65" fill="none" xmlns="http://www.w3.org/2000/svg">
<path d="M40.135 47.414L28.7252 52.3887V51.8866C26.5345 52.4343 24.07 52.7538 21.788 52.8907C11.0172 52.7994 2.52834 47.1402 2.39142 40.4769V38.0124C5.90563 43.1239 13.1166 46.5925 21.788 46.4556C24.709 46.5925 27.7211 46.1361 30.2313 45.4515L31.2353 42.987C28.2688 43.8998 24.9828 44.4931 21.788 44.4931C11.0172 44.4931 2.52834 38.8795 2.39142 32.0793V30.0711C5.90563 34.8176 13.1166 38.2405 21.788 38.0124C25.713 38.2405 29.5011 37.419 32.7414 36.0042L33.2435 33.5397C30.0944 35.1827 26.0325 36.1411 21.8337 36.0042C11.0629 36.1411 2.57398 30.5275 2.43706 23.5904V21.5823C5.95127 26.42 13.1623 29.8886 21.8337 30.0255C26.7627 29.8886 31.4179 28.5651 35.2516 26.5569L35.7536 23.5904C32.285 26.1462 27.2191 27.8348 21.8337 28.063C11.0629 27.8348 2.57398 22.1756 2.43706 15.1472C2.52834 8.4382 11.0629 2.8246 21.8337 2.73332C28.2232 2.8246 34.2019 5.06092 37.7161 8.71205L38.0812 9.30535H40.5914L40.2262 8.71205C36.712 3.91994 29.638 0.770837 21.8337 0.770837C9.87624 0.725198 0.383301 7.2516 0.383301 15.1015V15.6035V40.9333C0.794053 48.6006 10.0588 54.8532 21.7424 54.8532C29.4554 54.8988 36.4382 51.841 40.135 47.414Z" fill="#263238"/>
<path d="M35.4798 64.8938L39.496 47.8247L27.9493 52.8451L34.9777 23.2709H21.4686L24.9828 8.71204H68.1117L64.5975 23.2709H50.5407L47.5285 31.3034L63.0914 24.777L35.4798 64.8938ZM42.5082 44.3562L40.5001 54.3968L57.0671 29.3409L43.5123 35.3653L49.5366 21.3084H63.0914L65.6016 10.7658H26.4432L23.9331 21.3084H37.4879L30.9615 49.3765L42.5082 44.3562Z" fill="#FABF2C"/>
<path d="M96.7275 18.4788V18.5245C96.7731 20.1218 96.2711 21.3541 95.267 22.2669C94.263 23.1796 92.8938 23.636 91.1139 23.636C89.3339 23.636 87.8735 23.0427 86.7781 21.9018C85.6828 20.7608 85.1351 19.2547 85.1351 17.4291V14.4626C85.1351 12.637 85.6828 11.1309 86.7325 9.98994C87.8278 8.84897 89.2427 8.25566 90.9769 8.25566C92.8025 8.25566 94.2173 8.71205 95.267 9.5792C96.3167 10.492 96.8187 11.7242 96.7731 13.3216V13.3672H93.8522C93.8522 12.4088 93.624 11.6786 93.1676 11.2222C92.7112 10.7658 91.981 10.5376 91.0226 10.5376C90.1098 10.5376 89.4252 10.9027 88.9232 11.633C88.4211 12.3632 88.1473 13.276 88.1473 14.4169V17.4291C88.1473 18.5701 88.4211 19.5285 88.9232 20.2587C89.4708 20.989 90.2011 21.3541 91.1595 21.3541C92.0723 21.3541 92.7112 21.1259 93.1676 20.6695C93.624 20.2131 93.8522 19.4829 93.8522 18.5245H96.7275V18.4788ZM113.249 17.2922C113.249 19.1178 112.656 20.6695 111.515 21.8561C110.374 23.0427 108.867 23.636 106.996 23.636C105.125 23.636 103.665 23.0427 102.478 21.8561C101.337 20.6695 100.744 19.1178 100.744 17.2922V14.5995C100.744 12.7739 101.337 11.2678 102.478 10.0356C103.619 8.84897 105.125 8.21002 106.951 8.21002C108.822 8.21002 110.328 8.80333 111.469 10.0356C112.656 11.2222 113.203 12.7739 113.203 14.5995V17.2922H113.249ZM110.237 14.5539C110.237 13.3672 109.963 12.4545 109.369 11.6786C108.776 10.9484 108 10.5376 106.951 10.5376C105.947 10.5376 105.125 10.9027 104.577 11.6786C104.03 12.4088 103.71 13.3672 103.71 14.5539V17.2466C103.71 18.4332 103.984 19.3916 104.577 20.1675C105.125 20.8977 105.947 21.3084 106.951 21.3084C108 21.3084 108.776 20.9433 109.369 20.1675C109.963 19.4372 110.237 18.4332 110.237 17.2466V14.5539ZM121.007 23.4078H117.995V8.43822H121.007V23.4078ZM138.305 23.4078H135.293L129.268 13.3216H129.223V23.4078H126.21V8.43822H129.223L135.247 18.5245H135.293V8.43822H138.305V23.4078ZM153.411 10.7658H149.121V23.4078H146.109V10.7658H141.91V8.43822H153.411V10.7658ZM165.825 16.8358H160.257V21.1259H166.875V23.4078H157.291V8.43822H166.875V10.7658H160.303V14.5082H165.871V16.8358H165.825ZM174.177 21.1259H180.886V23.4078H171.165V8.43822H174.177V21.1259ZM193.665 16.8358H188.097V21.1259H194.715V23.4078H185.13V8.43822H194.715V10.7658H188.143V14.5082H193.711V16.8358H193.665ZM210.506 21.3997C210.049 21.993 209.365 22.5407 208.406 22.9971C207.494 23.4535 206.307 23.6817 204.847 23.6817C203.021 23.6817 201.561 23.134 200.42 21.993C199.279 20.852 198.685 19.3916 198.685 17.566V14.4169C198.685 12.5914 199.233 11.1309 200.374 9.98994C201.469 8.84897 202.93 8.25566 204.664 8.25566C206.49 8.25566 207.904 8.71205 208.863 9.5792C209.821 10.4463 210.323 11.5873 210.278 13.0478V13.0934H207.448C207.448 12.3175 207.22 11.6786 206.763 11.2222C206.307 10.7658 205.622 10.5376 204.755 10.5376C203.842 10.5376 203.112 10.9027 202.519 11.5873C201.971 12.3175 201.697 13.2303 201.697 14.3257V17.4748C201.697 18.6157 201.971 19.5285 202.565 20.2587C203.158 20.989 203.934 21.3084 204.892 21.3084C205.622 21.3084 206.17 21.2172 206.581 21.0802C206.992 20.9433 207.311 20.7608 207.539 20.5326V17.6117H204.664V15.5123H210.551V21.3997H210.506ZM218.264 17.4291V23.4078H215.252V8.43822H220.455C222.144 8.43822 223.513 8.84897 224.471 9.62484C225.43 10.4007 225.932 11.496 225.932 12.8652C225.932 13.6411 225.749 14.28 225.339 14.8733C224.928 15.421 224.334 15.8774 223.559 16.2425C224.426 16.5163 225.065 16.9271 225.475 17.566C225.841 18.1593 226.069 18.9352 226.069 19.848V20.9433C226.069 21.3541 226.114 21.8105 226.251 22.2669C226.343 22.7233 226.571 23.0427 226.845 23.2709V23.4991H223.741C223.467 23.2709 223.285 22.9058 223.193 22.4038C223.102 21.9018 223.057 21.3997 223.057 20.9433V19.8936C223.057 19.1634 222.874 18.5701 222.463 18.1593C222.052 17.7486 221.459 17.5204 220.729 17.5204H218.264V17.4291ZM218.264 15.1472H220.409C221.231 15.1472 221.87 14.9646 222.281 14.5995C222.691 14.2344 222.92 13.7324 222.92 13.0021C222.92 12.3175 222.691 11.7699 222.281 11.3591C221.87 10.9484 221.277 10.7658 220.455 10.7658H218.264V15.1472ZM238.665 20.2131H233.827L232.823 23.4535H229.674L234.74 8.48386H237.798L242.818 23.4535H239.669L238.665 20.2131ZM234.558 17.8399H237.935L236.292 12.5457H236.246L234.558 17.8399ZM249.482 17.9768V23.4078H246.469V8.43822H252.22C253.954 8.43822 255.278 8.89461 256.282 9.76175C257.286 10.6289 257.742 11.8155 257.742 13.2303C257.742 14.6451 257.24 15.8318 256.282 16.6989C255.278 17.566 253.954 18.0224 252.22 18.0224H249.482V17.9768ZM249.482 15.6948H252.22C253.041 15.6948 253.68 15.4666 254.137 15.0102C254.548 14.5539 254.776 13.9606 254.776 13.276C254.776 12.5457 254.548 11.9524 254.137 11.496C253.726 11.0396 253.087 10.8114 252.22 10.8114H249.482V15.6948ZM274.218 23.4078H271.206V17.2009H265.09V23.4078H262.078V8.43822H265.09V14.8733H271.206V8.43822H274.218V23.4078Z" fill="#263238"/>
<path d="M90.6118 47.8704H88.7406V38.0124H85.3633V36.415H93.9891V38.0124H90.6118V47.8704ZM103.163 47.8704H101.291V42.5306C101.291 41.8461 101.154 41.344 100.881 41.0246C100.607 40.7051 100.196 40.5225 99.6027 40.5225C98.8268 40.5225 98.2791 40.7507 97.914 41.2071C97.5489 41.6635 97.3664 42.4394 97.3664 43.5347V47.8248H95.5408V35.6391H97.3664V38.7426C97.3664 39.2446 97.3207 39.7467 97.2751 40.34H97.412C97.6402 39.9292 98.0053 39.6097 98.4617 39.3815C98.9181 39.1534 99.4201 39.0164 100.013 39.0164C102.113 39.0164 103.163 40.0661 103.163 42.2112V47.8704ZM109.506 48.0073C108.137 48.0073 107.087 47.5966 106.357 46.8207C105.581 46.0449 105.216 44.9495 105.216 43.5804C105.216 42.1655 105.581 41.0702 106.266 40.2487C106.951 39.4272 107.955 39.0164 109.187 39.0164C110.328 39.0164 111.241 39.3815 111.88 40.0661C112.564 40.7507 112.884 41.7091 112.884 42.9414V43.9455H107.088C107.133 44.767 107.361 45.4516 107.772 45.8623C108.183 46.3187 108.822 46.5469 109.598 46.5469C110.1 46.5469 110.602 46.5012 111.012 46.41C111.469 46.3187 111.925 46.1361 112.427 45.9079V47.414C111.971 47.6422 111.514 47.7791 111.058 47.8704C110.647 47.9617 110.1 48.0073 109.506 48.0073ZM109.187 40.4313C108.594 40.4313 108.137 40.6138 107.772 40.9789C107.407 41.344 107.224 41.8917 107.133 42.6219H111.058C111.058 41.8917 110.876 41.344 110.556 40.9789C110.237 40.6138 109.78 40.4313 109.187 40.4313ZM123.472 40.5682H121.373V47.8704H119.501V40.5682H118.087V39.701L119.501 39.1534V38.6057C119.501 37.6016 119.73 36.8258 120.232 36.3237C120.734 35.8217 121.464 35.5935 122.422 35.5935C123.061 35.5935 123.7 35.6848 124.339 35.913L123.837 37.3278C123.381 37.1909 122.97 37.0996 122.514 37.0996C122.103 37.0996 121.783 37.2365 121.601 37.4647C121.418 37.7385 121.327 38.1037 121.327 38.6057V39.1534H123.426V40.5682H123.472ZM131.094 47.8704L130.82 46.7294H130.729C130.455 47.1402 130.09 47.4597 129.633 47.6879C129.177 47.9161 128.629 48.053 128.036 48.053C126.986 48.053 126.21 47.7792 125.663 47.2771C125.115 46.7751 124.887 45.9536 124.887 44.9039V39.199H126.758V44.5388C126.758 45.2234 126.895 45.6797 127.169 46.0449C127.443 46.3643 127.853 46.5469 128.447 46.5469C129.222 46.5469 129.77 46.3187 130.135 45.8623C130.5 45.4059 130.683 44.63 130.683 43.5347V39.199H132.554V47.8704H131.094ZM138.396 46.5013C138.852 46.5013 139.309 46.41 139.765 46.2731V47.6422C139.583 47.7335 139.309 47.8248 138.989 47.8704C138.67 47.9161 138.35 47.9617 137.985 47.9617C136.251 47.9617 135.384 47.0489 135.384 45.2234V40.5682H134.197V39.7467L135.475 39.0621L136.114 37.2365H137.255V39.1534H139.719V40.5682H137.255V45.2234C137.255 45.6798 137.346 45.9992 137.574 46.2274C137.711 46.41 138.031 46.5013 138.396 46.5013ZM147.569 47.8704L147.296 46.7294H147.204C146.93 47.1402 146.565 47.4597 146.109 47.6879C145.653 47.9161 145.105 48.053 144.512 48.053C143.462 48.053 142.686 47.7792 142.138 47.2771C141.636 46.7751 141.362 45.9536 141.362 44.9039V39.199H143.234V44.5388C143.234 45.2234 143.371 45.6797 143.644 46.0449C143.918 46.3643 144.329 46.5469 144.922 46.5469C145.698 46.5469 146.246 46.3187 146.611 45.8623C146.976 45.4059 147.159 44.63 147.159 43.5347V39.199H149.03V47.8704H147.569ZM156.058 39.0164C156.423 39.0164 156.743 39.0621 156.971 39.1077L156.788 40.842C156.515 40.7964 156.241 40.7507 155.967 40.7507C155.237 40.7507 154.643 40.9789 154.187 41.4809C153.731 41.983 153.502 42.5763 153.502 43.3522V47.8704H151.677V39.199H153.137L153.366 40.7051H153.457C153.731 40.203 154.141 39.7923 154.598 39.4728C155.009 39.199 155.511 39.0164 156.058 39.0164ZM162.037 48.0073C160.668 48.0073 159.618 47.5966 158.888 46.8207C158.112 46.0449 157.747 44.9495 157.747 43.5804C157.747 42.1655 158.112 41.0702 158.797 40.2487C159.481 39.4272 160.485 39.0164 161.718 39.0164C162.858 39.0164 163.771 39.3815 164.41 40.0661C165.095 40.7507 165.414 41.7091 165.414 42.9414V43.9455H159.618C159.664 44.767 159.892 45.4516 160.303 45.8623C160.713 46.3187 161.352 46.5469 162.128 46.5469C162.63 46.5469 163.132 46.5012 163.543 46.41C163.999 46.3187 164.456 46.1361 164.958 45.9079V47.414C164.502 47.6422 164.045 47.7791 163.589 47.8704C163.132 47.9617 162.63 48.0073 162.037 48.0073ZM161.718 40.4313C161.124 40.4313 160.668 40.6138 160.303 40.9789C159.938 41.344 159.755 41.8917 159.664 42.6219H163.589C163.589 41.8917 163.406 41.344 163.087 40.9789C162.722 40.6138 162.265 40.4313 161.718 40.4313ZM179.334 43.4891C179.334 44.9039 178.969 45.9992 178.239 46.8207C177.509 47.5966 176.505 48.0073 175.227 48.0073C174.405 48.0073 173.721 47.8248 173.082 47.4597C172.443 47.0946 171.986 46.5469 171.667 45.8623C171.347 45.1777 171.165 44.4018 171.165 43.4891C171.165 42.0743 171.53 40.9789 172.26 40.2031C172.99 39.4272 173.994 39.0164 175.318 39.0164C176.55 39.0164 177.554 39.4272 178.285 40.2487C179.015 41.0702 179.334 42.1199 179.334 43.4891ZM173.036 43.4891C173.036 45.4972 173.766 46.5013 175.272 46.5013C176.733 46.5013 177.463 45.4972 177.463 43.4891C177.463 41.5266 176.733 40.5225 175.272 40.5225C174.496 40.5225 173.949 40.7964 173.584 41.2984C173.219 41.8004 173.036 42.5306 173.036 43.4891ZM185.815 40.5682H183.716V47.8704H181.844V40.5682H180.43V39.701L181.844 39.1534V38.6057C181.844 37.6016 182.073 36.8258 182.575 36.3237C183.077 35.8217 183.807 35.5935 184.765 35.5935C185.404 35.5935 186.043 35.6848 186.682 35.913L186.18 37.3278C185.724 37.1909 185.313 37.0996 184.857 37.0996C184.446 37.0996 184.126 37.2365 183.944 37.4647C183.761 37.6929 183.67 38.1037 183.67 38.6057V39.1534H185.769V40.5682H185.815ZM198.776 47.8704H196.905V42.5306C196.905 41.8461 196.768 41.3897 196.54 41.0246C196.312 40.7051 195.901 40.5225 195.354 40.5225C194.623 40.5225 194.121 40.7507 193.802 41.2071C193.482 41.6635 193.3 42.4394 193.3 43.5347V47.8704H191.474V39.199H192.935L193.209 40.34H193.3C193.528 39.9292 193.893 39.6097 194.349 39.3815C194.806 39.1534 195.308 39.0621 195.856 39.0621C197.179 39.0621 198.092 39.5185 198.503 40.4313H198.64C198.913 40.0205 199.279 39.6554 199.735 39.4272C200.191 39.199 200.739 39.0621 201.332 39.0621C202.382 39.0621 203.112 39.3359 203.614 39.8379C204.071 40.34 204.344 41.1615 204.344 42.2112V47.8704H202.519V42.5306C202.519 41.8461 202.382 41.3897 202.154 41.0246C201.88 40.7051 201.515 40.5225 200.967 40.5225C200.237 40.5225 199.735 40.7507 199.415 41.2071C199.096 41.6635 198.913 42.3481 198.913 43.2609V47.8704H198.776ZM214.476 43.4891C214.476 44.9039 214.111 45.9992 213.381 46.8207C212.651 47.5966 211.647 48.0073 210.369 48.0073C209.547 48.0073 208.863 47.8248 208.224 47.4597C207.585 47.0946 207.128 46.5469 206.809 45.8623C206.489 45.1777 206.307 44.4018 206.307 43.4891C206.307 42.0743 206.672 40.9789 207.402 40.2031C208.132 39.4272 209.137 39.0164 210.46 39.0164C211.692 39.0164 212.696 39.4272 213.427 40.2487C214.111 41.0702 214.476 42.1199 214.476 43.4891ZM208.178 43.4891C208.178 45.4972 208.908 46.5013 210.414 46.5013C211.875 46.5013 212.605 45.4972 212.605 43.4891C212.605 41.5266 211.875 40.5225 210.414 40.5225C209.639 40.5225 209.091 40.7964 208.726 41.2984C208.361 41.8004 208.178 42.5306 208.178 43.4891ZM224.243 47.8704H222.372V42.5306C222.372 41.8461 222.235 41.344 221.961 41.0246C221.687 40.7051 221.277 40.5225 220.683 40.5225C219.907 40.5225 219.314 40.7507 218.995 41.2071C218.675 41.6635 218.447 42.4394 218.447 43.5347V47.8704H216.621V39.199H218.082L218.356 40.34H218.447C218.721 39.9292 219.086 39.6097 219.542 39.3815C219.999 39.1534 220.546 39.0621 221.14 39.0621C223.239 39.0621 224.243 40.1118 224.243 42.2568V47.8704ZM230.587 48.0073C229.218 48.0073 228.168 47.5966 227.438 46.8207C226.662 46.0449 226.297 44.9495 226.297 43.5804C226.297 42.1655 226.662 41.0702 227.347 40.2487C228.031 39.4272 229.035 39.0164 230.267 39.0164C231.408 39.0164 232.321 39.3815 232.96 40.0661C233.645 40.7507 233.964 41.7091 233.964 42.9414V43.9455H228.168C228.214 44.767 228.442 45.4516 228.853 45.8623C229.263 46.3187 229.902 46.5469 230.678 46.5469C231.18 46.5469 231.682 46.5012 232.093 46.41C232.504 46.3187 233.006 46.1361 233.508 45.9079V47.414C233.051 47.6422 232.595 47.7791 232.139 47.8704C231.682 47.9617 231.18 48.0073 230.587 48.0073ZM230.222 40.4313C229.629 40.4313 229.172 40.6138 228.807 40.9789C228.442 41.344 228.259 41.8917 228.168 42.6219H232.093C232.093 41.8917 231.91 41.344 231.591 40.9789C231.272 40.6138 230.815 40.4313 230.222 40.4313ZM234.421 39.199H236.429L238.209 44.128C238.483 44.8126 238.665 45.4972 238.756 46.0905H238.802C238.848 45.8167 238.939 45.4515 239.076 45.0408C239.213 44.63 239.852 42.6676 241.084 39.199H243.092L239.395 49.0114C238.711 50.7913 237.615 51.7041 236.018 51.7041C235.607 51.7041 235.197 51.6585 234.831 51.5672V50.1067C235.105 50.1524 235.425 50.198 235.79 50.198C236.657 50.198 237.296 49.696 237.661 48.6463L237.98 47.8248L234.421 39.199Z" fill="#263238"/>
</svg>
