<svg width="257" height="51" viewBox="0 0 257 51" fill="none" xmlns="http://www.w3.org/2000/svg">
<path d="M23.0452 25.5914C23.0452 26.9507 24.1025 28.0079 25.4618 28.0079C26.821 28.0079 27.8783 26.9507 27.8783 25.5914C27.8783 24.2321 26.821 23.1748 25.4618 23.1748C24.1025 23.1748 23.0452 24.2321 23.0452 25.5914ZM43.4346 23.1748C42.0754 23.1748 41.0181 24.2321 41.0181 25.5914C41.0181 26.9507 42.0754 28.0079 43.4346 28.0079C44.7939 28.0079 45.8512 26.9507 45.8512 25.5914C45.8512 24.2321 44.7939 23.1748 43.4346 23.1748ZM43.4346 41.4498C42.0754 41.4498 41.0181 42.507 41.0181 43.8663C41.0181 45.2256 42.0754 46.2828 43.4346 46.2828C44.7939 46.2828 45.8512 45.2256 45.8512 43.8663C45.8512 42.507 44.7939 41.4498 43.4346 41.4498Z" fill="#F3BB2D"/>
<path d="M48.5709 3.08656C46.1543 0.0659035 41.7744 -0.0851293 39.2068 2.3314L38.9048 2.63346L38.3006 3.08656C35.8841 5.04998 32.2593 4.89895 29.9938 2.63346V2.48243C29.2387 1.72726 28.1814 1.12313 27.1242 0.821067C26.9732 0.821067 26.6711 0.670034 26.5201 0.670034H24.1036C23.9525 0.670034 23.8015 0.670034 23.6505 0.821067H23.3484C23.1974 0.821067 23.0463 0.9721 22.8953 0.9721C22.8953 0.9721 22.7443 0.9721 22.7443 1.12313C22.5932 1.12313 22.4422 1.27417 22.2912 1.27417C22.2912 1.27417 22.1401 1.27417 22.1401 1.4252C21.9891 1.57623 21.8381 1.57623 21.687 1.72726C21.687 1.72726 21.536 1.72726 21.536 1.8783C21.385 2.02933 21.2339 2.02933 21.0829 2.18036L20.9319 2.3314L20.6298 2.63346L20.0257 3.08656C17.6092 5.04998 13.9844 4.89895 11.8699 2.63346C11.8699 2.63346 11.7189 2.63346 11.7189 2.48243L11.4168 2.18036C10.5106 1.4252 9.45338 0.821067 8.24512 0.670034H5.52653C5.52653 0.821067 5.3755 0.821067 5.22446 0.9721H5.07343C4.31827 1.27417 3.5631 1.57623 2.95897 2.18036L2.80794 2.3314L2.35484 2.78449C1.75071 3.38862 1.44865 4.14379 1.14658 4.74792C1.14658 4.89895 0.995547 5.04998 0.995547 5.20102C0.995547 5.35205 0.844514 5.50308 0.844514 5.80515C0.693481 6.86238 0.693481 7.91961 0.995547 8.97684C0.995547 9.12787 1.14658 9.2789 1.14658 9.42994V9.58097C1.14658 9.732 1.29761 9.88303 1.29761 10.0341C1.44865 10.1851 1.44865 10.3361 1.59968 10.6382C1.90174 10.7892 2.20381 11.0913 2.35484 11.2423L2.65691 11.5444L2.95897 11.8465C5.22446 14.112 5.22446 18.0388 2.80794 20.4553C2.50587 20.7574 2.05278 21.2105 1.90174 21.5126C1.75071 21.6636 1.75071 21.8146 1.59968 22.1167V22.2677C1.44865 22.4188 1.44865 22.5698 1.29761 22.7208V22.8719C1.29761 23.0229 1.14658 23.1739 1.14658 23.325V23.476C1.14658 23.627 1.14658 23.778 0.995547 23.9291V26.1946C0.995547 26.3456 0.995547 26.4966 1.14658 26.6477V26.7987C1.44865 27.8559 2.05278 28.9132 2.95897 29.8194C5.3755 32.2359 5.3755 36.1627 2.95897 38.5793L2.80794 38.7303L2.50587 39.0324V39.1834C2.35484 39.3344 2.20381 39.4855 2.20381 39.6365C2.20381 39.6365 2.20381 39.7875 2.05278 39.7875C1.90174 39.9386 1.90174 40.0896 1.75071 40.2406L1.59968 40.3917C1.59968 40.5427 1.44865 40.5427 1.44865 40.6937C1.44865 40.8448 1.29761 40.8447 1.29761 40.9958C1.29761 41.1468 1.29761 41.1468 1.14658 41.2978C0.844514 41.902 0.693481 42.6571 0.693481 43.2613V44.4695C0.844514 44.9226 0.844514 45.3757 1.14658 45.6778C1.14658 45.8288 1.29761 45.9799 1.29761 45.9799C1.29761 45.9799 1.29761 46.1309 1.44865 46.1309C1.44865 46.2819 1.59968 46.433 1.59968 46.584C1.59968 46.584 1.59968 46.735 1.75071 46.735C1.90174 47.0371 2.05278 47.1881 2.20381 47.3392C2.20381 47.3392 2.20381 47.4902 2.35484 47.4902C2.35484 47.4902 2.35484 47.6412 2.50587 47.6412C2.50587 47.7923 2.65691 47.7923 2.65691 47.7923L2.80794 47.9433C2.95897 48.0943 3.11001 48.0943 3.11001 48.2454L3.26104 48.3964C3.26104 48.3964 3.41207 48.3964 3.41207 48.5474C3.5631 48.6985 3.71414 48.8495 3.86517 48.8495C3.86517 48.8495 4.0162 48.8495 4.0162 49.0005C4.16724 49.1516 4.31827 49.1516 4.4693 49.3026H4.62033C4.77137 49.4536 4.9224 49.4536 5.22446 49.4536C5.3755 49.4536 5.67756 49.6047 5.8286 49.6047H5.97963C6.13066 49.6047 6.28169 49.6046 6.43273 49.7557H7.79202C8.24512 49.7557 8.54719 49.6047 9.00028 49.6047H9.15132C9.30235 49.6047 9.45338 49.4536 9.60441 49.4536H9.75545C9.90648 49.4536 10.0575 49.3026 10.2085 49.3026H10.3596C10.6616 49.1516 11.1147 48.8495 11.4168 48.6985L11.8699 48.2454L12.0209 48.0943C14.4375 45.5268 18.3643 45.5268 20.7808 48.0943C23.4994 50.9639 28.0304 50.8129 30.598 47.6412C32.4104 45.3757 32.4104 42.053 30.598 39.6365C28.1814 36.6158 23.8015 36.4648 21.2339 38.8813L20.9319 39.1834L20.3277 39.6365C17.9112 41.5999 14.2864 41.4489 12.0209 39.1834L11.7189 38.8813L11.2658 38.2772C9.30235 35.8607 9.45338 32.2359 11.7189 29.9704C13.0782 28.7621 13.6823 27.1008 13.6823 25.4394V24.9863C13.6823 23.476 13.0782 21.9657 11.8699 20.9084C11.8699 20.7574 11.7189 20.7574 11.7189 20.6064L11.2658 20.0022C9.30235 17.5857 9.45338 13.9609 11.7189 11.6954L11.8699 11.5444L12.0209 11.3934C14.4375 8.8258 18.3643 8.8258 20.7808 11.3934L20.9319 11.5444L21.0829 11.6954L21.385 11.9975C21.536 11.9975 21.536 12.1485 21.687 12.1485C21.8381 12.1485 21.8381 12.2996 21.9891 12.2996C22.1401 12.2996 22.1401 12.4506 22.2912 12.4506C22.4422 12.4506 22.4422 12.6016 22.5932 12.6016C22.7443 12.6016 22.7443 12.7527 22.8953 12.7527C23.0463 12.7527 23.0463 12.9037 23.1974 12.9037C23.3484 12.9037 23.3484 12.9037 23.4994 13.0547C23.6505 13.0547 23.6505 13.0547 23.8015 13.2058H26.3691C26.5201 13.2058 26.6711 13.2058 26.8221 13.0547H27.1242C27.2752 13.0547 27.4263 12.9037 27.5773 12.9037H27.7283C27.8794 12.9037 28.0304 12.7527 28.3325 12.6016C28.9366 12.2996 29.5407 11.8465 29.9938 11.3934L30.1449 11.2423C32.5614 8.67477 36.4882 8.67477 38.9048 11.2423C41.4723 14.263 46.1543 14.112 48.5709 10.9403C50.3833 8.67477 50.3833 5.35205 48.5709 3.08656Z" fill="#F3BB2D"/>
<path d="M83.0058 21.8151C82.0996 20.909 81.3444 20.3048 80.2872 19.8517C79.381 19.3986 78.3238 19.0966 76.9645 19.0966C75.7562 19.0966 74.548 19.3986 73.6418 19.8517C72.7356 20.3048 71.9804 20.909 71.3763 21.8151C70.7721 22.5703 70.319 23.4765 70.017 24.5337C69.7149 25.591 69.5639 26.6482 69.5639 27.7054C69.5639 28.7627 69.7149 29.8199 70.168 30.8771C70.4701 31.9343 71.0742 32.6895 71.6783 33.4447C72.2825 34.1998 73.1887 34.804 74.0949 35.2571C75.0011 35.7102 76.0583 35.8612 77.2666 35.8612C78.6258 35.8612 79.6831 35.5591 80.5893 35.106C81.4955 34.6529 82.4017 34.0488 83.1568 33.1426L86.3285 36.4653C85.1203 37.8246 83.761 38.7308 82.2506 39.3349C80.7403 39.9391 79.0789 40.2411 77.2666 40.2411C75.4542 40.2411 73.6418 39.9391 72.1314 39.3349C70.6211 38.7308 69.2618 37.8246 68.2046 36.7674C67.1474 35.7102 66.2412 34.3509 65.637 32.8405C65.0329 31.3302 64.7308 29.5178 64.7308 27.7054C64.7308 25.893 65.0329 24.0806 65.637 22.5703C66.2412 21.06 67.1474 19.7007 68.2046 18.4924C69.2618 17.4352 70.6211 16.529 72.1314 15.9249C73.6418 15.3207 75.4542 15.0187 77.2666 15.0187C79.0789 15.0187 80.7403 15.3207 82.2506 15.9249C83.912 16.529 85.2713 17.5862 86.4795 18.7945L83.0058 21.8151ZM93.276 27.4034C93.276 28.6116 93.4271 29.8199 93.8802 30.7261C94.1822 31.7833 94.7864 32.6895 95.3905 33.4447C95.9946 34.1998 96.9008 34.804 97.807 35.106C98.7132 35.5591 99.9215 35.7102 101.13 35.7102C102.338 35.7102 103.395 35.5591 104.452 35.106C105.359 34.6529 106.265 34.0488 106.869 33.4447C107.473 32.6895 108.077 31.7833 108.379 30.7261C108.681 29.6689 108.983 28.6116 108.983 27.4034C108.983 26.1951 108.832 24.9868 108.379 24.0806C108.077 23.0234 107.473 22.1172 106.869 21.3621C106.265 20.6069 105.359 20.0028 104.452 19.7007C103.546 19.2476 102.338 19.0966 101.13 19.0966C99.9215 19.0966 98.8642 19.2476 97.807 19.7007C96.9008 20.1538 95.9946 20.7579 95.3905 21.3621C94.7864 22.1172 94.1822 23.0234 93.8802 24.0806C93.5781 25.1379 93.276 26.1951 93.276 27.4034ZM88.443 27.4034C88.443 25.591 88.745 23.9296 89.3492 22.4193C89.9533 20.909 90.8595 19.5497 92.0678 18.3414C93.276 17.1331 94.4843 16.2269 96.1456 15.6228C97.656 15.0187 99.3173 14.5656 101.13 14.5656C102.942 14.5656 104.603 14.8676 106.114 15.6228C107.624 16.2269 108.983 17.1331 110.192 18.3414C111.4 19.5497 112.155 20.909 112.91 22.4193C113.514 23.9296 113.816 25.591 113.816 27.4034C113.816 29.2158 113.514 30.8771 112.91 32.3874C112.306 33.8978 111.4 35.2571 110.192 36.4653C108.983 37.6736 107.775 38.4288 106.114 39.1839C104.603 39.788 102.942 40.2411 101.13 40.2411C99.3173 40.2411 97.656 39.9391 96.1456 39.1839C94.6353 38.5798 93.276 37.6736 92.0678 36.4653C90.8595 35.2571 90.1043 34.0488 89.3492 32.3874C88.8961 30.8771 88.443 29.2158 88.443 27.4034ZM118.498 39.637H123.029V15.4718H118.498V39.637ZM117.441 6.71187C117.441 5.80568 117.743 5.05051 118.347 4.29535C118.952 3.69122 119.707 3.23812 120.613 3.23812C121.519 3.23812 122.274 3.54019 122.878 4.29535C123.483 4.89948 123.785 5.80568 123.785 6.71187C123.785 7.61807 123.483 8.37323 122.878 9.1284C122.274 9.73253 121.519 10.1856 120.613 10.1856C119.707 10.1856 118.952 9.88356 118.347 9.1284C117.743 8.52427 117.441 7.61807 117.441 6.71187ZM129.373 15.4718H133.904V19.2476H134.055C134.659 17.8883 135.565 16.8311 137.076 16.0759C138.435 15.3207 140.096 14.8676 142.06 14.8676C143.268 14.8676 144.325 15.0187 145.382 15.4718C146.44 15.7738 147.346 16.378 148.101 17.1331C148.856 17.8883 149.46 18.7945 150.064 20.0028C150.517 21.211 150.82 22.5703 150.82 24.2317V39.788H146.289V25.4399C146.289 24.3827 146.137 23.3255 145.835 22.5703C145.533 21.8151 145.08 21.06 144.627 20.6069C144.174 20.1538 143.57 19.7007 142.815 19.5497C142.211 19.3986 141.455 19.2476 140.7 19.2476C139.794 19.2476 138.888 19.3986 138.133 19.7007C137.378 20.0028 136.622 20.4559 136.018 21.211C135.414 21.8151 134.961 22.7213 134.659 23.7786C134.357 24.8358 134.206 26.0441 134.206 27.4034V39.9391H129.675V15.4718H129.373ZM167.584 35.8612C168.792 35.8612 169.85 35.7102 170.907 35.2571C171.964 34.804 172.719 34.1998 173.474 33.4447C174.079 32.6895 174.683 31.7833 174.985 30.7261C175.287 29.6689 175.589 28.6116 175.589 27.2523C175.589 26.0441 175.438 24.8358 174.985 23.7786C174.683 22.7213 174.079 21.8151 173.474 21.06C172.719 20.3048 171.964 19.7007 170.907 19.2476C169.85 18.7945 168.792 18.6435 167.584 18.6435C166.376 18.6435 165.319 18.7945 164.261 19.2476C163.204 19.7007 162.449 20.3048 161.694 21.06C161.09 21.8151 160.486 22.7213 160.184 23.7786C159.881 24.8358 159.579 25.893 159.579 27.2523C159.579 28.4606 159.73 29.6689 160.184 30.7261C160.486 31.7833 161.09 32.6895 161.694 33.4447C162.298 34.1998 163.204 34.804 164.261 35.2571C165.168 35.5591 166.376 35.8612 167.584 35.8612ZM180.12 39.486H175.589V36.0122H175.438C174.532 37.3715 173.323 38.2777 171.813 39.0329C170.303 39.788 168.641 40.0901 166.98 40.0901C165.168 40.0901 163.355 39.788 161.845 39.1839C160.335 38.5798 158.975 37.6736 157.918 36.4653C156.861 35.2571 155.955 33.8978 155.502 32.3874C154.897 30.8771 154.595 29.2158 154.595 27.4034C154.595 25.591 154.897 23.9296 155.502 22.2682C156.106 20.7579 156.861 19.3986 157.918 18.1904C158.975 16.9821 160.335 16.0759 161.845 15.4718C163.355 14.8676 165.017 14.5656 166.98 14.5656C168.641 14.5656 170.303 14.8676 171.813 15.6228C173.323 16.378 174.532 17.4352 175.287 18.6435H175.438V0.519531H179.969V39.486H180.12ZM203.228 25.4399C203.228 24.3827 203.077 23.4765 202.775 22.5703C202.473 21.6641 202.02 20.909 201.415 20.3048C200.811 19.7007 200.056 19.2476 199.301 18.7945C198.395 18.4924 197.489 18.1904 196.28 18.1904C195.223 18.1904 194.166 18.3414 193.26 18.7945C192.354 19.2476 191.598 19.7007 190.843 20.4559C190.239 21.06 189.635 21.8151 189.333 22.7213C189.031 23.6275 188.729 24.3827 188.729 25.1379H203.228V25.4399ZM188.729 29.2158C188.729 30.273 189.031 31.1792 189.484 32.0854C189.937 32.9916 190.541 33.7467 191.296 34.3509C192.051 34.955 192.958 35.4081 193.864 35.7102C194.921 36.0122 195.827 36.1633 196.884 36.1633C198.244 36.1633 199.603 35.8612 200.66 35.106C201.718 34.5019 202.624 33.5957 203.53 32.5385L207.004 35.2571C204.436 38.5798 200.811 40.2411 196.28 40.2411C194.317 40.2411 192.656 39.9391 191.145 39.3349C189.635 38.7308 188.276 37.8246 187.218 36.6164C186.161 35.4081 185.255 34.1998 184.802 32.5385C184.198 31.0281 183.896 29.3668 183.896 27.5544C183.896 25.742 184.198 24.0806 184.802 22.5703C185.406 21.06 186.312 19.7007 187.369 18.4924C188.427 17.2842 189.786 16.529 191.296 15.7738C192.807 15.1697 194.468 14.8676 196.28 14.8676C198.395 14.8676 200.207 15.1697 201.718 15.9249C203.228 16.68 204.436 17.5862 205.342 18.7945C206.249 20.0028 207.004 21.3621 207.457 22.8724C207.91 24.3827 208.061 25.893 208.061 27.5544V29.2158H188.729ZM225.883 21.5131C225.279 20.909 224.675 20.3048 223.919 19.8517C223.164 19.3986 222.107 19.0966 221.05 19.0966C219.993 19.0966 219.086 19.3986 218.18 19.8517C217.425 20.3048 216.972 20.909 216.972 21.8151C216.972 22.5703 217.274 23.1744 217.727 23.4765C218.18 23.9296 218.784 24.2317 219.388 24.5337C219.993 24.8358 220.748 24.9868 221.352 25.1379C222.107 25.2889 222.711 25.4399 223.164 25.4399C224.07 25.742 225.128 25.893 225.883 26.3461C226.789 26.6482 227.544 27.1013 228.148 27.7054C228.752 28.3096 229.206 28.9137 229.659 29.6688C229.961 30.424 230.263 31.3302 230.263 32.5385C230.263 33.8978 229.961 35.106 229.357 36.0122C228.752 36.9184 227.997 37.8246 227.091 38.4288C226.185 39.0329 225.128 39.486 223.919 39.788C222.711 40.0901 221.503 40.2411 220.446 40.2411C218.482 40.2411 216.67 39.9391 215.159 39.3349C213.649 38.7308 212.29 37.6736 211.082 36.0122L214.555 33.1426C215.311 33.8978 216.066 34.5019 216.972 35.106C217.878 35.7102 218.935 36.0122 220.295 36.0122C220.899 36.0122 221.503 36.0122 222.107 35.8612C222.711 35.7102 223.164 35.5591 223.617 35.2571C224.07 34.955 224.372 34.6529 224.675 34.3509C224.977 33.8978 225.128 33.4447 225.128 32.9916C225.128 32.3874 224.977 31.7833 224.523 31.3302C224.07 30.8771 223.617 30.575 223.013 30.273C222.409 29.9709 221.805 29.8199 221.201 29.6688L219.388 29.2158C218.482 28.9137 217.425 28.7627 216.67 28.4606C215.764 28.1585 215.008 27.7054 214.404 27.2523C213.8 26.7992 213.196 26.0441 212.743 25.2889C212.29 24.5337 212.139 23.4765 212.139 22.4193C212.139 21.211 212.441 20.0028 212.894 19.0966C213.347 18.1904 214.102 17.4352 215.008 16.8311C215.915 16.2269 216.821 15.7738 217.878 15.4718C218.935 15.1697 220.144 15.0187 221.201 15.0187C222.862 15.0187 224.372 15.3207 225.883 15.9249C227.393 16.529 228.601 17.5862 229.508 18.9455L225.883 21.5131ZM234.643 1.12366H239.174V25.591L249.444 15.3207H255.636L244.611 26.1951L256.693 39.1839H250.199L239.174 26.7992V39.1839H234.643V1.12366Z" fill="black"/>
</svg>
