<svg width="423" height="68" viewBox="0 0 423 68" fill="none" xmlns="http://www.w3.org/2000/svg">
<path d="M200.353 48.3193C201.116 54.5043 200.608 60.435 200.777 66.3657C200.777 67.6366 200.184 67.7213 199.252 67.7213C196.032 67.7213 192.728 67.6366 189.509 67.7213C188.068 67.8061 187.899 67.1283 187.899 65.9421C187.899 56.9613 187.899 47.9804 187.899 39.0843C187.899 31.7132 187.899 24.2575 187.899 16.8864C187.899 15.4461 188.153 14.853 189.763 15.0225C191.966 15.1919 194.169 15.1919 196.287 15.0225C198.066 14.853 198.828 15.5308 199.252 17.1406C199.506 17.9878 199.93 18.8351 200.269 19.8518C201.201 18.8351 201.879 17.9878 202.726 17.2253C208.063 12.5655 216.705 13.6669 220.179 19.8518C224.839 28.2395 224.924 37.1356 220.857 45.6081C217.044 53.4876 207.894 54.8432 201.37 48.9971C201.031 48.8276 200.862 48.6582 200.353 48.3193Z" fill="#C62D2E"/>
<path d="M324.814 30.697C328.372 25.3593 332.185 20.8689 335.828 16.209C336.506 15.2771 337.268 14.9382 338.455 14.9382C342.606 15.0229 346.758 14.9382 351.333 14.9382C349.299 17.4799 347.52 19.598 345.826 21.8009C343.792 24.2579 341.928 26.7996 339.81 29.1719C338.709 30.3581 338.878 31.2053 339.641 32.4762C343.708 38.6611 347.69 44.9307 351.672 51.1156C351.756 51.2004 351.756 51.3695 351.926 51.7931C348.876 51.7931 345.995 51.5389 343.114 51.8778C338.794 52.3862 335.998 51.1156 334.218 46.9641C333.202 44.5071 331.422 42.389 330.152 40.1014C329.643 39.1694 329.22 39 328.203 39.6778C326.254 40.9487 325.153 42.4737 325.407 45.0155C325.576 47.2183 326.424 50.2684 324.983 51.5389C323.713 52.6403 320.832 51.8778 318.629 51.8778C316.68 51.8778 314.054 52.5556 312.868 51.5389C311.597 50.3531 312.444 47.7266 312.444 45.6933C312.444 31.7137 312.444 17.7341 312.359 3.75451C312.359 1.72112 312.952 1.29749 314.816 1.38222C317.697 1.55167 320.578 1.46694 323.458 1.38222C324.899 1.29749 325.407 1.72112 325.322 3.24616C325.322 12.227 325.746 21.2078 324.814 30.697Z" fill="#B52829"/>
<path d="M119.357 20.4454C121.814 17.2259 124.186 15.6161 127.151 14.8536C132.912 13.4132 138.928 15.1077 141.809 19.2592C143.588 21.801 144.096 24.6816 144.181 27.647C144.266 35.1875 144.181 42.728 144.266 50.2685C144.266 51.455 143.927 51.8786 142.741 51.7939C139.521 51.7092 136.217 51.7092 132.997 51.7939C131.472 51.8786 131.303 51.2005 131.303 49.9296C131.387 44.1683 131.303 38.3223 131.303 32.561C131.303 30.9513 131.303 29.3415 130.879 27.7317C130.371 26.122 129.693 24.8511 127.829 24.5969C125.88 24.3427 124.186 24.7664 123 26.4608C121.983 27.9859 121.559 29.6804 121.39 31.4596C120.797 37.4751 121.136 43.5752 121.136 49.6754C121.136 51.5397 120.627 51.8786 118.848 51.7939C115.713 51.6244 112.663 51.7092 109.528 51.7939C108.512 51.7939 108.173 51.5397 108.173 50.5227C108.173 39.0848 108.173 27.647 108.173 16.2092C108.173 15.1077 108.596 14.8536 109.528 14.9383C110.206 15.023 110.969 14.9383 111.647 14.9383C115.205 15.1077 119.611 13.498 119.357 20.4454Z" fill="#D13032"/>
<path d="M292.28 47.1338C288.297 52.387 282.79 53.2343 276.86 52.0481C271.522 50.9464 268.472 45.8629 268.98 39.9322C269.573 33.4083 273.216 30.1041 280.757 29.0027C283.638 28.579 286.518 28.579 289.399 28.4943C290.754 28.4943 290.924 27.9012 290.67 26.7998C290.246 24.597 288.382 23.4108 285.671 23.665C282.96 23.9192 280.418 24.597 277.961 25.7831C276.521 26.4609 276.012 26.122 275.504 24.7664C274.741 22.8178 273.81 20.8691 272.962 18.9204C272.708 18.3273 272.369 17.819 273.301 17.4801C280.842 14.5147 288.552 13.2439 296.346 15.9551C300.837 17.4801 303.124 21.1233 303.463 25.7831C303.972 34.0014 303.548 42.3044 303.717 50.5227C303.717 51.7092 303.294 52.0481 302.192 51.8787C301.599 51.7939 301.091 51.8787 300.498 51.8787C298.634 51.8787 296.685 52.3023 295.075 51.7092C293.55 51.0311 293.55 48.5741 292.28 47.1338Z" fill="#BA292B"/>
<path d="M36.6651 44.4219C36.6651 44.8455 36.6651 45.2691 36.6651 45.6928C36.6651 50.2679 36.6651 50.2679 32.09 51.4542C27.176 52.6404 22.1772 52.8945 17.1784 51.9626C9.89212 50.5221 4.89336 46.2858 2.60579 39.2537C0.233502 31.7979 0.148777 24.2574 3.02942 16.8864C5.99478 9.26113 11.8408 5.19434 19.8049 4.09292C25.8204 3.24567 31.7511 4.09292 37.4277 6.54994C38.2749 6.97356 38.868 7.22773 38.3596 8.32915C37.2582 10.9556 36.2415 13.5821 35.3095 16.2086C34.8859 17.31 34.3776 17.31 33.3609 16.8864C30.6497 15.7002 27.8538 14.6835 24.8884 14.5988C20.0591 14.5141 17.0937 16.5475 15.484 21.1226C14.0436 25.2741 13.9589 29.4256 14.8909 33.6618C16.3312 40.1009 21.0758 42.9816 28.0232 41.5413C30.4802 41.0329 32.7678 40.3551 35.0554 39.4231C36.1568 38.9148 36.7499 38.9995 36.6651 40.4398C36.5804 41.7107 36.6651 43.0663 36.6651 44.4219Z" fill="#E03436"/>
<path d="M253.052 36.9664C249.748 36.9664 246.444 36.9664 243.139 36.9664C241.953 36.9664 241.699 37.3053 242.038 38.4067C242.885 40.9484 244.58 42.3888 247.122 42.8972C251.527 43.7444 255.679 42.8124 259.746 41.2027C261.948 40.3554 261.948 40.3554 261.948 42.7277C261.948 44.3375 261.864 45.9473 261.948 47.557C262.118 49.1668 261.609 49.9293 260 50.5224C253.306 52.8945 246.528 53.064 239.835 51.1154C234.328 49.4209 230.854 45.5236 229.414 39.8471C228.228 35.0178 228.397 30.1885 229.838 25.4439C231.617 19.4284 236.955 15.1075 243.309 14.5991C247.122 14.2602 250.934 14.2602 254.577 15.6158C260.508 17.8186 263.389 22.3938 263.982 28.494C264.236 30.8662 264.066 33.3233 264.151 35.6956C264.236 36.8817 263.643 37.0512 262.626 37.0512C259.491 36.9664 256.272 36.9664 253.052 36.9664Z" fill="#C02B2C"/>
<path d="M378.361 36.9663C375.226 36.9663 372.006 37.051 368.871 36.9663C367.092 36.8816 367.008 37.5594 367.601 38.915C368.533 41.2026 370.227 42.5581 372.599 42.9818C377.005 43.7443 381.157 42.9818 385.223 41.2873C386.918 40.5248 387.596 40.6942 387.426 42.7276C387.257 44.1679 387.257 45.693 387.426 47.1333C387.68 49.2514 386.918 50.3528 384.884 50.9459C378.361 52.8945 371.752 53.2334 365.313 51.2001C359.806 49.5056 356.332 45.5235 354.977 39.847C353.79 35.0176 353.96 30.1883 355.4 25.4438C357.179 19.4283 362.602 15.1921 368.956 14.599C372.684 14.2601 376.497 14.2601 380.055 15.531C386.155 17.7338 389.121 22.3937 389.629 28.6633C389.798 30.8661 389.629 33.1537 389.798 35.4413C389.883 36.6274 389.46 36.9663 388.273 36.9663C384.884 36.9663 381.58 36.9663 378.361 36.9663Z" fill="#AF2627"/>
<path d="M61.5734 52.387C49.1191 52.4717 42.7647 43.7447 43.1883 32.2222C43.3578 28.4095 44.0356 24.6817 46.3231 21.3774C50.1358 15.8703 55.7274 14.2605 61.9971 14.3452C72.5029 14.5147 79.4503 21.2927 79.7892 31.7985C79.9587 36.5431 79.3656 41.1183 76.6544 45.185C73.3502 50.1838 68.5209 52.387 61.5734 52.387Z" fill="#D93234"/>
<path d="M164.175 52.3861C160.532 52.3861 156.974 52.0472 153.5 50.946C152.314 50.6071 151.721 50.1835 151.806 48.8279C151.975 46.5403 151.975 44.3375 151.806 42.0499C151.636 40.0165 152.399 40.1012 153.924 40.6943C157.313 42.0499 160.871 42.8971 164.599 42.8971C165.362 42.8971 166.124 42.8124 166.887 42.643C167.564 42.4735 168.242 42.2193 168.412 41.3721C168.496 40.5248 168.073 39.9318 167.395 39.6776C165.785 38.8304 164.091 38.0678 162.396 37.39C160.193 36.4581 157.991 35.5261 156.042 34.1705C152.06 31.3746 151.213 27.3078 151.975 22.9021C152.907 18.1575 156.466 15.87 160.871 15.0227C167.141 13.7518 173.241 14.4296 179.087 16.8867C180.188 17.395 180.443 17.7339 179.934 18.92C179.087 20.784 178.325 22.6479 177.562 24.5966C177.138 25.698 176.63 25.8675 175.529 25.4438C173.072 24.5119 170.699 23.4952 168.073 23.241C167.734 23.241 167.395 23.0716 167.056 23.1563C165.955 23.241 164.514 23.0716 164.26 24.4272C164.006 25.698 165.277 26.1216 166.294 26.5453C169.09 27.8161 171.885 28.8328 174.597 30.1884C179.68 32.8149 181.629 36.9664 180.612 42.8971C179.85 47.4723 176.376 50.7765 171.292 51.7931C169.005 52.3014 166.632 52.3861 164.175 52.3861Z" fill="#CA2E30"/>
<path d="M408.437 21.0384C409.369 19.8522 410.047 18.9202 410.894 17.9883C413.86 14.8534 417.503 13.9215 421.739 14.5145C422.586 14.5993 423.01 14.8534 422.925 15.7854C422.586 18.9202 422.247 22.055 421.993 25.2746C421.909 26.5455 421.485 26.9691 420.214 26.7149C418.52 26.376 416.825 26.376 415.131 26.7149C411.996 27.308 410.217 29.0025 409.878 32.1373C409.369 36.9666 409.708 41.8806 409.624 46.7099C409.539 51.7084 409.623 51.7084 404.625 51.7084C402.422 51.7084 400.219 51.6236 398.101 51.7084C397.084 51.7084 396.83 51.3695 396.83 50.3531C396.83 38.9153 396.83 27.4774 396.83 16.0396C396.83 14.9382 397.254 14.7687 398.186 14.7687C400.473 14.8534 402.676 14.8534 404.964 14.7687C406.235 14.684 406.658 15.1923 406.997 16.2938C407.336 17.9035 407.844 19.2591 408.437 21.0384Z" fill="#AA2526"/>
<path d="M86.7373 33.4081C86.7373 27.901 86.822 22.3939 86.7373 16.8868C86.7373 15.277 87.1609 14.8534 88.7707 14.9381C91.8208 15.0229 94.8709 15.0229 97.8362 14.9381C99.3613 14.8534 99.7002 15.4465 99.7002 16.8868C99.6155 27.9858 99.6155 39.0847 99.7002 50.0989C99.7002 51.5389 99.1918 51.8778 97.921 51.7931C94.7862 51.7083 91.5666 51.7083 88.4318 51.7931C87.0762 51.8778 86.822 51.3694 86.822 50.0989C86.7373 44.5918 86.7373 39 86.7373 33.4081Z" fill="#D53133"/>
<path d="M93.1758 11.6338C87.9229 11.6338 85.5506 8.92257 86.652 4.09326C86.7368 3.75436 86.8215 3.41546 86.9909 3.07656C88.2618 0.365373 93.9384 -0.736048 97.4121 0.958447C99.8691 2.22932 100.886 6.12666 99.4455 8.92257C98.4288 10.8712 96.5648 11.6338 93.1758 11.6338Z" fill="#D53133"/>
<path d="M210.351 33.239C210.351 35.1876 210.181 37.221 209.588 39.085C208.995 40.7795 207.978 41.8809 206.114 42.0504C204.251 42.2198 202.641 41.4573 201.963 39.7628C200.268 35.4418 200.184 31.1209 201.963 26.7999C202.641 25.1054 204.251 24.5971 206.03 24.6818C207.724 24.7665 208.826 25.529 209.503 27.0541C210.266 29.0027 210.435 31.1209 210.351 33.239Z" fill="#FEFEFE"/>
<path d="M288.806 35.6953C290.839 35.0175 291.009 36.2884 290.924 38.0676C290.754 40.8635 289.06 42.9816 286.349 43.3205C284.654 43.5747 283.044 43.3205 282.367 41.3719C281.689 39.6774 282.367 37.7287 283.976 36.7967C285.417 35.8648 287.027 35.6953 288.806 35.6953Z" fill="#FEFDFD"/>
<path d="M247.206 28.8333C245.935 28.8333 244.664 28.7486 243.393 28.8333C242.377 28.918 242.038 28.4944 242.207 27.4777C242.631 25.1054 244.664 23.4109 247.121 23.3262C249.663 23.2415 251.696 24.6818 252.289 27.0541C252.628 28.2402 252.459 29.0027 251.019 28.8333C249.663 28.7486 248.392 28.8333 247.206 28.8333Z" fill="#FDFBFB"/>
<path d="M372.598 28.8333C371.328 28.8333 370.057 28.8333 368.786 28.8333C367.769 28.918 367.43 28.5791 367.6 27.4777C368.023 25.1054 369.972 23.4109 372.429 23.3262C374.971 23.2415 377.004 24.6818 377.597 27.0541C377.936 28.1555 377.851 29.0027 376.326 28.8333C375.14 28.7486 373.869 28.7486 372.598 28.8333Z" fill="#FDFBFB"/>
<path d="M66.7419 33.4931C66.8266 35.6113 66.5725 37.7294 65.8099 39.7628C65.1321 41.6267 63.7765 42.8129 61.6584 42.8976C59.5403 42.9823 57.9305 41.9656 57.2527 39.9322C55.7277 35.696 55.7277 31.375 57.168 27.0541C57.8458 25.0207 59.4556 24.004 61.5737 24.0887C63.6918 24.0887 65.1321 25.2748 65.8947 27.2235C66.6572 29.2569 66.8266 31.375 66.7419 33.4931Z" fill="#FEFEFE"/>
</svg>
