<svg xmlns:xlink="http://www.w3.org/1999/xlink" xmlns="http://www.w3.org/2000/svg" width="25" height="25" viewBox="0 0 25 25" fill="none"><head xmlns=""/>
<path d="M21.5742 5.47217C21.5742 4.36917 20.6772 3.47217 19.5742 3.47217H5.57422C4.47122 3.47217 3.57422 4.36917 3.57422 5.47217V19.4722C3.57422 20.5752 4.47122 21.4722 5.57422 21.4722H19.5742C20.6772 21.4722 21.5742 20.5752 21.5742 19.4722V5.47217ZM5.57422 19.4722V5.47217H19.5742L19.5762 19.4722H5.57422Z" fill="#1BB6C1"/>
<path d="M7.57422 7.47217H9.57222V9.47217H7.57422V7.47217ZM11.5742 7.47217H17.5742V9.47217H11.5742V7.47217ZM7.57422 11.4722H9.57222V13.4722H7.57422V11.4722ZM11.5742 11.4722H17.5742V13.4722H11.5742V11.4722ZM7.57422 15.4722H9.57222V17.4722H7.57422V15.4722ZM11.5742 15.4722H17.5742V17.4722H11.5742V15.4722Z" fill="#1BB6C1"/>
</svg>