<svg width="407" height="62" viewBox="0 0 407 62" fill="none" xmlns="http://www.w3.org/2000/svg">
<path d="M17.4318 39.1572V39.7484H9.05437V39.1572H9.34893C10.589 39.1572 11.2955 37.0912 11.2955 35.9088V2.95304H4.45262C1.91487 2.95304 0.67689 5.37338 0.67689 7.2046H0.0877686V0.767517H26.5776V7.2046H25.9865C25.9865 5.37338 24.7485 2.95304 22.2107 2.95304H15.2484V35.9088C15.2484 37.0912 15.957 39.1572 17.1373 39.1572H17.4318Z" fill="#070909"/>
<path d="M53.3599 39.1572H53.6565C54.8347 39.1572 55.5433 37.1489 55.5433 35.9088V19.8439H36.6647V35.9088C36.6647 37.0912 37.3135 39.1572 38.4938 39.1572H38.7884V39.7484H30.5283V39.1572H30.8229C32.0032 39.1572 32.7118 37.1489 32.7118 35.9088V4.4279C32.7118 3.30733 32.0629 1.3587 30.8229 1.3587H30.5283V0.767517H38.7884V1.3587H38.4938C37.2538 1.3587 36.6647 3.30733 36.6647 4.4279V17.7758H55.5433V4.4279C55.5433 3.30733 54.8945 1.3587 53.6565 1.3587H53.3599V0.767517H61.6199V1.3587H61.3254C60.0874 1.3587 59.4962 3.30733 59.4962 4.4279V35.9088C59.4962 37.0912 60.2646 39.1572 61.3254 39.1572H61.6199V39.7484H53.3599V39.1572Z" fill="#070909"/>
<path d="M66.5165 39.1572H66.8111C67.9914 39.1572 68.8174 37.2086 68.8174 36.0262V4.4279C68.8174 3.30733 67.9914 1.3587 66.8111 1.3587H66.5165V0.767517H89.2307V6.25912H88.6416C88.4644 4.4279 87.2841 2.83356 84.6289 2.83356H72.7703V17.7758H82.5629C84.3921 17.7758 85.7495 16.4781 85.7495 15.0012H86.3407V22.3838H85.7495C85.7495 20.9666 84.4518 19.7842 82.5629 19.7842H72.7703V37.6803H85.6918C88.6992 37.6803 90.1164 34.4916 90.1164 32.8376H90.7056V39.7484H66.5165V39.1572Z" fill="#070909"/>
<path d="M108.822 39.1572H109.119C110.297 39.1572 111.005 37.0912 111.005 35.9088V4.4279C111.005 3.30733 110.357 1.3587 109.119 1.3587H108.822V0.767517H120.209C132.716 0.767517 140.151 10.2161 140.151 20.4351C140.151 30.0032 133.19 39.7484 119.443 39.7484H108.822V39.1572ZM117.968 2.83356H114.958V37.6803H118.085C126.582 37.6803 136.14 32.4833 136.14 21.3209C136.14 11.2213 128.411 2.83356 117.968 2.83356Z" fill="#070909"/>
<path d="M167.761 39.1573H168.056C169.001 39.1573 169.473 38.7432 169.473 37.8575C169.473 37.5629 169.413 37.2086 169.296 36.8543L163.985 22.5012H153.661L148.528 36.6175C148.411 36.9141 148.351 37.2086 148.351 37.5032C148.351 38.5084 149 39.1573 149.649 39.1573H149.943V39.7485H143.395V39.1573H143.689C144.693 39.1573 145.755 37.7401 146.404 36.086L159.915 0.05896L173.131 35.7317C173.661 37.3261 174.606 39.1573 176.198 39.1573H176.493V39.7485H167.761V39.1573ZM154.25 20.4928H163.336L158.794 8.15011L154.25 20.4928Z" fill="#070909"/>
<path d="M180.268 0.767517H188.706V1.35664H188.409C187.288 1.35664 186.522 3.2476 186.522 4.4279V35.9088C186.522 37.0891 187.231 39.1572 188.409 39.1572H188.706V39.7484H180.268V39.1572H180.563C181.801 39.1572 182.51 37.1489 182.51 35.9088V4.4279C182.51 3.30733 181.801 1.3587 180.563 1.3587H180.268V0.767517Z" fill="#070909"/>
<path d="M194.368 39.1572H194.663C195.843 39.1572 196.669 37.2086 196.669 36.0262V4.4279C196.669 3.30733 195.843 1.3587 194.663 1.3587H194.368V0.767517H202.863V1.3587H202.569C201.388 1.3587 200.622 3.30733 200.622 4.4279V37.5629H213.542C216.551 37.5629 217.966 34.3742 217.966 32.3061H218.557V39.7484H194.368V39.1572Z" fill="#070909"/>
<path d="M217.016 0.767517H225.159V1.35664C224.627 1.41638 224.038 1.83041 224.038 2.59668C224.038 2.77383 224.096 3.01071 224.216 3.2476L233.065 18.781L241.56 4.0736C241.856 3.42475 241.974 3.2476 241.974 2.77383C241.796 1.53379 240.793 1.35664 240.616 1.35664V0.767517H246.93V1.35664C245.749 1.35664 244.452 3.18786 243.566 4.66478L234.362 20.6123V35.9088C234.362 37.0315 235.129 39.1572 236.309 39.1572H236.604V39.7464H228.166V39.1572H228.463C229.701 39.1572 230.41 37.1489 230.41 35.9088V21.1437L220.909 4.84193C220.143 3.66163 218.609 1.3587 217.311 1.3587H217.016V0.767517Z" fill="#070909"/>
<path d="M287.997 39.1572H288.292C289.472 39.1572 290.179 37.1489 290.179 35.9088V19.8439H271.3V35.9088C271.3 37.0912 271.949 39.1572 273.129 39.1572H273.424V39.7484H265.166V39.1572H265.46C266.641 39.1572 267.347 37.1489 267.347 35.9088V4.4279C267.347 3.30733 266.698 1.3587 265.46 1.3587H265.166V0.767517H273.424V1.3587H273.129C271.891 1.3587 271.3 3.30733 271.3 4.4279V17.7758H290.179V4.4279C290.179 3.30733 289.53 1.3587 288.292 1.3587H287.997V0.767517H296.257V1.3587H295.961C294.723 1.3587 294.132 3.30733 294.132 4.4279V35.9088C294.132 37.0912 294.9 39.1572 295.961 39.1572H296.257V39.7484H287.997V39.1572Z" fill="#070909"/>
<path d="M340.858 20.1386C340.858 31.9519 331.537 40.3376 320.208 40.3376C308.114 40.3376 300.68 30.8293 300.68 20.67C300.68 10.5128 308.114 0.176392 321.036 0.176392C333.247 0.176392 340.858 9.50759 340.858 20.1386ZM336.847 20.8471C336.847 12.1648 330.299 2.2445 320.267 2.2445C310.532 2.2445 304.633 11.8126 304.633 19.844C304.633 28.5263 311.595 38.2716 320.976 38.2716C331.537 37.7978 336.847 28.7035 336.847 20.8471Z" fill="#070909"/>
<path d="M345.989 39.1572H346.283C347.463 39.1572 348.172 37.0912 348.172 35.9088V4.4279C348.172 3.30733 347.523 1.3587 346.283 1.3587H345.989V0.767517H357.376C369.883 0.767517 377.317 10.2161 377.317 20.4351C377.317 30.0032 370.355 39.7484 356.609 39.7484H345.989V39.1572ZM355.134 2.83356H352.125V37.6803H355.252C363.747 37.6803 373.304 32.4833 373.304 21.3209C373.304 11.2213 365.576 2.83356 355.134 2.83356Z" fill="#070909"/>
<path d="M382.391 39.1572H382.685C383.865 39.1572 384.691 37.2086 384.691 36.0262V4.4279C384.691 3.30733 383.865 1.3587 382.685 1.3587H382.391V0.767517H390.885V1.3587H390.591C389.411 1.3587 388.644 3.30733 388.644 4.4279V37.5629H401.564C404.573 37.5629 405.988 34.3742 405.988 32.3061H406.58V39.7484H382.389V39.1572H382.391Z" fill="#070909"/>
<path d="M10.5829 59.0412L6.04497 50.5731C6.07381 51.706 6.08823 53.0882 6.08823 54.2211V59.0412H4.88733V49.401H6.72885L11.2667 57.8691C11.2379 56.7362 11.2235 55.354 11.2235 54.2211V49.401H12.3976L12.4244 59.0412H10.5829Z" fill="#2F302F"/>
<path d="M24.3981 55.7021H19.0384C19.1496 57.659 20.0724 58.3161 21.16 58.3161C22.1241 58.3161 22.9047 57.7146 23.0716 56.6517H24.3281C24.0356 58.4417 22.6246 59.2368 21.1044 59.2368C19.1784 59.2368 17.7407 57.9803 17.7407 55.3664C17.7407 52.9646 19.2341 51.4402 21.2569 51.4402C23.2961 51.4402 24.427 52.9645 24.427 55.1295C24.427 55.2407 24.427 55.4364 24.3981 55.7021ZM19.0528 54.7793H23.2117C23.1004 53.2426 22.4433 52.3631 21.2301 52.3631C20.058 52.3631 19.1929 53.2014 19.0528 54.7793Z" fill="#2F302F"/>
<path d="M37.3075 59.0412H35.8842L34.2383 52.8101L32.5904 59.0412H31.1671L28.8085 51.636H30.1886L31.9066 57.8959L33.5256 51.636H35.019L36.6649 57.8547L38.3828 51.636H39.6661L37.3075 59.0412Z" fill="#2F302F"/>
<path d="M49.4628 53.7452H48.2083C48.0394 52.8801 47.51 52.3631 46.6449 52.3631C45.8065 52.3631 45.4151 52.8245 45.4151 53.4672C45.4151 54.2067 46.029 54.5012 47.0342 54.7669C48.7377 55.2139 49.5472 55.8834 49.5472 57.142C49.5472 58.5385 48.3607 59.2368 46.7973 59.2368C45.2751 59.2368 44.1174 58.5385 43.895 56.8618H45.1494C45.3451 57.9391 46.029 58.3161 46.8818 58.3161C47.6769 58.3161 48.3196 57.9515 48.3196 57.2388C48.3196 56.5261 47.8169 56.1491 46.5748 55.8133C45.2483 55.4508 44.1875 54.9049 44.1875 53.6072C44.1875 52.2498 45.2195 51.4402 46.7417 51.4402C48.4019 51.4402 49.3103 52.3898 49.4628 53.7452Z" fill="#2F302F"/>
<path d="M65.75 57.9803L65.3462 58.7775C64.8436 59.1256 64.2009 59.2368 63.4882 59.2368C62.1493 59.2368 61.1029 58.4974 61.1029 57.1275C61.1029 55.4508 62.3574 54.5836 65.2618 54.5836H65.7355V54.3879C65.7355 54.0666 65.7355 53.7741 65.7088 53.4939C65.6531 52.8101 65.2618 52.3631 64.271 52.3631C63.2658 52.3631 62.7632 52.9069 62.6787 53.9286H61.4222C61.5334 52.3486 62.6375 51.4402 64.271 51.4402C66.0301 51.4402 66.7696 52.1818 66.8952 53.3971C66.922 53.6896 66.9364 54.0542 66.9364 54.3756V57.1564C66.9364 57.7146 66.9632 58.2172 67.0765 59.0412H65.8756L65.75 57.9803ZM65.7355 56.2336V55.4796C63.6983 55.3252 62.413 55.7577 62.413 57.0307C62.413 57.9247 62.9856 58.3161 63.894 58.3161C65.0105 58.3161 65.7355 57.5745 65.7355 56.2336Z" fill="#2F302F"/>
<path d="M79.1062 54.8782V59.0412H77.9053V54.9626C77.9053 54.5836 77.9053 54.2767 77.8786 53.8997C77.8085 53.0325 77.3347 52.3898 76.1895 52.3898C75.0298 52.3898 74.0534 53.257 74.0534 55.7866V59.0412H72.8525V51.6359H74.0534V52.9069L74.5148 52.0541C75.1431 51.5659 75.6869 51.4402 76.4408 51.4402C78.0598 51.4402 78.9662 52.3075 79.0774 53.6052C79.1062 53.9842 79.1062 54.2767 79.1062 54.8782Z" fill="#2F302F"/>
<path d="M91.4016 59.0411H90.2007V57.8546L89.6425 58.6497C89.2243 58.9999 88.4437 59.2368 87.6898 59.2368C85.5248 59.2368 84.326 57.6178 84.326 55.4508C84.326 52.7112 86.0274 51.4402 87.9411 51.4402C88.5549 51.4402 89.3356 51.6215 89.7125 51.9284L90.2007 52.6555V48.7706H91.4016V59.0411ZM90.2007 55.4096V55.0038C90.2007 53.0902 89.0019 52.363 87.9411 52.363C86.6413 52.363 85.6381 53.3683 85.6381 55.3107C85.6381 56.9874 86.39 58.316 87.871 58.316C89.0987 58.316 90.2007 57.5333 90.2007 55.4096Z" fill="#2F302F"/>
<path d="M103.567 59.0412V49.401H104.768V59.0412H103.567Z" fill="#2F302F"/>
<path d="M116.952 54.8782V59.0412H115.753V54.9626C115.753 54.5836 115.753 54.2767 115.724 53.8997C115.654 53.0325 115.181 52.3898 114.035 52.3898C112.878 52.3898 111.899 53.257 111.899 55.7866V59.0412H110.698V51.6359H111.899V52.9069L112.361 52.0541C112.989 51.5659 113.533 51.4402 114.287 51.4402C115.906 51.4402 116.812 52.3075 116.925 53.6052C116.952 53.9842 116.952 54.2767 116.952 54.8782Z" fill="#2F302F"/>
<path d="M127.657 53.7452H126.401C126.234 52.8801 125.703 52.3631 124.837 52.3631C123.999 52.3631 123.61 52.8245 123.61 53.4672C123.61 54.2067 124.224 54.5012 125.229 54.7669C126.93 55.2139 127.74 55.8834 127.74 57.142C127.74 58.5385 126.553 59.2368 124.99 59.2368C123.47 59.2368 122.31 58.5385 122.087 56.8618H123.344C123.54 57.9391 124.224 58.3161 125.074 58.3161C125.869 58.3161 126.512 57.9515 126.512 57.2388C126.512 56.5261 126.009 56.1491 124.767 55.8133C123.441 55.4508 122.38 54.9049 122.38 53.6072C122.38 52.2498 123.414 51.4402 124.934 51.4402C126.597 51.4402 127.503 52.3898 127.657 53.7452Z" fill="#2F302F"/>
<path d="M134.37 49.9736C134.37 50.4062 134.035 50.742 133.602 50.742C133.17 50.742 132.834 50.4062 132.834 49.9736C132.834 49.539 133.17 49.2053 133.602 49.2053C134.035 49.2053 134.37 49.539 134.37 49.9736ZM133.001 59.0412V51.636H134.202V59.0412H133.001Z" fill="#2F302F"/>
<path d="M146.596 57.2264C146.596 57.6858 146.596 58.2605 146.581 58.6642C146.511 60.8312 145.199 61.9765 143.065 61.9765C140.956 61.9765 139.909 61.0969 139.757 59.5314L139.742 59.3913H140.956L140.97 59.517C141.069 60.4254 141.794 61.0536 143.065 61.0536C144.53 61.0536 145.325 60.2153 145.382 58.7898C145.395 58.4417 145.395 58.2028 145.395 57.9803V57.8547L144.836 58.6518C144.418 59 143.638 59.2389 142.884 59.2389C140.719 59.2389 139.52 57.6178 139.52 55.4508C139.52 52.7132 141.221 51.4402 143.135 51.4402C143.749 51.4402 144.53 51.6215 144.907 51.9305L145.395 52.6556V51.6359H146.596V57.2264ZM145.395 55.4096V55.0038C145.395 53.0902 144.196 52.3631 143.133 52.3631C141.835 52.3631 140.83 53.3683 140.83 55.3107C140.83 56.9875 141.584 58.3161 143.065 58.3161C144.293 58.3161 145.395 57.5333 145.395 55.4096Z" fill="#2F302F"/>
<path d="M158.78 54.8782V59.0412H157.579V54.9626C157.579 54.5836 157.579 54.2767 157.55 53.8997C157.48 53.0325 157.006 52.3631 155.861 52.3899C154.703 52.4187 153.727 53.2571 153.727 55.7866V59.0412H152.526V48.7027H153.727V52.9069L154.186 52.0562C154.815 51.5659 155.358 51.4403 156.112 51.4403C157.731 51.4403 158.64 52.3075 158.751 53.6072C158.78 53.9842 158.78 54.2767 158.78 54.8782Z" fill="#2F302F"/>
<path d="M166.049 56.8762C166.049 57.1275 166.049 57.2532 166.064 57.4489C166.119 58.1616 166.414 58.3161 167.349 58.2028V59.0844C166.999 59.14 166.665 59.1545 166.329 59.1545C165.408 59.1545 164.933 58.7775 164.863 57.8547C164.85 57.659 164.85 57.35 164.85 56.9319V52.6144H163.859V51.6916H164.85V49.9736H166.049V51.6916H167.431V52.6144H166.049V56.8762Z" fill="#2F302F"/>
<path d="M179.286 50.9644V51.6916H180.806V52.6144H179.286V59.0412H178.085V52.6144H177.29V51.6916H178.085V51.0777C178.085 50.7976 178.099 50.4351 178.126 50.1837C178.252 49.1064 178.979 48.507 180.081 48.507C180.388 48.507 180.68 48.5338 180.932 48.575V49.5679C180.025 49.401 179.424 49.6111 179.327 50.2105C179.298 50.4062 179.286 50.7564 179.286 50.9644Z" fill="#2F302F"/>
<path d="M192.613 55.3396C192.613 57.42 191.456 59.2368 188.943 59.2368C186.432 59.2368 185.272 57.42 185.272 55.3396C185.272 53.2426 186.432 51.4402 188.943 51.4402C191.456 51.4402 192.613 53.2426 192.613 55.3396ZM191.301 55.3396C191.301 53.5928 190.436 52.3631 188.943 52.3631C187.449 52.3631 186.584 53.5928 186.584 55.3396C186.584 57.0719 187.449 58.3161 188.943 58.3161C190.436 58.3161 191.301 57.0719 191.301 55.3396Z" fill="#2F302F"/>
<path d="M201.281 51.5659V52.4743C200.024 52.3899 199.075 53.1314 199.075 54.8226V59.0412H197.874V51.6359H199.075V52.7957L199.744 51.8028C200.051 51.5948 200.428 51.467 200.778 51.467C200.974 51.4691 201.141 51.4959 201.281 51.5659Z" fill="#2F302F"/>
<path d="M214.073 56.8762C214.073 57.1275 214.073 57.2532 214.085 57.4489C214.141 58.1616 214.435 58.3161 215.37 58.2028V59.0844C215.02 59.14 214.687 59.1545 214.351 59.1545C213.43 59.1545 212.956 58.7775 212.886 57.8547C212.872 57.659 212.872 57.35 212.872 56.9319V52.6144H211.881V51.6916H212.872V49.9736H214.073V51.6916H215.453V52.6144H214.073V56.8762Z" fill="#2F302F"/>
<path d="M227.067 54.8782V59.0412H225.866V54.9626C225.866 54.5836 225.866 54.2767 225.837 53.8997C225.767 53.0325 225.293 52.3631 224.148 52.3899C222.99 52.4187 222.014 53.2571 222.014 55.7866V59.0412H220.813V48.7027H222.014V52.9069L222.473 52.0562C223.101 51.5659 223.645 51.4403 224.399 51.4403C226.018 51.4403 226.927 52.3075 227.038 53.6072C227.067 53.9842 227.067 54.2767 227.067 54.8782Z" fill="#2F302F"/>
<path d="M238.942 55.7021H233.582C233.695 57.659 234.616 58.3161 235.703 58.3161C236.667 58.3161 237.448 57.7146 237.617 56.6517H238.872C238.579 58.4417 237.17 59.2368 235.648 59.2368C233.722 59.2368 232.284 57.9803 232.284 55.3664C232.284 52.9646 233.777 51.4402 235.802 51.4402C237.84 51.4402 238.97 52.9645 238.97 55.1295C238.97 55.2407 238.97 55.4364 238.942 55.7021ZM233.596 54.7793H237.755C237.644 53.2426 236.989 52.3631 235.774 52.3631C234.601 52.3631 233.736 53.2014 233.596 54.7793Z" fill="#2F302F"/>
<path d="M258.576 54.1099C258.576 56.9463 256.929 58.7075 254.696 58.9856C254.207 59.0412 253.983 59.0412 253.468 59.0412H250.607V49.401H253.538C254.055 49.401 254.278 49.401 254.766 49.4566C256.999 49.7347 258.576 51.2302 258.576 54.1099ZM257.264 54.1099C257.264 51.9717 256.274 50.7131 254.64 50.4474C254.333 50.3918 253.971 50.3774 253.468 50.3774H251.808V58.0627H253.398C253.901 58.0627 254.263 58.0504 254.57 57.9927C256.203 57.729 257.264 56.386 257.264 54.1099Z" fill="#2F302F"/>
<path d="M265.316 49.9736C265.316 50.4062 264.98 50.742 264.548 50.742C264.115 50.742 263.779 50.4062 263.779 49.9736C263.779 49.539 264.115 49.2053 264.548 49.2053C264.98 49.2053 265.316 49.539 265.316 49.9736ZM263.948 59.0412V51.636H265.149V59.0412H263.948Z" fill="#2F302F"/>
<path d="M277.543 57.2264C277.543 57.6858 277.543 58.2605 277.529 58.6642C277.459 60.8312 276.147 61.9765 274.011 61.9765C271.903 61.9765 270.857 61.0969 270.703 59.5314L270.688 59.3913H271.903L271.916 59.517C272.015 60.4254 272.74 61.0536 274.011 61.0536C275.477 61.0536 276.272 60.2153 276.328 58.7898C276.342 58.4417 276.342 58.2028 276.342 57.9803V57.8547L275.784 58.6518C275.364 59 274.583 59.2389 273.829 59.2389C271.667 59.2389 270.466 57.6178 270.466 55.4508C270.466 52.7132 272.169 51.4402 274.081 51.4402C274.695 51.4402 275.477 51.6215 275.854 51.9305L276.342 52.6556V51.6359H277.543V57.2264ZM276.342 55.4096V55.0038C276.342 53.0902 275.142 52.3631 274.081 52.3631C272.783 52.3631 271.778 53.3683 271.778 55.3107C271.778 56.9875 272.532 58.3161 274.011 58.3161C275.238 58.3161 276.342 57.5333 276.342 55.4096Z" fill="#2F302F"/>
<path d="M284.842 49.9736C284.842 50.4062 284.506 50.742 284.073 50.742C283.641 50.742 283.305 50.4062 283.305 49.9736C283.305 49.539 283.641 49.2053 284.073 49.2053C284.506 49.2053 284.842 49.539 284.842 49.9736ZM283.472 59.0412V51.636H284.673V59.0412H283.472Z" fill="#2F302F"/>
<path d="M292.043 56.8762C292.043 57.1275 292.043 57.2532 292.055 57.4489C292.111 58.1616 292.405 58.3161 293.341 58.2028V59.0844C292.99 59.14 292.657 59.1545 292.321 59.1545C291.4 59.1545 290.926 58.7775 290.856 57.8547C290.842 57.659 290.842 57.35 290.842 56.9319V52.6144H289.851V51.6916H290.842V49.9736H292.043V51.6916H293.423V52.6144H292.043V56.8762Z" fill="#2F302F"/>
<path d="M302.901 57.9803L302.495 58.7775C301.992 59.1256 301.352 59.2368 300.639 59.2368C299.298 59.2368 298.251 58.4974 298.251 57.1275C298.251 55.4508 299.508 54.5836 302.412 54.5836H302.886V54.3879C302.886 54.0666 302.886 53.7741 302.857 53.4939C302.802 52.8101 302.412 52.3631 301.42 52.3631C300.416 52.3631 299.914 52.9069 299.829 53.9286H298.573C298.684 52.3486 299.788 51.4402 301.42 51.4402C303.179 51.4402 303.918 52.1818 304.044 53.3971C304.073 53.6896 304.087 54.0542 304.087 54.3756V57.1564C304.087 57.7146 304.114 58.2172 304.225 59.0412H303.026L302.901 57.9803ZM302.886 56.2336V55.4796C300.849 55.3252 299.564 55.7577 299.564 57.0307C299.564 57.9247 300.136 58.3161 301.043 58.3161C302.161 58.3161 302.886 57.5745 302.886 56.2336Z" fill="#2F302F"/>
<path d="M311.148 56.9174C311.148 57.1419 311.148 57.3788 311.163 57.6157C311.189 58.0915 311.414 58.246 312.069 58.176V59.0411C311.803 59.0844 311.496 59.0988 311.218 59.0988C310.52 59.0988 310.003 58.8743 309.962 57.9391C309.947 57.6878 309.947 57.3665 309.947 56.9607V48.7727H311.148V56.9174Z" fill="#2F302F"/>
<path d="M329.903 59.0412H323.497V49.401H329.763V50.3774H324.696V53.7329H329.345V54.7113H324.696V58.0648H329.903V59.0412Z" fill="#2F302F"/>
<path d="M341.123 54.1222H339.867C339.601 52.9357 338.961 52.3631 337.97 52.3631C336.81 52.3631 335.834 53.2715 335.834 55.2695C335.834 57.42 336.783 58.3161 337.885 58.3161C338.862 58.3161 339.546 57.7558 339.797 56.6806H341.053C340.691 58.3985 339.463 59.2368 337.815 59.2368C335.945 59.2368 334.522 58.0648 334.522 55.354C334.522 52.8513 336.141 51.4402 337.997 51.4402C339.77 51.4402 340.901 52.5031 341.123 54.1222Z" fill="#2F302F"/>
<path d="M353.056 55.3396C353.056 57.42 351.898 59.2368 349.385 59.2368C346.872 59.2368 345.715 57.42 345.715 55.3396C345.715 53.2426 346.872 51.4402 349.385 51.4402C351.898 51.4402 353.056 53.2426 353.056 55.3396ZM351.744 55.3396C351.744 53.5928 350.879 52.3631 349.385 52.3631C347.892 52.3631 347.027 53.5928 347.027 55.3396C347.027 57.0719 347.892 58.3161 349.385 58.3161C350.879 58.3161 351.744 57.0719 351.744 55.3396Z" fill="#2F302F"/>
<path d="M364.571 54.8782V59.0412H363.37V54.9626C363.37 54.5836 363.37 54.2767 363.341 53.8997C363.271 53.0325 362.797 52.3898 361.654 52.3898C360.494 52.3898 359.518 53.257 359.518 55.7866V59.0412H358.317V51.6359H359.518V52.9069L359.977 52.0541C360.606 51.5659 361.149 51.4402 361.903 51.4402C363.522 51.4402 364.431 52.3075 364.542 53.6052C364.571 53.9842 364.571 54.2767 364.571 54.8782Z" fill="#2F302F"/>
<path d="M377.132 55.3396C377.132 57.42 375.972 59.2368 373.459 59.2368C370.948 59.2368 369.788 57.42 369.788 55.3396C369.788 53.2426 370.948 51.4402 373.459 51.4402C375.972 51.4402 377.132 53.2426 377.132 55.3396ZM375.818 55.3396C375.818 53.5928 374.952 52.3631 373.459 52.3631C371.966 52.3631 371.101 53.5928 371.101 55.3396C371.101 57.0719 371.966 58.3161 373.459 58.3161C374.952 58.3161 375.818 57.0719 375.818 55.3396Z" fill="#2F302F"/>
<path d="M392.301 54.5156V59.0412H391.102V55.0739C391.102 54.4168 391.087 54.011 391.046 53.634C390.933 52.7956 390.404 52.3898 389.565 52.3898C388.63 52.3898 387.946 53.1314 387.946 55.3808V59.0412H386.747V55.0739C386.747 54.4168 386.733 54.011 386.69 53.634C386.578 52.7956 386.049 52.3898 385.211 52.3898C384.275 52.3898 383.592 53.1314 383.592 55.3808V59.0412H382.393V51.6359H383.592V52.7112L384.067 51.8728C384.444 51.5659 384.974 51.4402 385.631 51.4402C386.76 51.4402 387.487 52.0129 387.765 52.8245L388.422 51.8728C388.799 51.5659 389.328 51.4402 389.985 51.4402C391.312 51.4402 392.064 52.223 392.233 53.2426C392.288 53.6196 392.301 53.9141 392.301 54.5156Z" fill="#2F302F"/>
<path d="M401.136 59.6715C400.534 61.235 399.739 61.9765 398.538 61.9765C398.272 61.9765 398.106 61.9765 397.924 61.9477V60.9713C398.106 60.9837 398.231 60.9837 398.357 60.9837C399.096 60.9837 399.585 60.6623 399.962 59.6839L400.06 59.4202L397.115 51.636H398.468L400.674 58.1472L402.866 51.636H404.178L401.136 59.6715Z" fill="#2F302F"/>
</svg>
