<svg width="141" height="59" viewBox="0 0 141 59" fill="none" xmlns="http://www.w3.org/2000/svg">
<path d="M138.901 57.301V55.801H3.70146V4.00103H137.301V57.301H138.901V55.801V57.301H140.501V0.901031H0.501465V58.901H140.501V57.301H138.901Z" fill="black"/>
<path d="M17.4015 31.901L21.1015 41.301H21.2015L24.7015 31.901H28.9015L29.6015 33.601L29.0015 33.701C28.6015 33.701 28.3015 34.001 28.4015 34.401L29.1015 45.101L30.3015 45.201L31.0015 47.001H25.3015V45.301L26.0015 45.201C26.5015 45.201 26.5015 45.001 26.5015 44.401L25.8015 35.901L22.1015 44.601L20.0015 45.301L16.5015 35.901L16.0015 45.001L17.2015 45.101V46.901H11.5015L12.2015 45.201L12.9015 45.101C13.3015 45.001 13.5015 44.901 13.5015 44.301L14.2015 33.701L13.0015 33.601L13.7015 31.801H17.4015V31.901Z" fill="black"/>
<path d="M31.9014 46.901L32.6014 45.201L33.1014 45.101C33.6014 45.001 33.7014 44.801 33.9014 44.401L37.5014 33.801L36.3014 33.701L37.0014 31.901H41.3014L46.0014 45.101L46.8014 45.201L47.5014 46.901H41.8014V45.201L42.5014 45.101C42.9014 45.101 43.1014 44.801 42.9014 44.401L42.3014 42.601H37.1014L36.3014 45.001L37.5014 45.101V46.901H31.9014ZM37.6014 40.701H41.8014L39.7014 34.301H39.6014L37.6014 40.701Z" fill="black"/>
<path d="M57.1015 44.501V40.901L56.0015 40.801L55.3015 39.001H61.2015L60.9015 40.701L60.3015 40.801C59.9015 40.901 59.7015 41.001 59.7015 41.501V45.801C58.4015 46.701 56.6015 47.201 54.6015 47.201C50.2015 47.201 47.8015 44.701 47.8015 39.401C47.8015 33.601 51.2015 31.601 55.1015 31.601C56.9015 31.601 58.6015 32.001 59.6015 32.501V34.501L57.5015 35.301V34.601C57.5015 34.201 57.5015 34.001 57.1015 33.901C56.7015 33.801 55.9015 33.701 55.3015 33.701C52.1015 33.701 50.7015 35.801 50.7015 39.101C50.7015 42.701 51.9015 44.801 54.7015 44.801C55.5015 45.001 56.5015 44.801 57.1015 44.501Z" fill="black"/>
<path d="M76.1016 46.201L73.5016 46.901L66.9016 36.001V45.101L68.1016 45.201V46.901H62.6016L63.3016 45.201L63.7016 45.101C64.1016 45.001 64.2016 44.901 64.2016 44.501V33.701L62.7016 33.601L63.4016 31.801H67.1016L73.5016 42.601V33.701L72.3016 33.601V31.901H77.7016L77.0016 33.601L76.6016 33.701C76.2016 33.801 76.0016 33.901 76.0016 34.401V46.201H76.1016Z" fill="black"/>
<path d="M77.8015 46.901L78.5015 45.201L78.7015 45.101C79.2015 45.001 79.3015 44.801 79.5015 44.401L83.2015 33.801L82.0015 33.701L82.7015 31.901H87.0015L91.5015 45.001L92.3015 45.101L93.0015 46.901H87.3015V45.201L88.0015 45.101C88.4015 45.101 88.6015 44.801 88.4015 44.401L87.8015 42.601H82.6015L81.8015 45.001L83.0015 45.101V46.901H77.8015ZM83.1015 40.701H87.3015L85.2015 34.301H85.1015L83.1015 40.701Z" fill="black"/>
<path d="M97.0016 33.901H94.9016C94.4016 33.901 94.3016 34.101 94.3016 34.501V35.301L92.1016 34.601V31.901H104.502V34.601L102.302 35.301V34.501C102.302 34.101 102.202 33.901 101.702 33.901H99.7016V45.101L101.002 45.201L101.702 47.001H95.0016L95.7016 45.301L96.4016 45.201C96.9016 45.201 97.0016 45.001 97.0016 44.501V33.901Z" fill="black"/>
<path d="M106.902 45.201L107.102 45.101C107.702 45.001 107.802 44.901 107.802 44.301V33.701L106.902 33.601L106.202 31.801H116.802V34.501L114.602 35.201V34.101C114.602 33.701 114.502 33.801 114.002 33.801H110.502V38.101H115.902V40.201H110.502V44.901H114.302C114.802 44.901 114.802 44.701 114.802 44.301V44.101L117.002 43.501V46.901H106.102L106.902 45.201Z" fill="black"/>
<path d="M126.602 42.801C126.602 41.401 125.402 40.801 123.802 40.301C121.702 39.701 119.502 38.801 119.602 35.901C119.702 33.101 121.802 31.501 125.002 31.601C126.402 31.601 128.102 31.901 129.202 32.501V34.701L127.002 35.401V34.701C127.002 34.301 127.002 34.101 126.602 34.001C126.302 33.901 125.502 33.801 125.002 33.801C123.802 33.801 122.602 34.201 122.502 35.701C122.502 37.101 123.702 37.601 125.402 38.201C127.502 38.901 129.602 39.701 129.502 42.701C129.402 45.701 127.402 47.301 123.802 47.201C122.202 47.201 120.602 46.901 119.302 46.301V44.101L121.502 43.401V44.101C121.502 44.501 121.602 44.701 121.902 44.801C122.302 44.901 123.002 45.001 123.702 45.001C125.302 45.001 126.602 44.501 126.602 42.801Z" fill="black"/>
<path d="M13.4014 12.901H23.2014V13.901H14.5014V19.401H21.7014V20.401H14.5014V27.601H13.4014V12.901Z" fill="black"/>
<path d="M31.6015 12.901H30.5015V27.601H31.6015V12.901Z" fill="black"/>
<path d="M39.9014 12.901H40.9014L50.8014 25.801V12.901H51.8014V27.601H50.9014L41.0014 14.701V27.601H39.9014V12.901Z" fill="black"/>
<path d="M65.3014 12.801H66.3014L72.9014 27.601H71.8014L69.9014 23.301H61.7014L59.8014 27.601H58.7014L65.3014 12.801ZM69.5014 22.401L65.8014 14.201L62.1014 22.401H69.5014Z" fill="black"/>
<path d="M79.7014 12.901H80.6014L90.5014 25.801V12.901H91.6014V27.601H90.7014L80.7014 14.701V27.601H79.7014V12.901Z" fill="black"/>
<path d="M99.2014 20.201C99.2014 15.801 102.401 12.601 106.601 12.601C108.201 12.601 109.601 13.001 110.801 13.801V14.901C109.601 14.101 108.201 13.601 106.601 13.601C103.001 13.601 100.201 16.401 100.201 20.201C100.201 24.001 103.001 26.801 106.601 26.801C108.401 26.801 109.901 26.301 111.101 25.301V26.501C109.901 27.401 108.401 27.901 106.601 27.901C102.501 27.801 99.2014 24.701 99.2014 20.201Z" fill="black"/>
<path d="M118.302 12.901H128.202V13.901H119.402V19.201H126.702V20.201H119.402V26.601H128.502V27.601H118.302V12.901Z" fill="black"/>
</svg>
