<svg width="201" height="55" fill="none" xmlns="http://www.w3.org/2000/svg"><path d="M120.845 21.6187c0-5.304.091-10.2423.366-14.81474l-13.992 2.65202v1.28032l1.372.1829c1.005.0914 1.646.4572 2.011 1.0059.366.6401.641 1.5546.823 2.9264.183 2.652.366 8.6876.275 18.1983 0 9.4193-.092 15.3635-.275 17.6497 5.03 1.0974 8.962 1.5546 11.889 1.5546 5.487 0 9.785-1.5546 12.894-4.7553 3.109-3.1093 4.756-7.4988 4.756-12.8943 0-4.2981-1.189-7.8647-3.567-10.6996s-5.395-4.2066-8.962-4.2066c-2.378 0-4.847.6401-7.59 1.9204zm.274 28.1663c-.183-2.9264-.366-11.7055-.366-26.063.823-.2743 1.921-.4572 3.292-.4572 2.195 0 3.933 1.0974 5.213 3.3836 1.28 2.2862 1.92 5.0297 1.92 8.5048 0 4.2981-.731 7.7731-2.194 10.6995-1.463 2.8349-3.292 4.2981-5.579 4.2981-.731-.1829-1.463-.2744-2.286-.3658zM54.7271 7.71845H18.1475v1.82898l1.9204.18289c1.4632.27438 2.4691.82308 3.1093 1.64608.6401.9145 1.0059 2.3777 1.0973 4.3896.7316 9.8765.7316 19.1128 0 27.6176-.1829 2.0118-.5486 3.475-1.0973 4.3895-.6402.9145-1.6461 1.4632-3.1093 1.6461l-1.9204.2744v1.8289h23.5938v-1.8289l-2.4691-.1829c-1.4632-.1829-2.4691-.8231-3.1093-1.6461-.6401-.9145-1.0059-2.3777-1.0974-4.3896-.2743-3.6579-.4572-7.8646-.4572-12.5285l4.9382.0914c2.6521.0915 4.481 2.1034 5.3955 6.1271h1.829V22.2588h-1.829c-.9145 3.9323-2.652 5.9442-5.3955 6.0357l-4.9382.0914c0-8.2304.1829-14.0831.4572-17.6496H42.29c5.1212 0 8.5962 3.2921 10.6081 9.8765l2.1948-.6402-.3658-12.25415zM50.429 35.8847c0 4.7554 1.3717 8.6877 4.0237 11.797 2.6521 3.1092 6.5844 4.5724 11.5226 4.5724 4.9383 0 8.962-1.5546 11.8884-4.7553 2.9264-3.1093 4.2981-7.0416 4.2981-11.797 0-4.7553-1.3718-8.6876-4.0238-11.7969-2.652-3.1092-6.5843-4.5724-11.5226-4.5724-4.9382 0-8.962 1.5546-11.8883 4.7553-2.9264 3.1093-4.2981 7.0416-4.2981 11.7969zm20.3931-10.4251c1.0974 2.652 1.5546 6.127 1.5546 10.3337 0 9.6936-2.0118 14.4489-5.9442 14.4489-2.0118 0-3.5665-1.3717-4.6638-4.1152-1.0974-2.7434-1.5547-6.2185-1.5547-10.3337 0-9.6021 2.0119-14.3575 5.9442-14.3575 2.0119-.0914 3.5665 1.2803 4.6639 4.0238zm77.2749 22.2221c3.017 3.0178 6.858 4.5724 11.431 4.5724 2.835 0 5.304-.5487 7.498-1.7375 2.195-1.0974 3.933-2.4691 5.122-4.1152l-.915-1.0974c-2.012 1.5546-4.298 2.2862-6.95 2.2862-3.658 0-6.493-1.1888-8.413-3.6579-2.012-2.4692-2.927-5.5784-2.744-9.6022h19.57c0-4.3895-1.097-7.9561-3.383-10.791-2.287-2.7434-5.487-4.1152-9.602-4.1152-5.122 0-9.054 1.6461-11.889 4.8468-2.835 3.2007-4.206 7.133-4.206 11.7969 0 4.7554 1.463 8.5963 4.481 11.6141zm6.767-22.9537c1.006-2.1948 2.286-3.2922 4.024-3.2922 2.743 0 4.115 3.4751 4.115 10.5166l-9.694.1829c.092-2.7434.549-5.2126 1.555-7.4073zm42.432-3.658c-2.469-1.0974-5.578-1.7375-9.328-1.7375-3.841 0-6.858 1.0059-9.145 2.9263-2.286 1.9205-3.475 4.2981-3.475 7.1331 0 2.4691.732 4.3895 2.104 5.7613 1.371 1.3717 3.566 2.5605 6.401 3.5665 2.561.9145 4.39 1.8289 5.304 2.652.915.9145 1.463 1.9204 1.463 3.2922 0 1.2802-.457 2.4691-1.463 3.3836-.914 1.0059-2.195 1.4632-3.841 1.4632-4.023 0-7.041-2.9264-9.145-8.7792l-1.554.4573.366 9.1449c3.292 1.2803 6.95 1.9204 10.973 1.9204 4.207 0 7.408-.9145 9.785-2.8349 2.378-1.829 3.567-4.481 3.567-7.7732 0-2.1947-.549-4.0237-1.738-5.3955-1.188-1.3717-3.109-2.5605-5.852-3.6579-3.018-1.0974-5.121-2.1033-6.219-3.0178-1.097-.9145-1.646-2.0119-1.646-3.3836 0-1.3718.366-2.4692 1.189-3.3837.823-.9145 1.829-1.2803 3.109-1.2803 3.658 0 6.31 2.6521 7.956 7.8647l1.555-.4573-.366-7.8646zm-87.974-.823c-1.28-.6402-2.652-.9145-4.207-.9145-1.554 0-3.109.6401-4.846 1.9204-1.7378 1.2803-3.0181 3.0178-4.0241 5.3955l.0915-7.3159-13.9003 2.7434v1.2803l1.3718.0915c1.7375.1829 2.7434 1.5546 2.9263 4.0237.5487 5.6699.5487 11.7055 0 18.1069-.1829 2.4692-1.1888 3.7495-2.9263 4.0238l-1.3718.1829v1.7375h19.3869V49.785l-2.4688-.1829c-1.7375-.1829-2.7435-1.5546-2.9264-4.0238-.5487-5.304-.6401-10.9738-.1829-16.8266.5487-.9145 1.7376-1.4632 3.5666-1.6461 1.8285-.1829 3.9325.3658 6.1275 1.6461l3.383-8.5047z" fill="#000"/></svg>