<svg width="433" height="62" viewBox="0 0 433 62" fill="none" xmlns="http://www.w3.org/2000/svg">
<path fill-rule="evenodd" clip-rule="evenodd" d="M0.9151 31.0845C0.9151 14.3247 14.5026 0.737183 31.2625 0.737183C48.0229 0.737183 61.6092 14.3241 61.6092 31.0845C61.6092 47.845 48.0223 61.4313 31.2625 61.4313C14.5026 61.4313 0.9151 47.8444 0.9151 31.0845ZM48.5141 42.7613C48.6027 42.8111 48.6915 42.8603 48.8121 42.9272C49.9134 43.5394 49.8669 45.3362 47.7891 45.3344C46.225 45.3344 43.3293 45.6037 41.5632 45.9466L43.1206 44.5318L43.071 44.4828C41.9979 45.2411 40.8712 45.9203 39.6997 46.5153C38.7085 46.9156 37.213 47.5658 35.6702 48.2527L37.9415 46.0965L37.8906 46.0433C37.8906 46.0433 34.9834 48.3855 32.9221 49.4801C31.6818 50.0403 30.6142 50.5288 30.0124 50.8043C29.1786 51.1844 28.5236 51.2922 27.5912 50.961C26.4805 50.5734 25.3754 50.1699 24.2762 49.7507C23.5446 49.474 23.4902 48.4431 24.2701 48.1945C24.4675 48.1309 24.8499 48.0091 25.2515 47.8814C25.5413 47.7892 25.841 47.6938 26.0883 47.6148L26.8762 47.9607C27.1514 48.0822 27.4273 48.2029 27.696 48.3203C27.8361 48.3816 27.9742 48.442 28.1091 48.5012C28.3056 48.5857 28.4966 48.6696 28.676 48.7492L28.8095 48.8104C28.8232 48.8155 28.8372 48.8216 28.8513 48.8277C28.8592 48.8312 28.8671 48.8346 28.875 48.8379L28.905 48.8508H28.9135L28.9282 48.8612C29.0024 48.8984 29.0717 48.9447 29.1345 48.9989C29.2436 49.0918 29.3278 49.2105 29.3794 49.3442C29.4181 49.4499 29.4342 49.5625 29.4265 49.6748C29.4229 49.7483 29.4112 49.8212 29.3917 49.8921C29.3745 49.9411 29.3672 49.968 29.3672 49.968L29.4474 50.0005L29.4804 49.9209C29.5103 49.8449 29.5309 49.7655 29.5416 49.6846C29.5578 49.5563 29.5485 49.426 29.5141 49.3013C29.4659 49.139 29.3772 48.9915 29.2564 48.8728C29.1887 48.8056 29.1142 48.7457 29.0341 48.6941L29.0188 48.6855L29.0121 48.6806L28.998 48.6714L28.9662 48.6537C28.9466 48.6414 28.9258 48.6304 28.905 48.6194C28.8856 48.6084 28.8666 48.5973 28.8474 48.5861C28.8248 48.5728 28.8021 48.5595 28.7789 48.5465C28.6978 48.4999 28.6137 48.4522 28.5279 48.4037C28.4337 48.3503 28.3375 48.2959 28.2414 48.2404L27.0733 47.5719C26.3472 47.1591 25.622 46.7426 25.0467 46.4121C24.9249 46.3422 24.8098 46.2761 24.7029 46.2147L24.6937 46.211C27.0184 45.4901 29.3548 44.8076 31.702 44.1639L32.3332 44.4406L32.3546 44.4002L32.3644 44.3812L31.9971 44.0831L31.0311 43.2995L30.5487 43.1342L30.2285 42.2551L29.792 42.0102L29.3635 40.0512L29.2937 40.0653L29.4725 42.2079L28.2524 42.8924V40.0628L28.1771 40.0549L27.8232 43.0374L26.1783 43.3588L26.7403 40.1142L26.6656 40.0989L25.6604 43.4139L24.0466 43.5235L25.2165 40.061L25.1467 40.0328L23.4265 43.5572H23.4228L21.8311 43.6637L23.6873 40.012L23.6261 39.9753L21.083 43.7359L19.3916 44.0016L22.1403 39.9465L22.0864 39.9037L17.4595 45.2805L17.2103 45.114L21.3555 38.6144L27.702 36.2367C27.702 36.2367 28.1342 36.0505 28.3791 35.944C28.3919 35.9386 28.4047 35.9333 28.4176 35.9279C28.5293 35.881 28.6446 35.8327 28.7654 35.7696C28.8118 35.7482 28.8552 35.7227 28.8986 35.6972C28.92 35.6846 28.9414 35.6721 28.9631 35.66C29.0292 35.6232 29.0905 35.5804 29.1517 35.5375C29.2724 35.4499 29.386 35.3529 29.4914 35.2474L29.5722 35.1733L29.6433 35.0919C29.6813 35.0505 29.7145 35.0066 29.7475 34.9629C29.757 34.9503 29.7665 34.9378 29.7761 34.9253C29.819 34.8696 29.8569 34.8121 29.8918 34.7552C29.9008 34.7405 29.9099 34.7261 29.9191 34.7117C29.9455 34.67 29.9716 34.6288 29.9916 34.5856C30.0036 34.5596 30.0162 34.5349 30.0287 34.5106C30.0441 34.4804 30.0592 34.4508 30.0724 34.4203C30.0856 34.3897 30.0981 34.3594 30.1103 34.3298C30.12 34.3061 30.1296 34.2829 30.1391 34.2605C30.1743 34.1669 30.2043 34.0715 30.2291 33.9746C30.2554 33.8889 30.2701 33.8106 30.2805 33.7469C30.286 33.7135 30.2898 33.6845 30.293 33.6595C30.296 33.637 30.2985 33.6178 30.3014 33.6018C30.3075 33.5681 30.3075 33.5504 30.3075 33.5504L30.2334 33.5375L30.2218 33.5871C30.2198 33.596 30.2179 33.606 30.2158 33.6169C30.2098 33.6476 30.2024 33.6859 30.1893 33.7291C30.1842 33.7462 30.1792 33.7643 30.1739 33.7835C30.161 33.8305 30.1464 33.8836 30.1238 33.9409C30.0928 34.0319 30.0566 34.121 30.0155 34.2079C30.0078 34.2228 30.0003 34.238 29.9927 34.2534C29.9765 34.2861 29.9599 34.3197 29.9408 34.353C29.9328 34.3668 29.925 34.381 29.9172 34.3954C29.8973 34.4317 29.8769 34.4691 29.8514 34.5042C29.8385 34.522 29.8264 34.5402 29.8142 34.5585C29.7929 34.5906 29.7714 34.623 29.7449 34.6542C29.7284 34.6735 29.7128 34.6933 29.6971 34.7131C29.6731 34.7435 29.6491 34.7738 29.6224 34.8023C29.5803 34.8531 29.5353 34.9016 29.4878 34.9474L29.4155 35.0172L29.339 35.0833C29.2348 35.172 29.1236 35.2523 29.0066 35.3233C28.9497 35.3582 28.8884 35.3949 28.8272 35.4224C28.8052 35.4324 28.7831 35.443 28.7611 35.4536C28.7219 35.4725 28.6827 35.4914 28.6436 35.5063C28.5272 35.5531 28.4003 35.5976 28.2782 35.6404L28.2609 35.6465C28.0075 35.734 27.7663 35.8191 27.5667 35.8914C27.4569 35.9311 27.3568 35.9668 27.2692 35.998C27.1976 36.0235 27.1344 36.046 27.0813 36.0652L26.6711 35.2425L27.4963 34.5231L27.4584 34.4693L25.2545 35.8161L24.7366 34.7796L27.7112 32.5758L27.6634 32.5146L23.1375 35.2198L22.7262 34.1271L26.9907 31.2792L26.9533 31.2179L21.4583 34.2354L21.1987 33.2076L25.8477 30.2544L25.814 30.1931L20.1207 33.0931L19.9572 31.8803L24.6503 29.3483L24.6209 29.2871L18.81 31.7101L18.7831 30.5249L23.5275 28.6719L23.5024 28.6008L17.7478 30.1754L17.8176 28.8806L22.1874 27.8772L22.1727 27.8087L16.5724 28.5776L16.7512 27.4585L20.8718 27.0159V26.9449L15.1173 27.0391L15.2042 26.0939L19.7956 26.0627L19.7999 25.9935L11.5543 25.3911L11.5403 25.3134L12.8767 24.8506V24.7851L9.46005 23.4811L9.46862 23.4083L10.8369 23.2981L10.8497 23.2277L7.90081 21.407L7.91612 21.3054L9.98286 21.4242L10.0073 21.3587L7.62961 19.1279L7.66022 19.0568L8.77563 19.2711L8.80991 19.2154L7.69328 17.8104L7.00028 15.8196L7.07069 15.7853L8.14018 17.1321L10.5571 18.5206L10.6085 18.4734L9.04866 16.1838L8.46341 13.6267L8.53626 13.5937L9.79614 15.4853L12.2363 17.4713L12.2847 17.4229L10.7903 14.7128L10.2767 11.4069L10.3569 11.388L11.8133 14.204L14.8742 16.7458L14.9355 16.6981L12.8283 13.3157L12.3526 9.26L12.4218 9.2398L13.735 12.8358L18.0723 16.7403L23.5434 19.5423L29.5484 27.8846L31.8839 29.8534L31.9402 29.7989L30.9178 28.4662L33.3225 27.8472L33.3188 27.7713L31.2288 27.6489L31.2239 27.5791L34.2891 27.0318L34.2812 26.9639L30.455 26.6724L30.452 26.5996L35.3305 25.7817L37.2687 26.2402L37.2901 26.1729L35.4419 25.3226L32.414 25.3899L32.4073 25.3177L35.6366 24.7055L37.639 25.3899L37.666 25.3226L35.849 24.1711L33.7027 24.0841V24.0064L36.1086 23.6342L38.2108 24.6198L38.2494 24.5586L36.512 22.9283L34.6259 22.9216L34.6179 22.8444L36.9173 22.3302L38.9583 24.01L39.0042 23.9623L37.4395 21.669L35.729 21.3489L35.7364 21.2785L37.8968 21.1481L39.8447 23.5197L39.906 23.4799L38.5053 20.5285L36.635 19.9163L36.6491 19.8435L39.033 20.0382L40.8414 23.1499L40.9026 23.1205L39.7003 19.4701L37.3556 18.632L37.3697 18.5597L40.2078 19.0703L41.7891 22.8242L41.8588 22.8028L40.8181 18.6161L38.3082 17.1909L38.3406 17.1217L41.3299 18.2592L42.7575 22.4569L42.8286 22.441L41.9348 17.8612L39.2032 15.8649L39.243 15.8037L42.4263 17.5466L43.6728 21.9592L43.7462 21.9439L42.9645 17.2197L40.1006 14.6772L40.1441 14.6209L43.4958 16.9068L44.4631 21.4046L44.531 21.3905L44.0413 16.6099L41.1848 13.5196L41.2344 13.4621L44.5402 16.294L45.2687 20.6485L45.3428 20.643L45.0232 16.0651L42.3192 12.5334L42.3712 12.4844L45.5546 15.8129L46.0578 19.5821L46.127 19.5754L45.9648 15.5919L43.494 11.8024L43.5497 11.7583L46.4123 15.3843L46.7937 18.0914L46.8665 18.0847L46.7337 15.1884L44.9755 11.2619L45.0367 11.227L47.2185 14.9454L47.4218 16.4722L47.4916 16.4648L47.5957 14.7268L46.6847 11.0311L46.7539 11.0047L48.007 14.1061H48.0774L48.8494 11.0084L48.9259 11.0255L48.6725 14.073L48.7404 14.0957L50.8604 11.0451L50.9217 11.0825L49.5455 13.8373L49.5938 13.8881L52.8323 11.5759L52.8727 11.6341L47.9287 18.2977C47.9287 18.2977 46.3327 22.5726 45.8136 24.0003C45.7695 24.1311 45.6974 24.2506 45.6022 24.3506C45.507 24.4505 45.3911 24.5284 45.2626 24.5788L41.2589 26.1778L40.2004 27.1102L36.6742 27.5234L36.6852 27.6048L40.2304 27.6103C40.2304 27.6103 41.3507 28.0315 42.82 28.6241C43.4971 28.8959 43.857 29.505 43.7995 30.1999C43.7995 30.1999 44.3804 30.7821 44.7037 31.1494C45.0857 31.5975 45.1285 32.2146 44.8261 32.6186C44.6025 32.9029 44.2772 33.0892 43.9189 33.1384L43.8833 33.0716C44.1166 32.8378 44.0211 32.4625 43.8154 32.1644C43.5999 31.854 43.4058 31.7965 43.1855 31.9305C43.0869 31.9917 42.9614 32.0836 42.9614 32.0836L43.5124 32.9645L43.4915 33.0257C43.0544 33.1476 42.4484 33.049 42.1649 32.6915H39.4346L39.4303 32.7643L40.951 33.038L40.9963 33.1445L35.7841 39.2737L35.8331 39.3209L37.6084 37.7347V39.1188L37.4456 39.5357L37.6176 40.5067L37.5564 40.9211L39.1805 42.3059L39.2246 42.3273C39.2457 42.3372 39.2662 42.3485 39.2858 42.361C39.3097 42.3732 39.3366 42.3873 39.3636 42.4044C39.3927 42.4218 39.4209 42.4406 39.4481 42.4608C39.4793 42.4791 39.508 42.5012 39.5362 42.5275C39.5449 42.5356 39.5534 42.5438 39.5619 42.552C39.5811 42.5704 39.6003 42.5889 39.6207 42.6059C39.6501 42.6303 39.6776 42.6573 39.7009 42.6916C39.7111 42.7067 39.722 42.7206 39.7326 42.7343C39.7462 42.7516 39.7594 42.7686 39.7707 42.7871C39.7927 42.8187 39.8132 42.8513 39.8319 42.885C39.8408 42.9052 39.8505 42.9231 39.86 42.9407C39.8674 42.9545 39.8747 42.9681 39.8815 42.9823C39.8968 43.0148 39.9096 43.0454 39.9225 43.076C39.9315 43.0974 39.9384 43.117 39.9447 43.1349C39.9473 43.1425 39.9499 43.1498 39.9525 43.1568C39.9616 43.1793 39.969 43.2024 39.9745 43.226C39.9862 43.2682 39.9941 43.2909 39.9941 43.2909H40.0639C40.0733 43.2709 40.0817 43.2505 40.089 43.2297C40.0989 43.2047 40.1057 43.1786 40.1092 43.1519C40.1167 43.1163 40.12 43.0799 40.119 43.0436C40.119 43.0374 40.1193 43.0309 40.1195 43.0242C40.1201 43.0104 40.1207 42.996 40.119 42.9823C40.1182 42.9756 40.117 42.9686 40.1159 42.9615C40.1135 42.9472 40.1111 42.9323 40.1111 42.9181C40.1032 42.8704 40.0921 42.8234 40.078 42.7773C40.0627 42.7296 40.0434 42.6833 40.0204 42.6389C39.9935 42.5923 39.963 42.5479 39.9292 42.5061C39.8943 42.4661 39.856 42.4292 39.8148 42.3959C39.7754 42.3622 39.7328 42.3326 39.6874 42.3077C39.6446 42.286 39.6005 42.2672 39.5552 42.2514C39.5389 42.2448 39.5221 42.2397 39.505 42.2361L40.1111 42.1014C40.1321 42.1112 40.1525 42.1222 40.1723 42.1345C40.1992 42.1476 40.2252 42.1625 40.25 42.1792C40.2791 42.196 40.3073 42.2144 40.3345 42.2342C40.3657 42.252 40.3933 42.2747 40.422 42.301C40.4328 42.3108 40.4435 42.3211 40.4542 42.3314C40.472 42.3485 40.4897 42.3656 40.5077 42.3806C40.5365 42.4044 40.5653 42.432 40.5879 42.4657C40.6025 42.4874 40.6176 42.5073 40.6328 42.5272C40.6411 42.5382 40.6495 42.5492 40.6577 42.5605C40.681 42.5924 40.703 42.6218 40.7189 42.6585C40.7261 42.6749 40.7344 42.6898 40.7425 42.7041C40.7524 42.7217 40.7618 42.7385 40.7679 42.7564C40.7838 42.7866 40.7979 42.8177 40.8102 42.8495C40.8218 42.8801 40.831 42.9058 40.8396 42.9315C40.8485 42.9539 40.856 42.9768 40.8622 43.0001C40.867 43.0221 40.8733 43.0438 40.8812 43.065L40.9522 43.0687C40.9522 43.0687 40.9626 43.0448 40.9761 43.0038C40.9866 42.9795 40.993 42.9536 40.995 42.9272C41.0034 42.8913 41.0069 42.8545 41.0055 42.8177C41.0055 42.8115 41.0057 42.805 41.006 42.7983C41.0065 42.7845 41.0071 42.7701 41.0055 42.7564C41.004 42.7445 41.0026 42.7318 41.0009 42.7187C40.9997 42.7095 40.9984 42.7002 40.9969 42.6909C40.9898 42.6436 40.979 42.5969 40.9644 42.5514C40.9283 42.4528 40.8759 42.3609 40.8096 42.2796C40.7746 42.2391 40.7361 42.2018 40.6945 42.1681C40.6545 42.1353 40.6119 42.1058 40.5671 42.08C40.5275 42.0595 40.4866 42.0417 40.4447 42.0267C43.3005 41.4084 45.5099 40.9909 45.5099 40.9909C47.8158 42.3568 48.1624 42.5636 48.5141 42.7613ZM44.1107 31.1014C43.9191 30.9223 43.7275 30.7432 43.5387 30.5611L43.3336 30.7961C43.5242 30.9345 43.7116 31.0752 43.8989 31.2159C44.0209 31.3075 44.1427 31.399 44.2654 31.4898C44.2926 31.5145 44.3184 31.5409 44.3425 31.5687C44.3555 31.5834 44.3678 31.5987 44.3792 31.6146C44.3916 31.6297 44.4028 31.6457 44.4129 31.6624C44.4344 31.6953 44.4528 31.7302 44.468 31.7665C44.485 31.8026 44.4984 31.8403 44.5078 31.8791C44.5179 31.9178 44.5242 31.9574 44.5268 31.9973V32.0585C44.528 32.0789 44.528 32.0993 44.5268 32.1197C44.5217 32.1595 44.5133 32.1988 44.5017 32.2372C44.4962 32.2557 44.4893 32.2737 44.4808 32.2911L44.4533 32.3523L44.5145 32.386L44.5488 32.3315C44.5592 32.3119 44.5708 32.2899 44.5794 32.2703C44.5969 32.2271 44.6104 32.1825 44.6198 32.1368C44.621 32.1287 44.623 32.1205 44.6251 32.1121C44.6285 32.0984 44.632 32.0841 44.632 32.0689C44.6348 32.0459 44.6361 32.0228 44.6357 31.9997C44.6379 31.9537 44.6354 31.9075 44.6284 31.862C44.6227 31.816 44.6127 31.7707 44.5984 31.7267C44.5847 31.6815 44.5675 31.6375 44.547 31.595C44.5424 31.5871 44.5382 31.5789 44.534 31.5707C44.5275 31.558 44.5211 31.5453 44.5133 31.5338C44.5018 31.5127 44.4892 31.4923 44.4753 31.4726C44.4485 31.4341 44.4192 31.3973 44.3878 31.3624L44.3835 31.3569C44.2928 31.2715 44.2018 31.1864 44.1107 31.1014ZM41.9409 29.6624C41.9073 29.7098 41.885 29.7642 41.8754 29.8215V29.8228C41.8636 29.8525 41.8564 29.8839 41.8539 29.9158C41.8536 29.9467 41.8567 29.9775 41.8631 30.0076V30.0217L41.8692 30.0438L41.8729 30.064L41.8968 30.116C41.9122 30.1517 41.9328 30.1849 41.958 30.2146C41.9703 30.2305 41.984 30.2452 41.999 30.2586C42.0119 30.272 42.0261 30.2841 42.0413 30.2948C42.0644 30.3131 42.0894 30.3289 42.116 30.3419L42.1417 30.356C42.2029 30.3813 42.2683 30.3952 42.3345 30.397H42.3706C42.4061 30.396 42.4412 30.3896 42.4747 30.378L42.5225 30.3627L42.5365 30.3572L42.5592 30.3468L42.5733 30.3358C42.6306 30.3041 42.6804 30.2602 42.719 30.2072C42.7553 30.1604 42.7806 30.106 42.793 30.0481L42.7967 30.0297C42.8018 30.0109 42.8047 29.9916 42.8053 29.9721V29.9109C42.8019 29.8833 42.7953 29.8562 42.7857 29.8301L42.7784 29.8062C42.766 29.7805 42.7517 29.7557 42.7355 29.7322L42.7233 29.715L42.6406 29.7462V29.7622C42.6389 29.7838 42.6389 29.8055 42.6406 29.827C42.6382 29.8344 42.6339 29.8436 42.6339 29.8521C42.6319 29.8672 42.6282 29.882 42.6229 29.8962C42.6198 29.906 42.6131 29.9189 42.6082 29.9317C42.6062 29.9358 42.604 29.9398 42.6016 29.9437C42.5997 29.947 42.5976 29.9501 42.5953 29.9532L42.5849 29.9715C42.5818 29.9775 42.5774 29.9827 42.572 29.9868C42.5699 29.989 42.5679 29.9912 42.5659 29.9934C42.5631 29.9965 42.5605 29.9996 42.558 30.0027C42.5488 30.0133 42.5381 30.0224 42.5261 30.0297C42.5217 30.0363 42.5154 30.0394 42.5044 30.0448L42.5004 30.0468L42.4857 30.0542L42.4521 30.0683C42.4256 30.076 42.3982 30.0795 42.3706 30.0787C42.3436 30.0768 42.3169 30.0708 42.2917 30.0609L42.2684 30.0474L42.2555 30.0413C42.2485 30.0334 42.2402 30.0266 42.2311 30.0211L42.2225 30.0162C42.2195 30.0098 42.2148 30.0043 42.209 30.0003C42.202 29.9945 42.1967 29.9869 42.1937 29.9783L42.1735 29.9458V29.9354C42.1657 29.9207 42.1608 29.9048 42.1588 29.8883C42.155 29.877 42.1533 29.8652 42.1539 29.8534V29.8411C42.153 29.8318 42.153 29.8223 42.1539 29.813C42.1542 29.8099 42.1544 29.8068 42.1544 29.8038C42.1545 29.7999 42.1543 29.796 42.1539 29.7922C42.154 29.7853 42.1552 29.7784 42.1576 29.772C42.1606 29.7646 42.163 29.757 42.1649 29.7493C42.1674 29.7441 42.1691 29.7385 42.1698 29.7328L42.187 29.6979L42.2047 29.6685C42.21 29.6633 42.2138 29.6567 42.2158 29.6495C42.2359 29.6337 42.2549 29.6165 42.2727 29.5981L42.2855 29.5846L42.2366 29.4867L42.2176 29.4897C42.2176 29.4897 42.1907 29.494 42.1356 29.505L42.1172 29.5142C42.0891 29.5261 42.0627 29.5418 42.0388 29.5607C42.0229 29.5736 42.0058 29.5871 41.9892 29.6024C41.9772 29.6136 41.9667 29.6264 41.958 29.6403C41.9519 29.6474 41.9462 29.6547 41.9409 29.6624ZM41.8491 31.6863C41.8143 31.7321 41.7874 31.7834 41.7695 31.8381V31.8393C41.7563 31.8898 41.7506 31.942 41.7523 31.9942C41.7541 32.0051 41.754 32.0164 41.7539 32.0276C41.7539 32.0397 41.7538 32.0516 41.756 32.0628C41.7603 32.0842 41.7676 32.105 41.7725 32.124C41.7772 32.1425 41.7831 32.1607 41.7903 32.1785C41.796 32.1867 41.8005 32.1945 41.8047 32.2022C41.8087 32.2093 41.8124 32.2163 41.8166 32.2232C41.8252 32.2372 41.8307 32.2489 41.8393 32.2599C41.8478 32.2709 41.8582 32.2801 41.8662 32.2887C41.8821 32.305 41.8991 32.3204 41.917 32.3346L41.9599 32.3027C41.958 32.2821 41.9547 32.2617 41.9501 32.2415C41.9482 32.2316 41.9469 32.2216 41.9464 32.2115V32.1766C41.9437 32.1514 41.9437 32.1259 41.9464 32.1007C41.9501 32.0722 41.9564 32.0441 41.9654 32.0168C41.968 32.0024 41.9736 31.9886 41.9819 31.9764C41.986 31.9696 41.9886 31.9627 41.9911 31.9558C41.9938 31.9486 41.9965 31.9414 42.0009 31.9348C42.0157 31.911 42.0325 31.8885 42.0511 31.8675C42.0602 31.8545 42.0713 31.8431 42.0841 31.8338L42.1098 31.8118L42.1221 31.802C42.147 31.7849 42.174 31.7709 42.2023 31.7603C42.2302 31.7483 42.2594 31.7393 42.2892 31.7334C42.2972 31.7319 42.3047 31.7319 42.3121 31.7319C42.3195 31.7319 42.3269 31.7319 42.3345 31.7303C42.3493 31.7273 42.3645 31.7273 42.3792 31.7303C42.3921 31.7334 42.4068 31.7334 42.4068 31.7334C42.4252 31.7338 42.4435 31.7364 42.4612 31.7414C42.4846 31.7458 42.5076 31.7523 42.5298 31.761C42.5408 31.7646 42.5488 31.7689 42.5598 31.772C42.5697 31.7768 42.5794 31.7824 42.5886 31.7885C42.6062 31.8003 42.6243 31.8111 42.6431 31.8209L42.6975 31.7738C42.6975 31.7738 42.6902 31.7493 42.6737 31.7126C42.672 31.7084 42.6702 31.7042 42.6684 31.7001C42.6655 31.6938 42.6623 31.6875 42.659 31.6814L42.6296 31.6446L42.5929 31.6042C42.5778 31.5913 42.5621 31.5793 42.5457 31.5681C42.5286 31.5556 42.5108 31.5439 42.4925 31.5332C42.4829 31.5278 42.4719 31.5231 42.4602 31.5184C42.4509 31.5147 42.441 31.511 42.4312 31.5069C42.4079 31.4975 42.3834 31.4911 42.3584 31.4879C42.279 31.4699 42.1961 31.4744 42.119 31.5008C42.064 31.5181 42.0115 31.5426 41.9629 31.5736L41.9501 31.5865H41.947L41.9409 31.5914L41.9286 31.6024L41.9035 31.625C41.8836 31.6438 41.8654 31.6643 41.8491 31.6863ZM14.5406 14.3412L14.4506 14.4024L16.6312 17.9616L20.9398 19.6231L20.9943 19.5141L16.9832 17.5906L14.5406 14.3412ZM10.6042 17.0195L10.5265 17.1046L12.8773 19.8815L18.4837 21.3078L18.5229 21.1946L13.2226 19.4805L10.6042 17.0195ZM9.25497 18.4575L9.17967 18.5322L11.7949 21.1768L18.3055 22.5818L18.3349 22.4686L12.0747 20.7495L9.25497 18.4575ZM9.71717 21.8154L9.68411 21.9268L11.9388 22.7465L18.3668 23.726L18.3919 23.6036L9.71717 21.8154ZM14.3796 24.5267L18.9428 24.9449L18.9575 24.8236L12.101 23.7382L12.071 23.8533L14.3796 24.5267ZM14.499 18.6926L19.1332 20.231L19.1785 20.1202L14.8859 18.351L12.6649 15.9867L12.581 16.0534L14.499 18.6926ZM19.6346 21.8521L19.7124 21.8894L21.937 20.4845L21.8875 20.4036L19.8525 21.4444L19.7417 20.842L19.6432 20.8512L19.6346 21.8521ZM20.0111 22.4367L19.9982 23.4352L20.0729 23.4732L22.9563 21.6813L22.9061 21.6005L20.2162 23.0269L20.1066 22.4245L20.0111 22.4367ZM20.7708 24.8114L20.8492 24.8549L23.8862 22.9412L23.8361 22.8616L20.9882 24.4037L20.8773 23.8007L20.7886 23.8105L20.7708 24.8114ZM21.904 25.9856L21.9836 26.0235L24.9576 24.201L24.9086 24.1221L22.1213 25.5772L22.0105 24.973L21.9138 24.9828L21.904 25.9856ZM23.3334 26.9889L23.4057 27.0336L26.0583 25.3869L26.0069 25.3073L23.552 26.5837L23.4412 25.9795L23.3457 25.9935L23.3334 26.9889ZM24.8651 27.9623L24.9362 28.0003L27.1645 26.5959L27.1155 26.5145L25.0825 27.5552L24.9704 26.9639L24.8804 26.9761L24.8651 27.9623ZM26.3638 28.8873L26.4458 28.9229L28.0889 27.8693L28.0387 27.7903L26.5811 28.4833L26.4715 27.9323H26.3791L26.3638 28.8873ZM27.6096 29.8099L27.6818 29.8509L28.905 29.0532L28.8603 28.9798L27.8293 29.4316L27.7375 29.0141H27.6488L27.6096 29.8099ZM28.5432 30.8084L28.6142 30.8592L30.0657 29.9691L30.0155 29.8883L28.7599 30.4447L28.7182 30.0891L28.6301 30.0817L28.5432 30.8084ZM29.3004 33.0729L29.3672 33.1243L30.1532 32.5519L30.1055 32.4754L29.5061 32.7202L29.4859 32.5029L29.3984 32.495L29.3004 33.0729ZM29.0549 31.8699L29.1327 31.9171L30.2095 31.1653L30.1606 31.0875L29.2686 31.5197L29.2392 31.2969L29.1511 31.292L29.0549 31.8699ZM25.6524 38.6732L25.7044 38.7185L26.256 38.2887L26.234 38.2275H25.5373L25.5232 38.2954L25.7969 38.4136L25.6524 38.6732ZM27.6114 38.6732L27.6634 38.7185L28.2156 38.2887L28.1936 38.2275H27.4957L27.4829 38.2954L27.7559 38.4136L27.6114 38.6732ZM27.4724 49.8639L28.1758 50.1051L28.1973 50.0366L27.5239 49.7231C27.3016 49.6178 27.0788 49.5125 26.8505 49.4134L25.8648 48.9769L26.8211 48.4749L26.7954 48.4137L25.3518 48.8147C25.322 48.8227 25.2947 48.8382 25.2725 48.8596C25.2502 48.881 25.2337 48.9076 25.2245 48.9371C25.2166 48.9605 25.2135 48.9854 25.2154 49.01C25.2173 49.0347 25.2242 49.0588 25.2356 49.0807C25.247 49.1027 25.2628 49.1221 25.2819 49.1378C25.3011 49.1535 25.3232 49.1652 25.3469 49.1722L25.3641 49.1771L26.769 49.6289C26.9466 49.6837 27.1227 49.7442 27.2991 49.8047C27.3568 49.8245 27.4146 49.8443 27.4724 49.8639ZM35.5552 37.7512L35.6164 37.7873L36.2035 37.15L36.1716 37.0888L35.3146 37.2308L35.3115 37.2994L35.6819 37.3918L35.5552 37.7512ZM34.1147 35.5908L34.1226 35.6575L34.7434 35.7145L34.6295 36.3236L34.6907 36.3493L35.448 35.2143L35.4082 35.1623L34.1147 35.5908ZM33.5674 38.2336V38.3022L33.8508 38.3726L33.7559 38.6536L33.8172 38.6897L34.2867 38.173L34.2543 38.1148L33.5674 38.2336ZM33.6164 33.5063L33.6219 33.5755L34.2365 33.6508L34.1012 34.2544L34.1624 34.2832L34.9626 33.1812L34.9246 33.1261L33.6164 33.5063ZM36.943 36.1552L37.0042 36.1895L37.587 35.5498L37.5552 35.4928L36.6981 35.6337V35.7022L37.0654 35.794L36.943 36.1552ZM38.2127 32.517L38.0578 32.8666L38.1141 32.9051L38.7526 32.3119L38.7257 32.2507L37.8576 32.3266L37.8502 32.3946L38.2127 32.517ZM39.887 29.0514H39.1897L39.1756 29.1169L39.4487 29.2357L39.3042 29.4959L39.3568 29.5412L39.9078 29.1126L39.887 29.0514ZM38.3639 34.6548L38.8395 34.1417L38.8059 34.0842L38.1153 34.1993V34.2679L38.4012 34.3383L38.3027 34.6199L38.3639 34.6548ZM37.9402 31.0031L38.7973 30.3352L38.7783 30.2691H37.6905L37.6752 30.3358L38.1227 30.5292L37.8882 30.9578L37.9402 31.0031ZM38.0688 28.621H37.197L37.1823 28.6865L37.5337 28.8378L37.3501 29.172L37.4027 29.2173L38.0896 28.6823L38.0688 28.621ZM36.4177 34.4007L37.1107 33.5608L37.0758 33.5045L36.0131 33.7426V33.8112L36.4912 33.9024L36.3565 34.3701L36.4177 34.4007ZM37.0477 31.5173L37.014 31.461L35.7296 31.7163V31.7842L36.3081 31.9067L36.1294 32.4705L36.1906 32.5041L37.0477 31.5173ZM35.688 30.5525L36.5506 29.8883L36.5298 29.8252L35.4407 29.8203L35.4254 29.887L35.8729 30.0829L35.636 30.5072L35.688 30.5525ZM35.6054 28.621H34.9093L34.8934 28.6872L35.1664 28.8053L35.0232 29.0661L35.0752 29.1108L35.6262 28.6823L35.6054 28.621ZM34.6265 31.2332L34.5959 31.172L33.2417 31.3685V31.4365L33.8398 31.5969L33.6219 32.1766L33.6831 32.2127L34.6265 31.2332ZM32.4459 36.7962V36.8654L32.9197 36.9627L32.7789 37.4286L32.8401 37.461L33.5453 36.6303L33.5117 36.5734L32.4459 36.7962ZM34.0173 29.5442H32.9283L32.9154 29.6152L33.3641 29.7995L33.1297 30.228L33.1811 30.2727L34.0382 29.6054L34.0173 29.5442ZM32.2151 35.7279L32.8701 34.8574L32.834 34.8023L31.7822 35.0876L31.7865 35.1555L32.2683 35.2241L32.1538 35.6973L32.2151 35.7279ZM31.8618 33.9091L32.5389 33.1133L32.504 33.0545L31.4804 33.2669V33.3367L31.9365 33.4298L31.8006 33.8761L31.8618 33.9091ZM32.1747 31.4157L31.3145 31.5565L31.3096 31.6263L31.68 31.7181L31.5533 32.0774L31.6145 32.1136L32.2065 31.4726L32.1747 31.4157ZM29.0164 37.5327L29.069 37.578L29.6206 37.1482L29.5998 37.087H28.9025L28.8866 37.1549L29.1609 37.2725L29.0164 37.5327ZM29.5875 39.0705L29.6402 39.1158L30.1912 38.6879L30.1704 38.6266H29.4737L29.459 38.694L29.732 38.8164L29.5875 39.0705ZM30.3791 36.5017L30.4324 36.5446L31.1021 35.9863L31.0801 35.925L30.2083 35.9526L30.1967 36.0212L30.553 36.1614L30.3791 36.5017ZM30.9215 37.9587L30.9735 38.0034L31.6623 37.4659L31.6402 37.4047H30.7697L30.7544 37.472L31.1052 37.6239L30.9215 37.9587ZM31.7657 39.2058L31.8184 39.2505L32.3706 38.8213L32.3485 38.7601H31.6506L31.6365 38.8262L31.9102 38.945L31.7657 39.2058ZM28.6675 46.516C28.7204 46.4999 28.7754 46.4832 28.8315 46.4645C28.9625 46.4197 29.106 46.3746 29.2611 46.3257C29.2844 46.3184 29.3079 46.311 29.3317 46.3035C29.3877 46.2853 29.4451 46.2675 29.5037 46.2493C29.5577 46.2325 29.6126 46.2155 29.6684 46.1976C29.7141 46.1826 29.7602 46.1674 29.8067 46.1522C29.9898 46.092 30.1784 46.0301 30.3693 45.9686L30.6197 45.8853C30.9442 45.7825 31.2637 45.676 31.5698 45.5701C31.6342 45.5486 31.6975 45.527 31.7596 45.5057C31.8127 45.4876 31.865 45.4697 31.9163 45.4525L32.0057 45.4207L32.3981 45.2897C32.5026 45.2555 32.599 45.2219 32.687 45.1911C32.7362 45.1739 32.7827 45.1577 32.8266 45.1428C32.8683 45.1269 32.9082 45.1131 32.9445 45.1005C32.9573 45.0961 32.9697 45.0918 32.9815 45.0877L33.2031 45.0069L33.2239 44.9977L33.1921 44.8893L33.1713 44.8942C33.1713 44.8942 33.0862 44.912 32.9405 44.9462L32.8254 44.975C32.8116 44.9784 32.7974 44.9818 32.7829 44.9854C32.6579 45.0159 32.5077 45.0525 32.3393 45.0975L31.9377 45.2028C31.885 45.2195 31.8303 45.2356 31.7739 45.2521C31.7275 45.2657 31.68 45.2797 31.6316 45.2946L31.4982 45.3362C31.1777 45.4354 30.8582 45.5375 30.5395 45.6423C30.3311 45.7097 30.1254 45.7836 29.9246 45.8558C29.8736 45.8742 29.8228 45.8924 29.7724 45.9104L29.5888 45.9759L29.4963 46.0084C29.2525 46.097 29.0097 46.1882 28.7678 46.282C28.6981 46.3089 28.6321 46.3355 28.57 46.3605C28.5488 46.369 28.528 46.3774 28.5077 46.3855L28.4428 46.413L28.1912 46.5134C28.054 46.5728 27.975 46.604 27.975 46.604L27.9542 46.6132L27.9934 46.721L28.2383 46.6469C28.2548 46.6418 28.2727 46.6366 28.2914 46.6312C28.3287 46.6204 28.3695 46.6085 28.4103 46.5942L28.594 46.5385C28.618 46.5311 28.6425 46.5236 28.6675 46.516ZM36.1761 45.1257C36.2202 45.1101 36.2613 45.0955 36.3002 45.0828L36.6216 44.9622L36.5885 44.8526L36.2512 44.9475C36.2077 44.962 36.1577 44.9762 36.103 44.9918C36.0722 45.0006 36.0398 45.0098 36.0063 45.0197C35.8435 45.065 35.65 45.1213 35.4346 45.1874C35.4014 45.1973 35.3678 45.2072 35.3336 45.2174C35.1934 45.2588 35.0444 45.3029 34.8879 45.3521L34.5897 45.4421L34.2836 45.548C34.0668 45.6237 33.8423 45.701 33.6144 45.7794C33.4035 45.8521 33.1897 45.9257 32.9766 45.9998C32.7153 46.0916 32.4596 46.189 32.2101 46.284L32.1398 46.3108L31.6788 46.4865C31.567 46.5284 31.4584 46.571 31.3526 46.6125C31.3269 46.6226 31.3013 46.6327 31.276 46.6426C31.2572 46.65 31.2386 46.6574 31.22 46.6646C31.1742 46.6826 31.1291 46.7002 31.0856 46.7185C30.9545 46.7688 30.8297 46.821 30.7117 46.8703L30.6693 46.8881L30.5579 46.9352C30.3606 47.0153 30.1826 47.0906 30.0313 47.1546L29.9928 47.1709C29.9102 47.2071 29.8361 47.2389 29.7712 47.2652L29.4737 47.3938L29.4516 47.4042L29.4945 47.5107L29.5159 47.5046L29.822 47.3962C29.8659 47.3825 29.9141 47.3646 29.9662 47.3452C29.9932 47.3351 30.0213 47.3246 30.0504 47.3142C30.2423 47.2469 30.4337 47.1781 30.6246 47.1079L30.7862 47.0467C30.8307 47.0306 30.8761 47.014 30.9223 46.9972C30.9993 46.969 31.0785 46.9401 31.1596 46.9114L31.3476 46.8452C31.3743 46.8358 31.4013 46.8263 31.4284 46.8167C31.5361 46.7787 31.6467 46.7396 31.7578 46.6971C31.8568 46.6619 31.9564 46.6254 32.0572 46.5884C32.1091 46.5694 32.1612 46.5503 32.2138 46.5312C32.4881 46.4271 32.7709 46.3231 33.0568 46.2251L34.3571 45.7598C34.3975 45.7454 34.438 45.7309 34.4787 45.7163C34.6385 45.6589 34.7997 45.6011 34.9558 45.5499C35.0532 45.5156 35.1482 45.483 35.2399 45.4516C35.2808 45.4376 35.321 45.4239 35.3605 45.4103L35.4945 45.3644C35.6853 45.3004 35.8559 45.2393 36.0043 45.1862L36.0608 45.166C36.1015 45.1522 36.1398 45.1386 36.1761 45.1257ZM33.3035 43.7317V43.7359L33.3029 43.7378L33.3592 43.7678C33.3741 43.7737 33.3918 43.7829 33.4106 43.7926C33.4151 43.7949 33.4196 43.7973 33.4241 43.7996C33.448 43.8119 33.4743 43.8259 33.5013 43.8425C33.5316 43.8589 33.561 43.8769 33.5894 43.8963C33.617 43.911 33.6512 43.9306 33.6782 43.9576C33.6906 43.97 33.7039 43.9815 33.7172 43.9931C33.7326 44.0066 33.7482 44.0202 33.7627 44.0353C33.771 44.0411 33.7785 44.0481 33.7847 44.0561C33.7894 44.0607 33.794 44.0649 33.7987 44.0692C33.8134 44.0826 33.8282 44.0962 33.8459 44.1204C33.8692 44.1522 33.8925 44.1828 33.9169 44.2135C33.931 44.2311 33.9429 44.2501 33.9546 44.2689C33.9633 44.2828 33.9719 44.2966 33.9812 44.3096C34.0001 44.3412 34.017 44.3739 34.032 44.4075C34.0486 44.4366 34.0629 44.4669 34.0749 44.4981C34.0871 44.5248 34.0978 44.5522 34.1067 44.5802C34.117 44.6021 34.125 44.6251 34.1306 44.6487L34.1526 44.7099H34.223C34.223 44.7099 34.2322 44.6897 34.2457 44.6487C34.2554 44.6236 34.2614 44.5972 34.2634 44.5704C34.2705 44.5347 34.2733 44.4983 34.272 44.462V44.4008L34.2628 44.3359C34.255 44.2881 34.2427 44.2412 34.2261 44.1957C34.2076 44.1481 34.1853 44.102 34.1594 44.058C34.1428 44.0279 34.1235 43.9995 34.1018 43.9729L34.0663 43.9282C34.0305 43.8878 33.9912 43.8507 33.9488 43.8174C33.9085 43.7858 33.8655 43.7579 33.8202 43.7341C33.777 43.7126 33.7321 43.6944 33.6861 43.6796C33.6661 43.6728 33.6456 43.6671 33.6249 43.6625L33.5882 43.6564C33.5834 43.6539 33.5785 43.6529 33.5738 43.6524C33.5701 43.6521 33.5666 43.6521 33.5631 43.6521C33.5286 43.6453 33.4934 43.6433 33.4584 43.646C33.4313 43.6445 33.4042 43.6466 33.3776 43.6521C33.3543 43.6556 33.3312 43.6603 33.3084 43.6662L33.3035 43.7317ZM35.4286 43.186C35.4271 43.1857 35.4256 43.1853 35.4241 43.185L35.4254 43.1868C35.4264 43.1865 35.4275 43.1863 35.4286 43.186ZM35.4505 43.1923C35.4433 43.1899 35.436 43.1878 35.4286 43.186C35.9173 43.0638 36.4115 42.9423 36.9056 42.8262L35.3005 41.9343L34.6748 41.9453L32.8799 39.7543L32.7887 39.7941L33.249 42.4038L34.1955 43.4923L34.2445 43.5168C34.2555 43.5209 34.2668 43.5266 34.2791 43.5327C34.2888 43.5375 34.2989 43.5426 34.31 43.5474L34.3871 43.5902C34.4153 43.6062 34.4453 43.6251 34.4734 43.6435C34.5016 43.6619 34.5383 43.6821 34.5628 43.709C34.5751 43.7226 34.59 43.7349 34.6051 43.7475C34.62 43.7599 34.6351 43.7725 34.6485 43.7868C34.6773 43.8135 34.7045 43.8419 34.7299 43.8719C34.7538 43.9037 34.782 43.9343 34.8034 43.9649C34.808 43.9715 34.8128 43.9781 34.8176 43.9847C34.835 44.0087 34.8526 44.033 34.8646 44.0604C34.8731 44.0797 34.883 44.0969 34.8929 44.114C34.9009 44.1279 34.9089 44.1417 34.916 44.1565C34.9251 44.1754 34.9334 44.1941 34.9414 44.212C34.9473 44.2255 34.9531 44.2385 34.9589 44.2508C34.9682 44.2708 34.9752 44.2896 34.9817 44.307C34.9846 44.3147 34.9873 44.3221 34.9901 44.3292C34.9997 44.3522 35.0077 44.376 35.014 44.4002C35.0256 44.4387 35.0348 44.4614 35.0348 44.4614H35.1052C35.1147 44.4416 35.1227 44.4212 35.1291 44.4002C35.1376 44.3742 35.1437 44.3476 35.1474 44.3206C35.1529 44.2847 35.1552 44.2485 35.1542 44.2122V44.151C35.1515 44.1387 35.1495 44.1236 35.1475 44.1082C35.1467 44.102 35.1459 44.0959 35.145 44.0898C35.1358 44.0425 35.1235 43.9959 35.1083 43.9502C35.0902 43.902 35.0678 43.8555 35.0415 43.8112C35.014 43.7649 34.9825 43.7211 34.9473 43.6802C34.9118 43.6406 34.8725 43.6047 34.8297 43.5731C34.7897 43.5405 34.7466 43.5118 34.7012 43.4874C34.6581 43.4668 34.6137 43.449 34.5683 43.4341C34.5481 43.4268 34.5273 43.4207 34.5071 43.4158H34.504C34.5279 43.4084 34.553 43.4035 34.5769 43.3974C34.752 43.3521 34.9264 43.3074 35.1034 43.2633C35.1116 43.2676 35.1202 43.271 35.1291 43.2737C35.1501 43.2834 35.1705 43.2943 35.1903 43.3062C35.2478 43.3332 35.3027 43.3654 35.3544 43.4023C35.3853 43.4226 35.4151 43.4445 35.4437 43.4678C35.4694 43.4935 35.5019 43.5205 35.5307 43.5443C35.5594 43.5682 35.5882 43.5976 35.6121 43.6294C35.6222 43.6429 35.6329 43.6562 35.6434 43.6693C35.6578 43.6872 35.672 43.7048 35.6843 43.7225C35.6969 43.7404 35.7085 43.7595 35.7203 43.7787C35.7286 43.7923 35.7369 43.806 35.7455 43.8192C35.7647 43.8507 35.782 43.8832 35.7976 43.9165C35.8134 43.9459 35.8275 43.9762 35.8398 44.0071C35.8533 44.0378 35.8631 44.0647 35.8723 44.088C35.8782 44.103 35.8839 44.1188 35.8888 44.1335C35.8915 44.1416 35.894 44.1494 35.8961 44.1565C35.9021 44.1787 35.9093 44.2006 35.9176 44.222H35.988C35.988 44.222 35.9978 44.2006 36.0112 44.1608C36.0207 44.1358 36.0267 44.1097 36.029 44.0831C36.0348 44.0472 36.0372 44.011 36.0363 43.9747C36.0363 43.9545 36.0394 43.9349 36.0363 43.9135C36.0353 43.9065 36.034 43.8995 36.0327 43.8925C36.0299 43.878 36.0271 43.8633 36.0271 43.848C36.019 43.8006 36.0071 43.7539 35.9916 43.7084C35.973 43.6604 35.9502 43.6141 35.9237 43.57C35.8974 43.5234 35.8662 43.4797 35.8306 43.4396C35.7948 43.4001 35.7554 43.3638 35.7131 43.3313C35.6733 43.2984 35.6302 43.2697 35.5845 43.2456C35.5413 43.2245 35.4964 43.2067 35.4505 43.1923ZM38.2837 42.4504L38.2794 42.5055L38.2733 42.5183L38.3345 42.5477C38.3393 42.5503 38.3447 42.553 38.3505 42.556C38.364 42.5628 38.3799 42.5709 38.3957 42.5807C38.4113 42.5905 38.4292 42.6004 38.4477 42.6107C38.456 42.6154 38.4645 42.6201 38.4728 42.6248C38.4879 42.6334 38.503 42.6437 38.5187 42.6544C38.531 42.6628 38.5438 42.6716 38.5573 42.6799C38.5727 42.6894 38.587 42.7014 38.6013 42.7135C38.6156 42.7255 38.6299 42.7375 38.6455 42.7473C38.6594 42.7616 38.6739 42.7752 38.6889 42.7883C38.7039 42.7997 38.7177 42.8126 38.73 42.8269C38.7475 42.8429 38.7634 42.8613 38.7795 42.88C38.7893 42.8913 38.7992 42.9027 38.8095 42.9138C38.8347 42.9439 38.8582 42.9754 38.8799 43.0081C38.8829 43.0122 38.886 43.0164 38.889 43.0205C38.908 43.0467 38.9269 43.0725 38.9412 43.1048C38.9512 43.1275 38.962 43.1475 38.9723 43.1668C38.9789 43.1791 38.9854 43.1911 38.9914 43.2033C39.0067 43.2346 39.0201 43.2652 39.0318 43.2958L39.0624 43.3766C39.0713 43.3993 39.0785 43.4226 39.0838 43.4464C39.0948 43.488 39.104 43.5125 39.104 43.5125H39.1738C39.1738 43.5125 39.1848 43.4911 39.1995 43.4513C39.2087 43.426 39.2149 43.3997 39.2179 43.3729C39.2262 43.3374 39.2299 43.301 39.2289 43.2646C39.2289 43.2581 39.2292 43.2515 39.2296 43.2449C39.2302 43.2313 39.2309 43.2173 39.2289 43.2033C39.2282 43.1984 39.2273 43.1933 39.2265 43.1882C39.2238 43.1716 39.2209 43.1542 39.2209 43.1378C39.2137 43.0902 39.2024 43.0434 39.1873 42.9977C39.1703 42.9499 39.1498 42.9035 39.126 42.8587C39.1 42.8115 39.0695 42.767 39.0348 42.7258C39.0332 42.7241 39.0316 42.7223 39.03 42.7206C39.0242 42.7142 39.0183 42.7076 39.0116 42.7014C38.984 42.6693 38.9532 42.6402 38.9197 42.6144C38.8435 42.5499 38.7553 42.501 38.6602 42.4706C38.6533 42.4684 38.6459 42.4658 38.6384 42.4631C38.6244 42.4581 38.6101 42.453 38.5989 42.451C38.5818 42.4479 38.5647 42.443 38.5487 42.443H38.542C38.5064 42.4369 38.4704 42.4339 38.4343 42.4338C38.4074 42.4324 38.3805 42.4341 38.3541 42.4387C38.3094 42.4455 38.2837 42.4504 38.2837 42.4504ZM40.408 43.9863L40.5188 43.9502L40.5371 43.9423L40.5163 43.8351H40.4949C40.4949 43.8351 40.452 43.8376 40.3773 43.8468L40.2898 43.8578C40.265 43.8612 40.238 43.8646 40.2092 43.8682C40.1669 43.8735 40.1207 43.8793 40.0719 43.8865C39.9888 43.899 39.8934 43.9154 39.7917 43.9329C39.7435 43.9412 39.6938 43.9497 39.6433 43.9582C39.5065 43.9812 39.3607 44.0116 39.2163 44.0418C39.1954 44.0462 39.1744 44.0506 39.1536 44.0549C38.8567 44.1241 38.5292 44.2135 38.2567 44.2998C38.1716 44.3254 38.0963 44.351 38.0359 44.3715L38.0308 44.3732L37.9653 44.3959C37.8949 44.4191 37.8539 44.4345 37.8539 44.4345L37.8349 44.4436L37.8613 44.5502H37.8821C37.8821 44.5502 37.9243 44.5453 37.9984 44.5349C38.0229 44.5312 38.0486 44.5269 38.0792 44.5208C38.1416 44.5116 38.2169 44.5006 38.3008 44.4847C38.4459 44.4614 38.5885 44.4308 38.7293 44.4002C38.8604 44.3726 38.9981 44.3408 39.1383 44.3083L39.2246 44.2887C39.5225 44.2255 39.8185 44.1536 40.1123 44.0733C40.1756 44.0567 40.2328 44.0394 40.2843 44.0237C40.2975 44.0197 40.3104 44.0158 40.3229 44.012L40.408 43.9863ZM41.5387 42.9193H41.5595L41.5564 42.9211C41.5564 42.9211 41.6085 42.9168 41.7076 42.8991C41.7208 42.8977 41.7348 42.8959 41.7496 42.8939C41.7679 42.8915 41.7874 42.8889 41.808 42.8868C42.294 42.8227 42.7783 42.7455 43.2601 42.6554L43.3581 42.6352C43.3843 42.6301 43.4105 42.6249 43.4367 42.6198C43.5873 42.5903 43.7358 42.5612 43.8772 42.5299C43.9104 42.5232 43.9432 42.5164 43.9755 42.5096C44.0253 42.4992 44.0742 42.489 44.1221 42.4797C44.2274 42.4601 44.3266 42.4399 44.4172 42.4185C44.502 42.4003 44.5796 42.3816 44.6469 42.3655C44.6632 42.3616 44.6789 42.3578 44.6939 42.3542L44.7967 42.3298C44.8886 42.3071 44.9406 42.2918 44.9406 42.2918L44.9614 42.2863L44.9424 42.1761H44.9204C44.9204 42.1761 44.8671 42.1798 44.7729 42.1902L44.681 42.1994C44.6595 42.2018 44.6367 42.2043 44.6126 42.2069C44.5453 42.2143 44.4687 42.2226 44.3847 42.233L44.3523 42.2373C44.3311 42.2401 44.3097 42.2429 44.2881 42.2457C44.1527 42.2633 44.0071 42.2823 43.8393 42.3108C43.6804 42.3377 43.5114 42.3684 43.3442 42.3987C43.3064 42.4055 43.2688 42.4124 43.2314 42.4191L43.2167 42.4234C42.8289 42.4966 42.4427 42.5783 42.0584 42.6683C41.9319 42.699 41.8055 42.7306 41.6795 42.7632L41.5362 42.8018L41.5166 42.8079L41.5387 42.9193ZM46.1374 43.0889C46.2084 43.0754 46.2758 43.0644 46.3309 43.0552L46.5507 43.0166L46.5366 42.9034H46.5145C46.5145 42.9034 46.4417 42.9052 46.3107 42.9156L46.2458 42.9199C46.1178 42.9279 45.9587 42.9395 45.7713 42.9609L45.5222 42.9891C45.3618 43.0044 45.1953 43.0221 45.0196 43.0436L44.591 43.1005L44.1503 43.1617L43.7113 43.2278C43.57 43.2481 43.4314 43.2739 43.3079 43.2968L43.2871 43.3007C43.205 43.3148 43.1255 43.3313 43.0496 43.3472L42.8928 43.3772L42.733 43.409C42.724 43.4107 42.715 43.4123 42.7061 43.414C42.648 43.425 42.5927 43.4368 42.5396 43.4464C42.3982 43.4745 42.2727 43.5021 42.1668 43.5254C42.1223 43.5338 42.0818 43.5426 42.0447 43.5506C42.0332 43.5531 42.0221 43.5555 42.0113 43.5578L41.7897 43.6092L41.8093 43.7206L42.0339 43.6949L42.1974 43.6747C42.3033 43.6631 42.4294 43.6478 42.5702 43.6276C42.618 43.621 42.6671 43.6139 42.7177 43.6067C42.7845 43.5971 42.8538 43.5871 42.9259 43.5774L43.0226 43.5639C43.0638 43.5579 43.1058 43.5521 43.1484 43.5461C43.2059 43.5381 43.2645 43.5299 43.3232 43.5211C43.466 43.4973 43.6084 43.4775 43.7596 43.4565C43.7878 43.4526 43.8164 43.4486 43.8454 43.4445L44.187 43.3974C44.2494 43.3874 44.3121 43.3781 44.3746 43.3689C44.4268 43.3612 44.4789 43.3535 44.5304 43.3454L44.6241 43.3313L45.0483 43.2658C45.2332 43.2382 45.4083 43.2107 45.5718 43.1831C45.6507 43.1697 45.7273 43.1574 45.7995 43.1464C45.8956 43.1316 45.9836 43.116 46.0635 43.1019C46.089 43.0974 46.1136 43.093 46.1374 43.0889Z" fill="#E30D24"/>
<g clip-path="url(#clip0)">
<path d="M76.8273 14.7822L78.2061 15.0591C81.4289 15.7181 81.8608 17.6285 81.8608 19.4171V41.9322C81.8608 43.7873 81.4178 45.5869 78.2061 46.2404L76.8217 46.5172V47.2371H92.836V46.5172L91.4572 46.2404C88.2455 45.5925 87.8025 43.7873 87.8025 41.9322V19.4171C87.8025 17.6285 88.2399 15.7181 91.4572 15.0647L92.8415 14.7878V14.0624H76.8217V14.7822H76.8273ZM403.109 14.0679V25.2314H403.785L405.446 21.1004C407.068 17.036 408.763 14.8321 413.071 14.8321H414.859V41.9322C414.859 43.6876 414.444 45.7697 411.21 46.2902L409.82 46.5117V47.2371H425.835V46.5117L424.445 46.2902C421.211 45.7697 420.801 43.6876 420.801 41.9322V14.8321H422.584C426.892 14.8321 428.592 17.036 430.22 21.1004L431.865 25.2314H432.546V14.0679H403.109ZM388.789 14.7989L390.091 14.9705C392.533 15.3249 394.803 16.521 394.853 22.8226L394.986 37.9398L382.128 22.7395C378.279 18.1711 376.718 16.2497 375.582 14.2064L375.505 14.0679H363.755V14.7878L363.971 14.8265C366.39 15.2695 367.902 16.2497 370.444 19.035L370.931 19.5666V36.943C370.931 44.3964 368.594 45.5869 365.776 46.2957L364.823 46.5283V47.2371H377.991V46.5283L377.05 46.2957C374.53 45.6312 371.928 44.9501 371.884 36.943L371.751 20.4249L395.008 47.8407L395.085 47.9348H395.805V22.817C395.805 16.5099 398.208 15.3138 400.562 14.9705L401.863 14.7989V14.0679H388.789V14.7989ZM253.942 41.2899C251.727 45.0664 249.025 46.4729 243.958 46.4729H242.562C239.749 46.4729 238.492 45.0997 238.492 42.0319V30.5528L240.552 30.5916C245.608 30.6857 246.992 30.9072 248.554 35.7691L249.124 37.5411H249.822V22.6897H249.124L248.554 24.517C247.026 29.3567 245.525 29.5949 240.552 29.689L238.492 29.7278V14.8321H242.047C247.995 14.8321 250.675 16.0669 252.679 19.7327L254.95 23.8304H255.603V14.0679H227.512V14.7878L228.896 15.0647C231.942 15.6793 232.551 17.1301 232.551 19.2731V41.9378C232.551 43.6987 232.135 45.7752 228.902 46.2957L227.517 46.5172V47.2426H256.866V37.4746H256.212L253.942 41.2899ZM358.943 41.2899C356.733 45.0664 354.031 46.4729 348.964 46.4729H347.563C344.75 46.4729 343.493 45.0997 343.493 42.0319V30.5528L345.553 30.5916C350.609 30.6857 351.999 30.9072 353.555 35.7691L354.136 37.5411H354.823V22.6897H354.131L353.555 24.517C352.032 29.3567 350.531 29.5949 345.553 29.689L343.493 29.7278V14.8321H347.054C352.995 14.8321 355.681 16.0669 357.686 19.7327L359.95 23.8304H360.604V14.0679H332.518V14.7878L333.902 15.0647C336.942 15.6793 337.557 17.1301 337.557 19.2731V41.9378C337.557 43.6987 337.142 45.7752 333.908 46.2957L332.518 46.5172V47.2426H361.866V37.4746H361.218L358.943 41.2899ZM142.263 41.8879V14.8321H146.472C154.861 14.8321 159.872 20.7461 159.872 30.6525C159.872 40.7029 155.138 46.4729 146.892 46.4729H145.868C142.878 46.4729 142.263 44.6456 142.263 41.8879ZM147.872 14.0679H118.275V14.8044L119.576 14.9761C122.566 15.408 124.3 16.6816 124.338 21.8923L124.477 37.9453L111.613 22.7451C107.848 18.2764 106.209 16.2552 105.074 14.2064L104.996 14.0679H93.2402V14.7878L93.4617 14.8265C95.876 15.2695 97.3933 16.2552 99.935 19.035L100.422 19.5666V36.9486C100.422 44.3964 98.0855 45.5869 95.2614 46.2957L94.3145 46.5283V47.2371H107.477V46.5283L106.536 46.2957C104.022 45.6312 101.425 44.9557 101.375 36.943L101.236 20.4249L124.577 47.9348H125.291V21.1337C125.291 16.9529 127.146 14.8321 130.806 14.8321C134.466 14.8321 136.321 16.9529 136.321 21.1392V41.9322C136.321 43.8703 135.878 45.742 132.622 46.2902L131.288 46.5117V47.2371H147.872C153.604 47.2371 158.405 45.4651 161.771 42.1316C164.795 39.1192 166.462 34.9938 166.462 30.5085C166.462 26.0509 164.795 21.9754 161.766 19.035C158.421 15.7845 153.615 14.0679 147.872 14.0679ZM307.732 41.8879V14.8321H311.941C320.33 14.8321 325.341 20.7461 325.341 30.6525C325.341 40.7029 320.607 46.4729 312.362 46.4729H311.332C308.342 46.4729 307.732 44.6456 307.732 41.8879ZM313.342 14.0679H283.75V14.8044L285.046 14.9761C288.036 15.408 289.763 16.676 289.808 21.8923L289.946 37.9453L277.083 22.7451C273.234 18.1656 271.673 16.2441 270.538 14.2064L270.466 14.0679H258.704V14.7878L258.926 14.8265C261.34 15.2695 262.857 16.2552 265.399 19.035L265.886 19.5666V36.9486C265.886 44.3964 263.549 45.5869 260.725 46.2957L259.778 46.5283V47.2371H272.946V46.5283L272.005 46.2957C269.485 45.6312 266.883 44.9557 266.839 36.943L266.706 20.4249L289.963 47.8407L290.046 47.9348H290.755V21.1337C290.755 16.9529 292.61 14.8321 296.275 14.8321C299.93 14.8321 301.791 16.9529 301.791 21.1392V41.9322C301.791 43.8703 301.342 45.742 298.097 46.2902L296.752 46.5117V47.2371H313.336C319.068 47.2371 323.874 45.4651 327.235 42.1316C330.259 39.1192 331.925 34.9938 331.925 30.5085C331.925 26.0509 330.259 21.9754 327.23 19.035C323.885 15.7845 319.084 14.0679 313.331 14.0679H313.342ZM214.028 14.0679H199.686V14.7822L201.059 15.0591C204.271 15.7125 204.714 17.5177 204.714 19.3672V41.9378C204.714 43.7928 204.271 45.5925 201.059 46.2459L199.681 46.5228V47.2426H216.298V46.5228L215.202 46.3013C211.42 45.5094 210.706 44.7453 210.706 41.4726V14.8321H212.118C217.234 14.8321 220.291 18.2874 220.291 24.0796C220.291 29.8717 217.234 33.3271 212.118 33.3271H211.758V34.1355H214.028C221.515 34.1355 226.742 29.9991 226.742 24.0796C226.742 18.1822 221.515 14.0679 214.028 14.0679ZM193.473 41.2899C191.258 45.0664 188.556 46.4729 183.489 46.4729H182.094C179.27 46.4729 178.018 45.0997 178.018 42.0319V30.5528L180.078 30.5916C185.134 30.6857 186.524 30.9072 188.085 35.7691L188.656 37.5411H189.348V22.6897H188.656L188.085 24.517C186.562 29.3567 185.056 29.5949 180.078 29.689L178.018 29.7278V14.8321H181.579C187.52 14.8321 190.206 16.0669 192.211 19.7327L194.475 23.8304H195.134V14.0679H167.043V14.7878L168.427 15.0647C171.467 15.6793 172.082 17.1301 172.082 19.2731V41.9378C172.082 43.6987 171.667 45.7752 168.433 46.2957L167.049 46.5172V47.2426H196.391V37.4746H195.738L193.473 41.2899Z" fill="black"/>
</g>
<defs>
<clipPath id="clip0">
<rect width="356.057" height="34.332" fill="white" transform="translate(76.633 13.9181)"/>
</clipPath>
</defs>
</svg>
