<svg xmlns:xlink="http://www.w3.org/1999/xlink" xmlns="http://www.w3.org/2000/svg" width="25" height="25" viewBox="0 0 25 25" fill="none">
<path d="M20.207 11.4722V5.47217C20.207 4.36917 19.31 3.47217 18.207 3.47217H16.207C16.207 3.20695 16.1017 2.9526 15.9141 2.76506C15.7266 2.57752 15.4722 2.47217 15.207 2.47217H9.20703C8.94181 2.47217 8.68746 2.57752 8.49992 2.76506C8.31239 2.9526 8.20703 3.20695 8.20703 3.47217H6.20703C5.10403 3.47217 4.20703 4.36917 4.20703 5.47217V18.4722C4.20703 19.5752 5.10403 20.4722 6.20703 20.4722H11.207C11.207 21.5752 12.104 22.4722 13.207 22.4722H20.207C21.31 22.4722 22.207 21.5752 22.207 20.4722V13.4722C22.207 12.3692 21.31 11.4722 20.207 11.4722ZM11.207 13.4722V18.4722H6.20703V5.47217H8.20703V6.47217C8.20703 6.73738 8.31239 6.99174 8.49992 7.17927C8.68746 7.36681 8.94181 7.47217 9.20703 7.47217H15.207C15.4722 7.47217 15.7266 7.36681 15.9141 7.17927C16.1017 6.99174 16.207 6.73738 16.207 6.47217V5.47217H18.207V11.4722H13.207C12.104 11.4722 11.207 12.3692 11.207 13.4722ZM13.207 20.4722V13.4722H20.207L20.208 20.4722H13.207Z" fill="#1BB6C1"/>
<head xmlns=""/></svg>