<svg xmlns:xlink="http://www.w3.org/1999/xlink" xmlns="http://www.w3.org/2000/svg" width="25" height="25" viewBox="0 0 25 25" fill="none">
<path d="M21.2007 7.37527C21.1846 7.20693 21.126 7.04546 21.0303 6.90604C20.9346 6.76662 20.805 6.65382 20.6537 6.57827L12.6807 2.57827C12.542 2.50821 12.3889 2.47154 12.2335 2.47119C12.0781 2.47085 11.9247 2.50683 11.7857 2.57627L3.75872 6.57627C3.46172 6.72627 3.25672 7.01327 3.21472 7.34327C3.20172 7.44027 2.06973 17.0843 11.7557 22.3513C11.9046 22.4325 12.0718 22.4743 12.2414 22.4727C12.411 22.4711 12.5774 22.4262 12.7247 22.3423C22.0317 17.0833 21.2387 7.76927 21.2007 7.37527ZM12.2237 20.3193C5.36372 16.3093 5.08372 9.96727 5.16072 8.11427L12.2317 4.59127L19.2297 8.10227C19.2347 9.97227 18.7487 16.3453 12.2237 20.3193Z" fill="#1BB6C1"/>
<head xmlns=""/></svg>