<svg width="385" height="63" viewBox="0 0 385 63" fill="none" xmlns="http://www.w3.org/2000/svg">
<path d="M61.8842 54.9438C64.4671 53.2652 67.0502 51.3212 67.0502 47.3452V22.87L63.1312 18.7173L61.6169 20.2194L65.0016 23.842V47.2568C65.0016 50.5261 63.7546 52.9117 61.7952 54.5904L61.8842 54.9438ZM46.7424 3.07795L46.6533 3.343C47.8112 3.78487 49.2365 4.93346 49.2365 7.23063V43.2807L47.8112 44.6944L53.3335 49.2889L54.9368 47.9637L50.4833 44.3409L51.2849 43.6342V7.58409C51.2849 4.66841 48.702 3.25458 46.7424 3.07795ZM50.038 57.4178C56.9854 56.8878 63.9328 54.5904 63.9328 47.2568V24.1954L60.8154 21.0145L57.3417 24.372V41.6903L60.1918 44.2527L53.6007 50.0842H52.9772L46.4753 44.6061L48.2567 42.8389V7.58409C48.2567 4.93346 45.9408 3.51963 44.6047 3.16637V2.54787C45.2283 2.19441 46.2081 2.01758 47.4549 2.01758C49.6818 2.01758 51.7304 3.343 52.3539 4.84504H52.5319C53.868 2.81291 56.0056 2.01758 58.0542 2.01758C58.6777 2.01758 59.3903 2.10599 60.1028 2.28262V2.98954C58.945 3.34299 57.2527 4.75663 57.2527 8.20259V22.87L65.8924 14.8295H66.5157C67.1392 15.448 70.8802 18.8055 71.5927 19.2474C71.949 19.424 72.3943 19.6009 72.8398 19.6009C73.5523 19.6009 74.0866 19.3358 74.6211 19.0706V20.0425C73.9086 20.661 73.1068 21.8098 73.1068 23.2234V43.1923C73.1068 52.0282 63.3093 57.4178 50.127 58.3016V57.4178H50.038Z" fill="#222222"/>
<path d="M89.6738 18.8936L87.8924 20.1306C89.9411 22.4279 92.435 25.432 95.0181 28.2595L96.7994 27.0225C94.2165 24.195 91.7224 21.1909 89.6738 18.8936ZM87.6254 33.0309L94.0383 28.7014C91.8116 26.1389 89.4958 23.4881 87.6254 21.3676V33.0309ZM91.8116 47.7865C87.8925 46.0194 84.4188 44.694 81.3906 43.0153C81.5686 41.8665 81.6576 40.5411 81.6576 36.8301V22.2511L79.609 23.3115V36.8301C79.609 40.5411 79.52 42.9269 79.1637 43.9871C82.1921 45.6659 86.4674 47.433 90.3865 49.2003L91.8116 47.7865ZM78.5402 22.7814C82.3701 20.9259 88.0707 17.5681 91.9006 14.8291H92.6132C95.1071 17.3915 98.759 21.5442 101.965 24.3717V25.0786L87.7144 34.3561V40.0994C89.2285 41.0714 93.3257 43.1035 95.8196 43.9871L101.609 38.509L102.322 39.2159L90.7428 50.3489H89.9411C86.0221 48.67 81.0343 46.5495 77.8276 44.7824C78.1839 43.5454 78.5402 40.6295 78.5402 37.0069V22.7814Z" fill="#222222"/>
<path d="M371.4 54.8553C373.982 53.1767 376.566 51.2327 376.566 47.2567V22.7815L372.646 18.6288L371.133 20.1309L374.517 23.7534V47.1683C374.517 50.4376 373.271 52.8232 371.31 54.5021L371.4 54.8553ZM356.348 2.98945L356.257 3.25449C357.417 3.69637 358.841 4.84495 358.841 7.14233V43.1922L357.417 44.6059L362.938 49.2006L364.542 47.8752L360.087 44.2524L360.889 43.5457V7.49579C360.889 4.57991 358.218 3.25449 356.348 2.98945ZM359.553 57.3295C366.501 56.7992 373.448 54.5021 373.448 47.1683V24.1069L370.331 20.926L366.857 24.2837V41.6018L369.708 44.1642L363.115 49.9957H362.492L355.99 44.5176L357.772 42.7503V7.49579C357.772 4.84495 355.455 3.43132 354.121 3.07786V2.45936C354.744 2.1059 355.723 1.92908 356.97 1.92908C359.197 1.92908 361.247 3.25449 361.869 4.75654H362.048C363.383 2.72441 365.521 1.92908 367.57 1.92908C368.193 1.92908 368.906 2.01749 369.618 2.19412V2.90104C368.46 3.25449 366.768 4.66832 366.768 8.11409V22.7815L375.319 14.6526H375.941C376.566 15.2711 380.306 18.6288 381.019 19.0705C381.375 19.2473 381.821 19.4239 382.265 19.4239C382.978 19.4239 383.513 19.1589 384.047 18.8938V20.1309C383.334 20.7494 382.532 21.8979 382.532 23.3118V43.1038C382.532 51.9397 372.736 57.3295 359.553 58.2131V57.3295Z" fill="#222222"/>
<path d="M174.379 18.8937L172.597 20.1307C174.646 22.4281 177.14 25.4322 179.723 28.2597L181.504 27.0227C179.01 24.1952 176.427 21.1027 174.379 18.8937ZM172.508 32.9426L178.921 28.6131C176.695 26.0507 174.379 23.3999 172.508 21.2793V32.9426ZM176.605 47.6982C172.686 45.9311 169.213 44.6057 166.184 42.9271C166.363 41.7783 166.452 40.4531 166.452 36.742V22.1629L164.403 23.2232V36.742C164.403 40.4531 164.314 42.8386 163.958 43.899C166.986 45.5777 171.261 47.3448 175.18 49.1121L176.605 47.6982ZM163.334 22.6931C167.164 20.8376 172.954 17.4799 176.695 14.7408H177.407C179.901 17.3033 183.553 21.4561 186.76 24.2836V24.9903L172.508 34.1796V39.9228C174.023 40.8947 178.12 42.9271 180.614 43.8106L186.403 38.3323L187.116 39.0392L175.537 50.1722H174.824C170.905 48.4936 165.917 46.373 162.711 44.6057C163.067 43.3687 163.423 40.4531 163.423 36.8303V22.6931H163.334Z" fill="#222222"/>
<path d="M198.784 47.6102C196.201 46.9033 193.617 45.2244 193.617 41.6019V9.35138L190.767 6.4355L189.253 7.93755L191.569 10.3233V42.3972C191.569 46.0198 194.508 48.4054 197.269 49.0239L198.784 47.6102ZM199.675 6.70054V40.8949C199.675 42.3972 201.099 43.7224 202.436 43.9874L204.483 41.9553L205.108 42.6622L197.715 50.0842H197.269C194.419 49.4657 190.5 46.9917 190.5 42.6622V10.8534L188.452 8.82109L186.314 10.9418L185.69 10.2349L193.885 2.01758H194.419L199.675 6.70054Z" fill="#222222"/>
<path d="M219.448 18.8053L217.667 20.0423C219.715 22.3397 222.209 25.3438 224.793 28.1712L226.573 26.9342C224.08 24.1068 221.497 21.1027 219.448 18.8053ZM217.4 32.9426L223.812 28.6131C221.586 26.0507 219.269 23.3999 217.4 21.2793V32.9426ZM221.586 47.6982C217.667 45.9311 214.193 44.6057 211.165 42.9271C211.342 41.7783 211.432 40.4531 211.432 36.742V22.1629L209.383 23.2232V36.742C209.383 40.4531 209.294 42.8386 208.939 43.899C211.967 45.5777 216.241 47.3448 220.161 49.1121L221.586 47.6982ZM208.314 22.6931C212.144 20.8376 217.935 17.4799 221.674 14.7408H222.388C224.881 17.3033 228.532 21.4561 231.739 24.2836V24.9903L217.489 34.1796V39.9228C219.002 40.8947 223.099 42.9271 225.595 43.8106L231.384 38.3323L232.095 39.0392L220.517 50.1722H219.803C215.885 48.4936 210.898 46.373 207.691 44.6057C208.137 43.3687 208.404 40.4531 208.404 36.8303V22.6931H208.314Z" fill="#222222"/>
<path d="M280.639 21.1026C281.796 22.163 283.4 23.6651 284.736 24.8137L286.072 23.3116C284.824 22.163 282.865 20.4841 281.884 19.6006L280.639 21.1026ZM277.164 47.61C274.492 46.9031 271.91 45.2242 271.91 41.6016V22.0746L269.06 19.2471L267.457 20.7492L269.772 23.1348V42.4851C269.772 46.1079 272.711 48.4935 275.472 49.112L277.164 47.61ZM277.966 24.1067V40.8947C277.966 42.3969 279.302 43.7221 280.727 43.9872L282.777 41.9551L283.4 42.662L276.007 50.084H275.561C272.8 49.4655 268.881 46.9915 268.881 42.662V23.4882L266.832 21.4561L264.696 23.5766L263.982 22.8697L272.177 14.6526H272.8L278.054 19.6888V22.5163L284.647 14.6526H285.27C286.607 15.9778 288.654 18.0101 290.525 19.3356V19.4238L285.003 25.9622H284.824C283.311 24.637 281.173 22.7815 280.104 21.6327L277.966 24.1067Z" fill="#222222"/>
<path d="M306.468 42.1317V31.7056C304.42 31.1753 302.282 30.2918 300.235 29.3198V42.2201L303.886 44.5175L306.468 42.1317ZM314.753 47.6982C312.257 46.7265 309.586 44.9592 309.586 41.425V23.4883L299.7 18.5403C299.433 18.7169 298.273 19.5122 297.918 19.7773L307.537 24.7253V42.2201C307.537 45.5777 310.655 48.2285 313.238 49.1121L314.753 47.6982ZM306.468 30.7337V25.3438L297.116 20.3958C296.405 20.9259 293.909 22.4281 293.107 22.8698C295.245 25.7857 301.125 29.4082 306.468 30.7337ZM300.857 47.5216L294.267 43.1037V33.4727L292.217 34.9748V44.3407L299.342 49.0237L300.857 47.5216ZM299.075 50.084L291.148 44.8708V34.5331C293.198 33.1193 297.295 30.2918 299.342 28.8782C296.226 27.1993 293.553 25.1671 291.95 23.1348V22.4281C296.67 19.7773 300.056 17.3033 302.905 14.7408H303.53C303.53 14.7408 313.326 19.3354 313.772 19.5122C314.307 19.7773 314.753 19.9539 315.287 19.9539C315.999 19.9539 316.533 19.7773 317.246 19.4238V20.4842C316.533 21.0143 315.731 21.9862 315.731 23.4883V40.7181C315.731 42.4852 317.335 43.7222 318.583 43.9872L320.63 41.9551L321.253 42.662L313.86 50.084H313.416C310.565 49.2887 307.36 46.5496 306.825 43.2805L299.788 50.084H299.075Z" fill="#222222"/>
<path d="M250.801 42.1316V24.195L244.21 21.3676V41.7783L248.395 44.5174L250.801 42.1316ZM253.917 22.1627L244.21 18.0984V20.219L251.87 23.4881V43.1919C251.87 47.433 253.738 52.0278 256.59 55.562L258.103 54.0599C255.609 50.7908 253.917 47.168 253.917 42.8385V22.1627ZM243.496 49.0235L245.1 47.5214L238.151 43.1035V22.0745L236.104 23.4881V44.1639L243.496 49.0235ZM240.735 57.4175C238.151 57.4175 235.925 58.5662 234.589 60.3333V60.6868C236.104 59.8032 237.974 59.273 240.735 59.273C244.119 59.273 248.484 60.2449 250.977 61.5703L252.314 59.9799C249.464 58.5662 245.188 57.4175 240.735 57.4175ZM235.123 44.6058V22.7814L246.703 14.8291H247.415C249.732 15.8011 257.124 18.982 258.103 19.3354C258.461 19.5121 258.905 19.6005 259.351 19.6005C260.064 19.6005 260.866 19.3354 261.577 18.982V20.219C260.866 20.8375 259.974 22.1629 259.974 23.2231V41.6899C259.974 46.0194 260.954 48.5818 262.646 50.2605V50.9674C260.064 53.5298 254.184 59.6264 251.512 62.8073H251.068C248.574 61.3937 244.298 60.2449 240.824 60.2449C238.242 60.2449 235.302 60.9518 233.164 62.6307L232.629 62.1888C234.679 57.5059 238.953 52.9113 244.387 52.9113C247.772 52.9113 252.225 54.325 256.055 56.3573C253.473 53.4414 251.068 48.0515 251.068 43.5454L244.21 50.0839H243.675L235.123 44.6058Z" fill="#222222"/>
<path d="M338.978 20.4842L342.541 23.9302V42.8386L344.591 41.6901V22.7814L340.582 18.8053L338.978 20.4842ZM340.493 49.6422C340.849 49.1121 341.562 48.4052 342.006 47.9635L334.881 46.4612V48.4052L340.493 49.6422ZM341.472 42.9271V24.2836L338.355 21.1027L334.881 24.3718V41.6901C336.396 41.9551 340.67 42.7502 341.472 42.9271ZM326.777 55.739L325.35 57.0642L330.607 61.5705L332.208 60.1567L328.023 56.7107L328.736 56.004V22.2513L325.796 19.3354L324.281 20.8376L326.598 23.2232V55.739H326.777ZM334.881 22.8698L343.433 14.7408H344.056C344.679 15.3593 348.597 18.8937 349.222 19.2472C349.578 19.4238 350.024 19.5122 350.38 19.5122C351.093 19.5122 351.626 19.2472 352.16 18.9821V20.2191C351.449 20.7492 350.647 21.9862 350.647 23.3999V44.2523C346.996 45.136 344.056 47.0797 340.849 50.7907H340.582L334.881 49.5537V54.1485L337.821 56.7991L330.874 62.5425H330.517L323.926 57.0642L325.708 55.2087V47.5216C324.995 47.4332 323.658 47.1682 323.035 46.9915V46.0196C323.837 45.6661 325.885 43.7222 325.885 42.0433V23.6651L323.837 21.6328L321.699 23.7533L320.986 23.0464L329.271 14.8293H329.894L335.06 19.8657V22.8698H334.881Z" fill="#222222"/>
<path d="M20.3779 32.9427L20.2889 23.9302L18.2403 25.3438V33.8262C18.2403 34.7982 18.0623 35.5051 17.795 36.1236H18.0623C19.3981 35.3283 20.3779 34.0913 20.3779 32.9427ZM9.86784 18.8054C6.92855 21.7213 4.1674 25.7857 4.1674 30.9988C4.1674 43.2806 12.5399 49.4656 23.0501 49.4656C29.6412 49.4656 34.1837 45.9312 36.8558 43.2806L36.6776 43.0155C33.5602 45.4895 29.3739 47.4333 23.0501 47.4333C14.4994 47.4333 6.30507 42.2202 6.30507 30.9988C6.30507 26.4926 7.90831 22.0747 10.046 19.0704L9.86784 18.8054ZM32.4914 13.9458C24.5642 13.9458 17.5278 10.0579 11.7383 10.0579C8.08644 10.0579 3.81113 11.5602 2.29695 15.8013L2.56416 15.8897C4.34554 12.9738 8.26458 12.0019 11.8274 12.0019C17.6168 12.0019 24.6534 15.8897 32.5806 15.8897C38.9044 15.8897 42.6454 13.769 43.2687 8.73273L42.9124 8.64431C41.9328 12.6204 38.9044 13.9458 32.4914 13.9458ZM3.09857 30.9104C3.09857 22.6048 9.42249 16.8615 15.3901 14.2108L15.8355 14.7409C13.6978 17.2149 12.1836 19.6007 12.1836 24.6371C12.1836 30.3803 13.6978 34.4447 16.1027 37.0956C16.9042 36.2118 17.3497 34.7982 17.3497 33.5612V24.9022L28.0379 17.3033L28.4834 17.9218C27.5036 19.2472 26.9691 20.4842 26.9691 22.5164V27.9947C26.9691 31.8823 20.6452 35.9468 16.6372 37.5372C19.2201 40.0997 22.9611 41.1598 26.88 41.1598C28.3941 41.1598 29.6412 41.0716 30.799 40.8948V16.7732C27.3253 16.5964 24.0299 15.6245 21.0015 14.8293C17.795 13.8574 14.4994 13.0622 11.6492 13.0622C7.3739 13.0622 2.11881 14.5643 2.02974 20.6609C2.02974 21.1912 2.11881 21.8097 2.20789 22.4282L1.40625 22.6932C0.693709 20.7493 0.24836 18.8938 0.24836 17.0383C0.159282 9.52785 5.77064 2.98938 14.6776 2.98938C18.4185 2.98938 21.9813 3.96134 25.0987 4.75647C28.4834 5.72843 31.6898 6.52377 35.0745 6.52377C36.7668 6.52377 37.7464 5.64022 37.7464 4.04976C37.7464 2.4593 36.9448 1.66397 35.698 1.31051L35.876 0.515381C39.706 1.2223 43.8922 3.43126 43.8922 8.20244C43.8922 13.9458 39.706 16.6848 32.5806 16.6848H31.8678V40.6297C36.5886 39.7462 39.617 37.5372 42.0219 33.9146L42.7344 34.3563C40.1513 42.4852 34.0057 50.2607 23.1391 50.2607C12.0946 50.4375 3.09857 44.0757 3.09857 30.9104Z" fill="#222222"/>
<path d="M137.059 32.9427L136.97 23.9302L134.921 25.3438V33.8262C134.921 34.7982 134.743 35.5051 134.476 36.1236H134.743C136.079 35.3283 137.059 34.0913 137.059 32.9427ZM126.549 18.8054C123.609 21.7213 120.848 25.7857 120.848 30.9988C120.848 43.2806 129.221 49.4656 139.731 49.4656C146.322 49.4656 150.865 45.9312 153.537 43.2806L153.358 43.0155C150.241 45.4895 146.055 47.4333 139.731 47.4333C131.18 47.4333 122.986 42.2202 122.986 30.9988C122.986 26.4926 124.589 22.0747 126.727 19.0704L126.549 18.8054ZM149.261 13.9458C141.334 13.9458 134.298 10.0579 128.508 10.0579C124.856 10.0579 120.581 11.5602 119.067 15.8013L119.334 15.8897C121.115 12.9738 125.035 12.0019 128.597 12.0019C134.387 12.0019 141.423 15.8897 149.35 15.8897C155.674 15.8897 159.415 13.769 160.039 8.73273L159.683 8.64431C158.614 12.6204 155.585 13.9458 149.261 13.9458ZM119.779 30.9104C119.779 22.6048 126.103 16.8615 132.071 14.2108L132.516 14.7409C130.379 17.2149 128.865 19.6007 128.865 24.6371C128.865 30.3803 130.379 34.4447 132.784 37.0956C133.585 36.2118 134.031 34.7982 134.031 33.5612V24.9022L144.719 17.3033L145.164 17.9218C144.184 19.2472 143.65 20.4842 143.65 22.5164V27.9947C143.65 31.8823 137.326 35.9468 133.318 37.5372C135.901 40.0997 139.642 41.1598 143.561 41.1598C145.075 41.1598 146.322 41.0716 147.48 40.8948V16.7732C144.006 16.5964 140.711 15.6245 137.682 14.8293C134.476 13.8574 131.18 13.0622 128.33 13.0622C124.055 13.0622 118.8 14.5643 118.711 20.6609C118.711 21.1912 118.8 21.8097 118.8 22.4282L117.998 22.6932C117.285 20.7493 116.84 18.8938 116.84 17.0383C116.751 9.52785 122.362 2.98938 131.269 2.98938C135.01 2.98938 138.573 3.96134 141.691 4.75647C145.075 5.72843 148.282 6.52377 151.666 6.52377C153.358 6.52377 154.338 5.64022 154.338 4.04976C154.338 2.4593 153.537 1.66397 152.29 1.31051L152.379 0.515381C156.209 1.2223 160.395 3.43126 160.395 8.20244C160.395 13.9458 156.209 16.6848 149.083 16.6848H148.371V40.6297C153.091 39.7462 156.12 37.5372 158.524 33.9146L159.237 34.3563C156.654 42.4852 150.508 50.2607 139.642 50.2607C128.775 50.4375 119.779 44.0757 119.779 30.9104Z" fill="#222222"/>
</svg>
