<svg width="126" height="55" viewBox="0 0 126 55" fill="none" xmlns="http://www.w3.org/2000/svg">
<path d="M0.56958 0.903107H125.3V54.901H0.56958V0.903107Z" fill="#EB1701"/>
<path fill-rule="evenodd" clip-rule="evenodd" d="M51.2209 17.7272C48.4764 12.3497 41.5147 9.40436 31.5407 9.40436C19.6031 9.40436 12.3513 13.51 12.3513 20.3378C12.3513 24.6443 15.7206 27.5227 22.8162 29.3747L25.9178 30.1779L28.93 30.9812L32.0316 31.7845C32.1655 31.8291 32.3886 31.8737 32.5894 31.9853C33.7051 32.4316 34.3521 33.0787 34.3521 33.7927C34.3521 35.243 32.2547 36.2471 29.1532 36.2471C24.155 36.2471 21.6336 35.243 20.2279 32.744L6.75073 34.596C10.187 40.8213 17.5057 43.9229 28.8854 43.9229C40.9792 43.9229 49.3243 39.1478 49.3243 32.2308C49.3243 28.4152 45.5311 24.8005 39.7743 23.3947L37.0967 22.7476L34.4191 22.0559L31.7415 21.4089C30.9605 21.208 30.2688 21.0072 29.6441 20.8064C28.1045 20.3601 27.3904 19.7577 27.3904 18.9098C27.3904 17.5487 29.1532 16.7008 31.8977 16.7008C35.624 16.7008 38.3016 17.8611 39.1272 19.9585L51.2209 17.7272ZM85.2932 20.8733H73.311L70.678 32.0522C69.7855 35.8009 67.9781 37.6975 65.2782 37.6975C63.8725 37.6975 63.0915 37.095 63.0915 36.0017C63.0915 35.6447 63.0915 35.3546 63.4709 33.7927L66.5501 20.8733H54.3671L51.087 34.9976C50.7077 36.6934 50.44 38.1214 50.44 38.8578C50.44 41.7808 54.1663 44.0791 58.919 44.0791C63.7386 44.0791 66.684 42.7403 69.6293 39.2594L68.6029 43.4766H80.0272L85.2932 20.8733ZM87.8815 20.8733L82.5486 43.4766H94.2854L97.4985 29.9102C98.0786 27.5227 99.6182 26.2954 101.983 26.2954C103.902 26.2954 104.929 26.8979 104.929 28.0805C104.929 28.3929 104.795 29.1292 104.616 29.9102L101.47 43.4766H113.475L117.067 28.0359C117.268 27.2103 117.38 26.4293 117.38 25.7376C117.38 22.4353 113.72 20.1816 108.343 20.1816C103.411 20.1816 99.819 21.6989 98.0117 24.5327L98.9042 20.8733H87.8815ZM66.7732 12.439H69.0491L69.4285 10.7431H61.9982L61.5965 12.439H63.8056L62.4668 18.1288H65.4567L66.7732 12.439ZM75.0737 15.1835L74.382 18.1288H77.3497L79.0678 10.7878H76.0778L75.453 13.4877H72.7755L73.4002 10.7878H70.4326L68.7145 18.1288H71.6821L72.3738 15.1835H75.0737ZM86.4311 16.4553H81.8346L82.147 15.1612H85.851L86.2303 13.5546H82.5263L82.7941 12.3943H87.2121L87.5914 10.7878H80.2281L78.5099 18.1288H86.0295L86.4311 16.4553Z" fill="white"/>
</svg>
