<svg width="32" height="32" viewBox="0 0 32 32" fill="none" xmlns="http://www.w3.org/2000/svg">
<path d="M0.846897 10.0333C1.33368 5.04792 5.31806 1.17702 10.3175 0.77696C12.3315 0.615794 14.3889 0.5 16.1381 0.5C17.8062 0.5 19.7546 0.605291 21.6787 0.754869C26.8047 1.15334 30.8446 5.20251 31.2405 10.3297C31.3924 12.2968 31.5 14.2936 31.5 16C31.5 17.7007 31.3931 19.69 31.242 21.6509C30.8462 26.7866 26.7941 30.8388 21.6583 31.2383C19.6883 31.3915 17.6935 31.5 16 31.5C14.2759 31.5 12.2653 31.3875 10.2968 31.23C5.30742 30.8306 1.33566 26.9629 0.848804 21.9862C0.646457 19.9178 0.5 17.7977 0.5 16C0.5 14.208 0.645534 12.0956 0.846897 10.0333Z" fill="white" stroke="#EBEEF2"/>
<path fill-rule="evenodd" clip-rule="evenodd" d="M12.0659 5.19151C8.46497 5.47965 5.59117 8.2692 5.24012 11.8645C5.10121 13.2871 5 14.7519 5 16C5 17.252 5.10185 18.7221 5.24144 20.149C5.59252 23.7378 8.45719 26.5256 12.0516 26.8133C13.4091 26.9219 14.8017 27 16 27C17.177 27 18.5584 26.9247 19.9167 26.819C23.6164 26.5313 26.5365 23.6113 26.8216 19.9114C26.9258 18.5593 27 17.1818 27 16C27 14.8143 26.9253 13.4316 26.8206 12.0752C26.5354 8.3817 23.6241 5.46336 19.9308 5.17626C18.6038 5.0731 17.2544 5 16.095 5C14.8792 5 13.4545 5.08038 12.0659 5.19151ZM12.7812 7.15669C9.83497 7.39245 7.48368 9.6748 7.19646 12.6164C7.08281 13.7804 7 14.9788 7 16C7 17.0244 7.08333 18.2272 7.19754 19.3946C7.48479 22.3309 9.82861 24.6118 12.7695 24.8472C13.8802 24.9361 15.0195 25 16 25C16.963 25 18.0932 24.9384 19.2046 24.8519C22.2316 24.6165 24.6208 22.2274 24.8541 19.2002C24.9393 18.0939 25 16.9669 25 16C25 15.0299 24.9389 13.8986 24.8532 12.7888C24.6199 9.76685 22.2379 7.37911 19.2161 7.14421C18.1304 7.05981 17.0263 7 16.0777 7C15.083 7 13.9174 7.06577 12.7812 7.15669Z" fill="#0F141F"/>
<path fill-rule="evenodd" clip-rule="evenodd" d="M18.439 15.1692C18.913 14.7319 19.1189 14.1365 18.8068 13.3337C18.3819 12.2326 17.2984 12.1262 16.0353 12.363L15.5971 10.7941L14.6421 11.0619L15.0677 12.5891C14.8178 12.6593 14.5598 12.7371 14.3087 12.8134L13.8788 11.2754L12.9235 11.5419L13.3607 13.1125L13.3501 13.1156C13.1491 13.1753 12.9496 13.2346 12.7533 13.2903L12.7518 13.2847L11.4358 13.6523L11.7228 14.6738C11.7228 14.6738 12.4253 14.4614 12.4167 14.4788C12.8036 14.3691 12.9937 14.5601 13.0843 14.7431L13.583 16.5314C13.611 16.5239 13.6455 16.5146 13.6857 16.5084C13.653 16.5203 13.6198 16.5292 13.5849 16.5386L14.2855 19.0413C14.3021 19.1694 14.2856 19.3815 14.0142 19.4602C14.0305 19.4649 13.3195 19.6522 13.3195 19.6522L13.4488 20.8471L14.6933 20.5018C14.9237 20.4369 15.1549 20.375 15.3776 20.3153L15.8223 21.902L16.7764 21.6359L16.3375 20.0644C16.5996 19.9955 16.8559 19.9269 17.1033 19.8592L17.5393 21.4196L18.4959 21.1528L18.0515 19.5723C19.6318 19.0267 20.6435 18.3078 20.3601 16.7603C20.1343 15.5165 19.4114 15.1358 18.4401 15.1692L18.439 15.1692ZM14.8418 13.8705C15.5064 13.6658 16.8632 13.2479 17.1464 14.2591C17.4225 15.249 15.99 15.6238 15.3345 15.7953C15.2757 15.8107 15.2231 15.8245 15.1785 15.8369L14.6451 13.9295C14.7001 13.9141 14.7665 13.8937 14.8418 13.8705ZM15.4485 16.8L16.0342 18.9025C16.0868 18.8878 16.1487 18.8714 16.218 18.8531C17.0026 18.6456 18.7264 18.1897 18.4208 17.1005C18.1062 15.9863 16.4704 16.4881 15.6762 16.7318C15.5892 16.7584 15.5124 16.782 15.4485 16.8Z" fill="#0F141F"/>
</svg>
