<svg width="32" height="32" viewBox="0 0 32 32" fill="none" xmlns="http://www.w3.org/2000/svg">
<path d="M0.846897 10.0333C1.33368 5.04792 5.31806 1.17702 10.3175 0.77696C12.3315 0.615794 14.3889 0.5 16.1381 0.5C17.8062 0.5 19.7546 0.605291 21.6787 0.754869C26.8047 1.15334 30.8446 5.20251 31.2405 10.3297C31.3924 12.2968 31.5 14.2936 31.5 16C31.5 17.7007 31.3931 19.69 31.242 21.6509C30.8462 26.7866 26.7941 30.8388 21.6583 31.2383C19.6883 31.3915 17.6935 31.5 16 31.5C14.2759 31.5 12.2653 31.3875 10.2968 31.23C5.30742 30.8306 1.33566 26.9629 0.848804 21.9862C0.646457 19.9178 0.5 17.7977 0.5 16C0.5 14.208 0.645534 12.0956 0.846897 10.0333Z" fill="white" stroke="#EBEEF2"/>
<path d="M21.0416 12.2182C20.8493 10.3535 19.287 9.74438 17.3226 9.58849L17.2963 7L15.7758 7.01821L15.8001 9.5376C15.4022 9.54242 14.9892 9.55581 14.5872 9.56974L14.5608 7.03214L13.0404 7.04821L13.0647 9.63885C12.7375 9.64795 12.413 9.65706 12.0946 9.66188L10 9.67581L10.0196 11.3616C10.0196 11.3616 11.1442 11.3247 11.1246 11.3477C11.7411 11.3386 11.9468 11.7099 12.0083 12.0281L12.0373 14.9781C12.0817 14.9781 12.1365 14.9781 12.1985 14.9851C12.1453 14.9899 12.0925 14.9899 12.0373 14.9899L12.0817 19.1196C12.0553 19.3232 11.9468 19.6419 11.5137 19.651C11.5359 19.665 10.4088 19.6601 10.4088 19.6601L10.1261 21.5474L12.106 21.5292C12.4729 21.5244 12.8399 21.5244 13.1933 21.5244L13.2223 24.1429L14.7407 24.1268L14.7143 21.534C15.1298 21.5362 15.5365 21.5362 15.9298 21.534L15.9562 24.1086L17.4787 24.0925L17.4477 21.4837C20.0043 21.2962 21.7878 20.6089 21.9822 18.1168C22.1413 16.1149 21.2219 15.2331 19.7702 14.8849C20.6441 14.4082 21.1852 13.5789 21.0416 12.2182ZM18.2157 12.9559C18.2332 14.7355 15.5355 14.5592 14.6755 14.5683L14.6425 11.4211C15.5019 11.412 18.1955 11.0981 18.2157 12.9559ZM14.7262 19.6259L14.6931 16.1577C15.7252 16.1438 18.949 15.8004 18.9754 17.8414C18.9976 19.7978 15.7577 19.6141 14.7262 19.6259Z" fill="#FAB915"/>
</svg>
