<svg width="32" height="32" viewBox="0 0 32 32" fill="none" xmlns="http://www.w3.org/2000/svg">
<path d="M0.719203 10.5004C1.08247 5.1327 5.40577 0.93587 10.7863 0.660923C12.6505 0.565656 14.5233 0.5 16.1416 0.5C17.6719 0.5 19.4299 0.558714 21.1934 0.645681C26.7034 0.917415 31.0815 5.3038 31.3513 10.8148C31.4399 12.6234 31.5 14.4303 31.5 16C31.5 17.5697 31.4399 19.3766 31.3513 21.1852C31.0815 26.6962 26.7034 31.0826 21.1934 31.3543C19.4299 31.4413 17.6719 31.5 16.1416 31.5C14.5233 31.5 12.6505 31.4343 10.7863 31.3391C5.40577 31.0641 1.08247 26.8673 0.719203 21.4996C0.589731 19.5865 0.5 17.6604 0.5 16C0.5 14.3396 0.589731 12.4135 0.719203 10.5004Z" fill="white" stroke="#EBEEF2"/>
<path d="M10.0005 16.4533L15.9994 19.9975V6.5L10.0005 16.4533Z" fill="#8290FF"/>
<path d="M15.9994 6.5V19.9975L21.996 16.4533L15.9994 6.5Z" fill="#8290FF"/>
<path d="M10 17.5535L15.9989 26.0047V21.0976L10 17.5535Z" fill="#8290FF"/>
<path d="M15.9989 21.0976V26.0047L22 17.5534L15.9989 21.0976Z" fill="#8290FF"/>
</svg>
