<?xml version="1.0" encoding="UTF-8" standalone="no"?>
<svg width="251px" height="197px" viewBox="0 -10 251 177" version="1.1" xmlns="http://www.w3.org/2000/svg" xmlns:xlink="http://www.w3.org/1999/xlink">
    <!-- Generator: Sketch 3.8.2 (29753) - http://www.bohemiancoding.com/sketch -->
    <title>mastercard</title>
    <desc>Created with Sketch.</desc>
    <defs></defs>
    <g id="Page-1" stroke="none" stroke-width="1" fill="none" fill-rule="evenodd">
        <g id="mastercard" transform="translate(-32.000000, -32.000000)">
            <g id="mc_vrt_pos">
                <g id="Single-Bundles-Page">
                    <g>
                        <g id="1.0.1-Active(loginned)">
                            <g id="Group-12">
                                <g id="mc_vrt_pos">
                                    <g id="Layer_1">
                                        <g id="Group">
                                            <g transform="translate(32.465932, 32.496370)">
                                                <g id="XMLID_328_" transform="translate(-0.000000, 0.000000)">
                                                    <rect id="Rectangle-path" fill="#FF5F00" x="91.1921769" y="16.9793526" width="67.4695945" height="122.61963"></rect>
                                                    <path d="M95.475961,78.2891682 C95.475961,53.3752853 107.042177,31.2777547 124.81988,16.9793526 C111.754339,6.58051463 95.2617714,0.297883377 77.2698797,0.297883377 C34.6462311,0.297883377 0.161771582,35.1773189 0.161771582,78.2891682 C0.161771582,121.401017 34.6462311,156.280452 77.2698797,156.280452 C95.2617714,156.280452 111.754339,149.997821 124.81988,139.598983 C107.042177,125.517223 95.475961,103.203051 95.475961,78.2891682 L95.475961,78.2891682 L95.475961,78.2891682 Z" id="XMLID_330_" fill="#EB001B"></path>
                                                    <path d="M249.692177,78.2891682 C249.692177,121.401017 215.207718,156.280452 172.584069,156.280452 C154.592177,156.280452 138.099609,149.997821 125.034069,139.598983 C143.025961,125.300581 154.377988,103.203051 154.377988,78.2891682 C154.377988,53.3752853 142.811771,31.2777547 125.034069,16.9793526 C138.099609,6.58051463 154.592177,0.297883377 172.584069,0.297883377 C215.207718,0.297883377 249.692177,35.3939614 249.692177,78.2891682 L249.692177,78.2891682 L249.692177,78.2891682 Z" id="Shape" fill="#F79E1B"></path>
                                                </g>
                                            </g>
                                        </g>
                                    </g>
                                </g>
                            </g>
                        </g>
                    </g>
                </g>
            </g>
        </g>
    </g>
</svg>