<svg width="7" height="7" viewBox="0 0 7 7" fill="none" xmlns="http://www.w3.org/2000/svg">
<path fill-rule="evenodd" clip-rule="evenodd" d="M3.44757 0.558594C3.42436 0.55864 3.40115 0.563388 3.37969 0.572836C3.34392 0.588583 3.31301 0.617388 3.29498 0.659251L2.46957 2.57597L0.391601 2.76868C0.246103 2.78217 0.187299 2.96314 0.297075 3.05958L1.86491 4.4369L1.40608 6.47273C1.37395 6.61527 1.5279 6.72711 1.65354 6.65251L3.44757 5.58724L3.44792 5.58703L5.24231 6.65251C5.36795 6.72711 5.5219 6.61527 5.48978 6.47273L5.03094 4.4369L6.59877 3.05958C6.70855 2.96314 6.64974 2.78217 6.50424 2.76868L4.42628 2.57595L3.60085 0.659251C3.5719 0.592022 3.50971 0.55847 3.44757 0.558594ZM3.44757 5.12092L3.44792 5.12071L3.65264 5.24227L4.97893 6.0298L4.63979 4.52506L4.58744 4.2928L4.76631 4.13567L5.92514 3.11765L4.38925 2.9752L4.15218 2.95322L4.05802 2.73455L3.44792 1.31786L3.44757 1.31866V5.12092Z" fill="#FAB915"/>
</svg>
