<?xml version="1.0" encoding="UTF-8" standalone="no"?>
<svg width="59px" height="38px" viewBox="0 0 59 38" version="1.1" xmlns="http://www.w3.org/2000/svg" xmlns:xlink="http://www.w3.org/1999/xlink">
    <!-- Generator: Sketch 3.8.3 (29802) - http://www.bohemiancoding.com/sketch -->
    <title>visa_pos_fc</title>
    <desc>Created with Sketch.</desc>
    <defs></defs>
    <g id="Page-1" stroke="none" stroke-width="1" fill="none" fill-rule="evenodd">
        <g id="Group" transform="translate(0.000000, -1.000000)">
            <g id="visa_pos_fc" transform="translate(0.204082, 0.781026)">
                <polygon id="Fill-1" fill="#FFFFFF" points="0 37.6052644 58 37.6052644 58 0.215370153 0 0.215370153"></polygon>
                <polygon id="Fill-3" fill="#F1AD2B" points="0.965861111 36.6470035 57.0330648 36.6470035 57.0330648 31.5435488 0.965861111 31.5435488"></polygon>
                <polygon id="Fill-4" fill="#172E66" points="0.965861111 6.2999859 57.0330648 6.2999859 57.0330648 1.19653114 0.965861111 1.19653114"></polygon>
                <path d="M28.5158611,11.92251 L25.5605463,25.9501951 L21.9860278,25.9501951 L24.9416111,11.92251 L28.5158611,11.92251 L28.5158611,11.92251 Z M43.5539722,20.9805969 L45.43575,15.7124794 L46.5181481,20.9805969 L43.5539722,20.9805969 L43.5539722,20.9805969 Z M47.5441574,25.9501951 L50.8490833,25.9501951 L47.9614352,11.92251 L44.9126759,11.92251 C44.2252685,11.92251 43.6463426,12.3270787 43.3899074,12.9508343 L38.02625,25.9501951 L41.7804074,25.9501951 L42.5255463,23.8553796 L47.1107685,23.8553796 L47.5441574,25.9501951 L47.5441574,25.9501951 Z M38.2126019,21.3707168 C38.2281759,17.6688038 33.1719722,17.4635206 33.205537,15.8092597 C33.2165463,15.3065476 33.6886019,14.7713937 34.7213241,14.6345382 C35.2331204,14.5674736 36.6455278,14.5132221 38.2467037,15.2621105 L38.8728889,12.2861857 C38.0125556,11.9704912 36.9059907,11.6662468 35.5292963,11.6662468 C31.9955926,11.6662468 29.5096481,13.5718637 29.4897778,16.3029753 C29.4672222,18.3225476 31.2657593,19.4487427 32.61775,20.1212973 C34.0116296,20.8085734 34.4788519,21.2496733 34.4721389,21.8638872 C34.4624722,22.804973 33.3602037,23.2218096 32.334463,23.237349 C30.5361944,23.2659741 29.4940741,22.7441786 28.6632778,22.3507873 L28.014537,25.4262186 C28.8509722,25.8147027 30.392537,26.1532973 31.9883426,26.1704724 C35.7449167,26.1704724 38.2015926,24.2872103 38.2126019,21.3707168 L38.2126019,21.3707168 Z M23.4083704,11.92251 L17.6166944,25.9501951 L13.8386389,25.9501951 L10.9883148,14.7550364 C10.8156574,14.0669424 10.6650185,13.813678 10.1395278,13.5230646 C9.28,13.0487051 7.86087963,12.6054242 6.61334259,12.3298049 L6.69765741,11.92251 L12.7801389,11.92251 C13.5550833,11.92251 14.2518889,12.4459412 14.4291111,13.3521316 L15.9346944,21.4699506 L19.6531389,11.92251 L23.4083704,11.92251 L23.4083704,11.92251 Z" id="Fill-5" fill="#172E66"></path>
            </g>
        </g>
    </g>
</svg>