<svg width="32" height="32" viewBox="0 0 32 32" fill="none" xmlns="http://www.w3.org/2000/svg">
<path d="M0.846897 10.0333C1.33368 5.04792 5.31806 1.17702 10.3175 0.77696C12.3315 0.615794 14.3889 0.5 16.1381 0.5C17.8062 0.5 19.7546 0.605291 21.6787 0.754869C26.8047 1.15334 30.8446 5.20251 31.2405 10.3297C31.3924 12.2968 31.5 14.2936 31.5 16C31.5 17.7007 31.3931 19.69 31.242 21.6509C30.8462 26.7866 26.7941 30.8388 21.6583 31.2383C19.6883 31.3915 17.6935 31.5 16 31.5C14.2759 31.5 12.2653 31.3875 10.2968 31.23C5.30742 30.8306 1.33566 26.9629 0.848804 21.9862C0.646457 19.9178 0.5 17.7977 0.5 16C0.5 14.208 0.645534 12.0956 0.846897 10.0333Z" fill="white" stroke="#EBEEF2"/>
<path d="M22.3326 8H25.0324L19.4154 13.7537C17.3821 15.8365 14.0855 15.8365 12.0522 13.7537L6.43516 8H9.13499L13.4021 12.371C14.6898 13.69 16.7776 13.69 18.0655 12.371L22.3326 8Z" fill="#26374C"/>
<path d="M9.10023 24.0004H6.40039L12.0521 18.2111C14.0854 16.1283 17.382 16.1283 19.4154 18.2111L25.0671 24.0004H22.3672L18.0654 19.5938C16.7776 18.2747 14.6898 18.2747 13.402 19.5938L9.10023 24.0004Z" fill="#26374C"/>
</svg>
