<?xml version="1.0" encoding="UTF-8" standalone="no"?>
<svg width="60px" height="57px" viewBox="0 0 60 57" version="1.1" xmlns="http://www.w3.org/2000/svg" xmlns:xlink="http://www.w3.org/1999/xlink">
    <!-- Generator: Sketch 3.8.2 (29753) - http://www.bohemiancoding.com/sketch -->
    <title>Page 1</title>
    <desc>Created with Sketch.</desc>
    <defs></defs>
    <g id="Page-1" stroke="none" stroke-width="1" fill="none" fill-rule="evenodd">
        <g id="Referral-program---Information" transform="translate(-1070.000000, -589.000000)">
            <g id="Group-3" transform="translate(245.000000, 590.000000)">
                <g id="Page-1" transform="translate(826.000000, 0.000000)">
                    <path d="M56.5658494,35.0254667 L56.5658494,43.8093333" id="Stroke-1" stroke="#447BC6" stroke-width="2" stroke-linecap="round"></path>
                    <path d="M56.5658494,35.14962 C56.5658494,41.1805533 44.2173679,46.0674867 28.9829852,46.0674867 C13.7464173,46.0674867 1.39720741,41.1805533 1.39720741,35.14962 C1.39720741,34.12222 1.75557778,33.1270867 2.42570123,32.1847533" id="Stroke-3" stroke="#447BC6" stroke-width="2" stroke-linecap="round"></path>
                    <path d="M56.5658494,43.57408 C56.5658494,49.6035467 44.2173679,54.4934133 28.9829852,54.4934133 C13.7464173,54.4934133 1.39720741,49.6035467 1.39720741,43.57408" id="Stroke-5" stroke="#447BC6" stroke-width="2" stroke-linecap="round"></path>
                    <path d="M1.39698889,35.0254667 L1.39698889,43.45" id="Stroke-7" stroke="#447BC6" stroke-width="2" stroke-linecap="round"></path>
                    <path d="M28.9831309,46.0674133 L28.9831309,54.4934133" id="Stroke-9" stroke="#447BC6" stroke-width="2" stroke-linecap="round"></path>
                    <path d="M36.4314074,45.7915333 L36.4314074,54.0892" id="Stroke-11" stroke="#447BC6" stroke-width="2" stroke-linecap="round"></path>
                    <path d="M43.018721,44.5961267 L43.018721,52.6209933" id="Stroke-13" stroke="#447BC6" stroke-width="2" stroke-linecap="round"></path>
                    <path d="M48.3797815,42.91232 L48.3797815,51.11172" id="Stroke-15" stroke="#447BC6" stroke-width="2" stroke-linecap="round"></path>
                    <path d="M52.7088519,41.0076333 L52.7088519,49.0332333" id="Stroke-17" stroke="#447BC6" stroke-width="2" stroke-linecap="round"></path>
                    <path d="M28.9831309,46.4918667 L28.9831309,54.4932667" id="Stroke-19" stroke="#447BC6" stroke-width="2" stroke-linecap="round"></path>
                    <path d="M21.5336889,45.9621067 L21.5336889,53.5909733" id="Stroke-21" stroke="#447BC6" stroke-width="2" stroke-linecap="round"></path>
                    <path d="M14.9457926,44.5497067 L14.9457926,52.92584" id="Stroke-23" stroke="#447BC6" stroke-width="2" stroke-linecap="round"></path>
                    <path d="M9.58363951,42.9214133 L9.58363951,51.3921467" id="Stroke-25" stroke="#447BC6" stroke-width="2" stroke-linecap="round"></path>
                    <path d="M5.25507901,40.70968 L5.25507901,49.2222133" id="Stroke-27" stroke="#447BC6" stroke-width="2" stroke-linecap="round"></path>
                    <path d="M57.7353605,22.3137933 L57.7353605,31.09766" id="Stroke-29" stroke="#447BC6" stroke-width="2" stroke-linecap="round"></path>
                    <path d="M55.1688605,18.4326267 C57.7357247,19.9836267 57.7357247,21.5272933 57.7357247,22.4380933 C57.7357247,28.4690267 45.3865148,33.35596 30.1528605,33.35596 C14.9155642,33.35596 2.56635432,28.4690267 2.56635432,22.4380933" id="Stroke-31" stroke="#447BC6" stroke-width="2" stroke-linecap="round"></path>
                    <path d="M57.7353605,30.8624067 C57.7353605,36.8918733 45.386879,41.78174 30.1524963,41.78174 C14.9159284,41.78174 2.56671852,36.8918733 2.56671852,30.8624067" id="Stroke-33" stroke="#447BC6" stroke-width="2" stroke-linecap="round"></path>
                    <path d="M2.5665,22.3137933 L2.5665,30.7383267" id="Stroke-35" stroke="#447BC6" stroke-width="2" stroke-linecap="round"></path>
                    <path d="M30.152642,33.35574 L30.152642,41.78174" id="Stroke-37" stroke="#447BC6" stroke-width="2" stroke-linecap="round"></path>
                    <path d="M37.6009185,33.07986 L37.6009185,41.3775267" id="Stroke-39" stroke="#447BC6" stroke-width="2" stroke-linecap="round"></path>
                    <path d="M44.1882321,31.8844533 L44.1882321,39.90932" id="Stroke-41" stroke="#447BC6" stroke-width="2" stroke-linecap="round"></path>
                    <path d="M49.5493654,30.2006467 L49.5493654,38.4000467" id="Stroke-43" stroke="#447BC6" stroke-width="2" stroke-linecap="round"></path>
                    <path d="M53.8784358,28.29596 L53.8784358,36.32156" id="Stroke-45" stroke="#447BC6" stroke-width="2" stroke-linecap="round"></path>
                    <path d="M30.152642,33.7801933 L30.152642,41.7815933" id="Stroke-47" stroke="#447BC6" stroke-width="2" stroke-linecap="round"></path>
                    <path d="M22.7032,33.2504333 L22.7032,40.8793" id="Stroke-49" stroke="#447BC6" stroke-width="2" stroke-linecap="round"></path>
                    <path d="M16.1153765,31.8380333 L16.1153765,40.2141667" id="Stroke-51" stroke="#447BC6" stroke-width="2" stroke-linecap="round"></path>
                    <path d="M10.7531506,30.2098133 L10.7531506,38.6805467" id="Stroke-53" stroke="#447BC6" stroke-width="2" stroke-linecap="round"></path>
                    <path d="M6.42459012,27.9980067 L6.42459012,36.51054" id="Stroke-55" stroke="#447BC6" stroke-width="2" stroke-linecap="round"></path>
                    <path d="M55.1688605,8.86196667 L55.1688605,17.6458333" id="Stroke-57" stroke="#447BC6" stroke-width="2" stroke-linecap="round"></path>
                    <path d="M27.6894284,0 C45.2961938,0 55.1688605,4.58333333 55.1688605,8.86233333 C55.1688605,14.8925333 42.820379,19.9041333 27.5859963,19.9041333 C12.3494284,19.9041333 0.000218518519,14.8925333 0.000218518519,8.86233333 C0.000218518519,4.675 10.7535148,0 27.6894284,0" id="Stroke-59" stroke="#447BC6" stroke-width="2" stroke-linecap="round"></path>
                    <path d="M27.6894284,1.59441333 C41.1079222,1.59441333 50.2725889,4.92594667 50.2725889,8.54641333 C50.2725889,12.4059467 40.0575765,15.8196133 27.5859963,15.8196133 C15.1129593,15.8196133 5.1062679,12.4059467 5.1062679,8.54641333 C5.1062679,4.96261333 14.5215025,1.60321333 27.6894284,1.60321333" id="Stroke-61" stroke="#447BC6" stroke-width="2" stroke-linecap="round"></path>
                    <path d="M55.1688605,17.41058 C55.1688605,23.4400467 42.820379,28.3299133 27.5859963,28.3299133 C12.3494284,28.3299133 0.000218518519,23.4400467 0.000218518519,17.41058" id="Stroke-63" stroke="#447BC6" stroke-width="2" stroke-linecap="round"></path>
                    <path d="M0,8.86196667 L0,17.2865" id="Stroke-65" stroke="#447BC6" stroke-width="2" stroke-linecap="round"></path>
                    <path d="M27.586142,19.9039133 L27.586142,28.3299133" id="Stroke-67" stroke="#447BC6" stroke-width="2" stroke-linecap="round"></path>
                    <path d="M35.0344185,19.6280333 L35.0344185,27.9257" id="Stroke-69" stroke="#447BC6" stroke-width="2" stroke-linecap="round"></path>
                    <path d="M41.6217321,18.4326267 L41.6217321,26.4574933" id="Stroke-71" stroke="#447BC6" stroke-width="2" stroke-linecap="round"></path>
                    <path d="M46.9827926,16.74882 L46.9827926,24.94822" id="Stroke-73" stroke="#447BC6" stroke-width="2" stroke-linecap="round"></path>
                    <path d="M51.311863,14.8441333 L51.311863,22.8697333" id="Stroke-75" stroke="#447BC6" stroke-width="2" stroke-linecap="round"></path>
                    <path d="M27.586142,20.3283667 L27.586142,28.3297667" id="Stroke-77" stroke="#447BC6" stroke-width="2" stroke-linecap="round"></path>
                    <path d="M20.1367,19.7986067 L20.1367,27.4274733" id="Stroke-79" stroke="#447BC6" stroke-width="2" stroke-linecap="round"></path>
                    <path d="M13.5488037,18.3862067 L13.5488037,26.76234" id="Stroke-81" stroke="#447BC6" stroke-width="2" stroke-linecap="round"></path>
                    <path d="M8.18665062,16.7579867 L8.18665062,25.22872" id="Stroke-83" stroke="#447BC6" stroke-width="2" stroke-linecap="round"></path>
                    <path d="M3.85809012,14.54618 L3.85809012,23.0587133" id="Stroke-85" stroke="#447BC6" stroke-width="2" stroke-linecap="round"></path>
                    <path d="M40.0212296,10.2126933 C40.0212296,8.73649333 34.7665877,8.19309333 30.1310815,7.71349333 L29.6940444,7.66876 C29.1331802,7.60056 28.5941679,7.53896 28.0821062,7.47956 C24.7496988,7.09456 24.7496988,7.04762667 24.7496988,6.84962667 C24.7496988,6.44482667 26.2458222,6.11556 28.0842914,6.11556 C29.5396247,6.11556 30.8507358,6.32896 31.2739333,6.63549333 L38.0676741,6.18009333 C37.0836123,5.46729333 34.6697111,4.92756 31.6352173,4.68776 L31.6352173,3.84516 L24.5340938,3.84516 L24.5340938,4.69142667 C20.524279,5.01262667 17.6485753,5.85742667 17.6485753,6.84962667 C17.6485753,8.03982667 21.4384148,8.47762667 24.7824765,8.86409333 C25.2850691,8.92202667 25.8153407,8.98362667 26.368921,9.05036 L27.1126123,9.12956 C31.7517605,9.60916 32.9193778,9.78662667 32.9193778,10.2126933 C32.9193778,10.8000933 30.7494889,11.2774933 28.0821062,11.2774933 C25.9340691,11.2774933 24.0220321,10.9606933 23.4327605,10.5060267 L16.6047852,10.93576 C17.7236,11.79816 20.7733901,12.4588933 24.5311802,12.7192267 L24.5311802,13.56916 L31.6330321,13.56916 L31.6330321,12.7228933 C36.4877852,12.3892267 40.0212296,11.3896933 40.0212296,10.2126933" id="Fill-87" fill="#447BC6"></path>
                </g>
            </g>
        </g>
    </g>
</svg>