<?xml version="1.0" encoding="UTF-8" standalone="no"?>
<svg width="76px" height="49px" viewBox="0 0 76 49" version="1.1" xmlns="http://www.w3.org/2000/svg" xmlns:xlink="http://www.w3.org/1999/xlink">
    <!-- Generator: Sketch 3.8.2 (29753) - http://www.bohemiancoding.com/sketch -->
    <title>Page 1</title>
    <desc>Created with Sketch.</desc>
    <defs></defs>
    <g id="Page-1" stroke="none" stroke-width="1" fill="none" fill-rule="evenodd">
        <g id="Referral-program---Information" transform="translate(-682.000000, -594.000000)" stroke="#447BC6" stroke-width="2">
            <g id="Group-3" transform="translate(245.000000, 590.000000)">
                <g id="Group" transform="translate(0.000000, 5.000000)">
                    <g id="Page-1" transform="translate(438.000000, 0.000000)">
                        <path d="M42.7163597,25.3986854 L42.7163597,25.447978" id="Stroke-1"></path>
                        <g id="Group-68">
                            <path d="M31.1713976,29.8082024 L31.1713976,32.0974463 L19.6045001,36.1979098 C17.8935367,36.8066171 16.5370037,38.0377878 15.7531008,39.5784707" id="Stroke-2"></path>
                            <path d="M42.7163597,29.8082024 L42.7163597,25.4475195" id="Stroke-4"></path>
                            <path d="M31.1713976,29.8082024 L31.1713976,25.8647878" id="Stroke-6"></path>
                            <path d="M15.7531008,39.5790439 C15.2739848,40.5190439 15.0084507,41.5748244 15.0084507,42.6764585 L15.0084507,47.0004585 L58.8793066,47.0004585 L58.8793066,42.6764585 C58.8793066,41.5748244 58.612618,40.5190439 58.1346566,39.5790439" id="Stroke-8"></path>
                            <path d="M42.7163597,29.8082024 L42.7163597,32.0974463 L54.2821027,36.1979098 C55.9930661,36.8066171 57.3507536,38.0377878 58.1346566,39.5784707" id="Stroke-10"></path>
                            <path d="M25.8905011,18.6974024 C25.3940677,17.1613049 25.1100616,15.5002561 25.1100616,13.7555244 C25.1100616,13.002378 25.1747134,12.2687195 25.2728456,11.5476707" id="Stroke-12"></path>
                            <path id="Stroke-14"></path>
                            <path d="M25.8905011,18.6974024 C27.5575936,23.8502073 31.7426423,27.511622 36.6550237,27.511622 C38.8808924,27.511622 40.9532131,26.7481585 42.7161288,25.4482073" id="Stroke-16"></path>
                            <path d="M26.9124611,6.3967 C28.9605374,2.5564561 32.5533296,0.000114634146 36.6552546,0.000114634146 C40.79066,0.000114634146 44.4100056,2.60116341 46.4476914,6.49643171" id="Stroke-18"></path>
                            <path d="M26.9124611,6.3967 C26.2082184,7.71728537 25.5316162,9.59790049 25.2387695,11.8104249" id="Stroke-20"></path>
                            <path d="M47.4493324,18.600078 C47.9272938,17.092639 48.1997549,15.4636878 48.1997549,13.755639 C48.1997549,12.6253463 48.0727603,11.5328829 47.8568695,10.4816878" id="Stroke-22"></path>
                            <path d="M47.8574468,10.4816878 C47.5642047,9.0522 47.0850888,7.71212683 46.4478069,6.49585854" id="Stroke-24"></path>
                            <path d="M47.4493324,18.600078 C46.5442073,21.4602 44.8678788,23.860639 42.7158979,25.448322" id="Stroke-26"></path>
                            <path d="M27.9147947,12.4384927 C27.0015882,12.2745659 25.6287102,11.6566202 24.7674561,11.2106934" id="Stroke-28"></path>
                            <path id="Stroke-30"></path>
                            <path d="M45.4228516,13.1999512 C46.4492188,13.1999512 48.0351562,12.6286011 48.7780762,12.4204101" id="Stroke-32"></path>
                            <path d="M27.9147947,12.3994881 C28.4703475,12.5028484 29.0413629,12.5687264 29.6499307,12.5687264 C32.8407695,12.5687264 36.7252209,10.6344112 37.9677594,8.18556585 C39.7537013,11.3988235 42.6076071,13.3207685 45.5477293,13.1912841" id="Stroke-34"></path>
                            <path d="M60.2767088,21.4300512 L60.2767088,27.0299293 L70.0160388,30.4815634 C72.3365762,31.3057829 73.8882191,33.4895634 73.8882191,35.9381488 L73.8882191,39.5789293 L58.1339639,39.5789293" id="Stroke-36"></path>
                            <path d="M60.2767088,21.4300512 L60.2767088,21.3887829" id="Stroke-38"></path>
                            <polyline id="Stroke-40" points="50.5549272 21.7804878 50.5549272 27.0295854 42.7158979 29.8083171"></polyline>
                            <path d="M47.4493324,18.600078 C49.226102,21.3719317 52.0199828,23.1682488 55.172912,23.1682488 C57.0466593,23.1682488 58.7922576,22.5251512 60.2769397,21.4303951" id="Stroke-42"></path>
                            <path d="M60.2767088,21.4300512 C63.0440362,19.3884171 64.8946937,15.7476366 64.8946937,11.5841244 C64.8946937,5.18639268 60.5410885,0.000343902439 55.1726811,0.000343902439 C51.3374447,0.000343902439 48.0309675,2.65297805 46.4481532,6.49666098" id="Stroke-44"></path>
                            <path d="M64.6517876,9.17073171 C61.339538,9.80465854 56.5703142,8.02439024 55.415818,6.87804878 C54.2613218,8.02439024 50.1432338,9.17073171 47.3343445,9.17073171" id="Stroke-46"></path>
                            <path d="M13.6110485,21.7804878 L13.6110485,27.0295854 L3.87056399,30.4823659 C1.55002661,31.3065854 -0.000461798483,33.4903659 -0.000461798483,35.9389512 L-0.000461798483,39.5785854 L15.752639,39.5785854" id="Stroke-48"></path>
                            <path d="M23.3328302,21.4300512 L23.3328302,21.3887829" id="Stroke-50"></path>
                            <polyline id="Stroke-52" points="23.3328302 21.4300512 23.3328302 27.0299293 31.1718594 29.808661"></polyline>
                            <path d="M23.3328302,21.4300512 C21.848148,22.5248073 20.1037043,23.1690512 18.2288024,23.1690512 C12.8592406,23.1690512 8.50678986,17.9807098 8.50678986,11.5841244 C8.50678986,10.9490512 8.56105118,10.3311732 8.64302041,9.7236122" id="Stroke-54"></path>
                            <path d="M8.64290496,9.72372683 C9.3910185,4.21211707 13.3913479,0.000458536585 18.228687,0.000458536585 C22.030443,0.000458536585 25.3149847,2.60723902 26.9128075,6.3970439" id="Stroke-56"></path>
                            <path d="M23.3328302,21.4300512 C24.3164609,20.7044171 25.1823331,19.7804659 25.8900393,18.6971732" id="Stroke-58"></path>
                            <path d="M9.23596966,6.87804878 C11.5449621,4.58536585 15.0084507,3.43902439 18.4719393,6.87804878 C21.935428,3.43902439 25.3989166,4.58536585 26.5534128,5.73170732" id="Stroke-60"></path>
                            <path id="Stroke-62"></path>
                            <path d="M60.0338028,24.7195122 L69.2697725,24.7195122 C69.2697725,24.7195122 65.8062839,19.1801126 64.6517876,10.3170732" id="Stroke-64"></path>
                            <path d="M50.9999996,25 L43,25" id="Stroke-66"></path>
                        </g>
                    </g>
                </g>
            </g>
        </g>
    </g>
</svg>