<?xml version="1.0" encoding="UTF-8" standalone="no"?>
<svg width="58px" height="58px" viewBox="0 0 58 58" version="1.1" xmlns="http://www.w3.org/2000/svg" xmlns:xlink="http://www.w3.org/1999/xlink">
    <!-- Generator: Sketch 3.8.2 (29753) - http://www.bohemiancoding.com/sketch -->
    <title>Page 1</title>
    <desc>Created with Sketch.</desc>
    <defs></defs>
    <g id="Page-1" stroke="none" stroke-width="1" fill="none" fill-rule="evenodd" stroke-linecap="round" stroke-linejoin="round">
        <g id="Referral-program---Information" transform="translate(-309.000000, -589.000000)" stroke="#447BC6" stroke-width="2">
            <g id="Group-3" transform="translate(245.000000, 590.000000)">
                <g id="Page-1" transform="translate(65.000000, 0.000000)">
                    <path d="M40.207703,52.7617168 C36.4982921,54.6026691 32.317346,55.6361173 27.894738,55.6361173 C12.5757355,55.6361173 0.154710345,43.2170568 0.154710345,27.8960896 C0.154710345,23.609048 1.12528713,19.5499152 2.86210875,15.9249877" id="Stroke-1"></path>
                    <path d="M15.6426796,2.99883032 C19.3383374,1.17752529 23.4976715,0.155865517 27.894738,0.155865517 C43.2157052,0.155865517 55.6347656,12.574926 55.6347656,27.8958932 C55.6347656,32.3106422 54.6032822,36.4817647 52.7682241,40.1852814" id="Stroke-3"></path>
                    <path d="M18.5514629,15.3685761 L13.3665395,10.1856174 C12.4902698,9.31131242 11.0697697,9.31131242 10.1954647,10.1856174 C9.77108298,10.6099992 9.53728007,11.1738768 9.53728007,11.7750843 C9.53728007,12.3723623 9.77108298,12.9382046 10.1974295,13.3625864 L15.3980707,18.5592981 C15.7772636,17.9129018 16.2134338,17.2940118 16.7596288,16.7478167 C17.2999296,16.2075159 17.9129255,15.7595574 18.5514629,15.3685761 L18.5514629,15.3685761 Z" id="Stroke-5"></path>
                    <path id="Stroke-7"></path>
                    <path id="Stroke-9"></path>
                    <path d="M25.3934398,28.5519166 L27.1656266,30.3280328 C27.5448195,29.6796718 27.9809896,29.0627465 28.5271847,28.5165515 C29.0694503,27.9742859 29.6804814,27.5302568 30.3190187,27.1373108 L28.5645146,25.3828066 C28.1735332,26.0213439 27.7295042,26.6323751 27.1833091,27.1766054 C26.6390788,27.7228004 26.026083,28.1668295 25.3934398,28.5519166 L25.3934398,28.5519166 Z" id="Stroke-11"></path>
                    <path d="M37.1492073,40.3153466 L42.3419896,45.5081289 C43.2162946,46.3843986 44.6407241,46.3843986 45.5169938,45.5081289 C45.9394108,45.0857118 46.1751785,44.5198695 46.1751785,43.918662 C46.1751785,43.3194193 45.9394108,42.7535769 45.5169938,42.3311599 L40.3242115,37.1423071 C39.9332302,37.7828092 39.4872364,38.3918756 38.9430061,38.9400353 C38.3987758,39.4803362 37.7897094,39.9224005 37.1492073,40.3153466 L37.1492073,40.3153466 Z" id="Stroke-13"></path>
                    <path d="M4.99973536,4.99244219 C1.37677261,8.61736966 1.37284315,14.9261188 4.99973536,18.5549757 L13.6209721,27.1781772 C14.175026,27.7302664 14.7919514,28.1762602 15.4324535,28.5652768 C18.4876091,30.4180175 22.3404453,30.4160528 25.3936363,28.5515237 C26.0262794,28.1664365 26.6392753,27.7224075 27.1835056,27.1762124 C27.7277359,26.6339469 28.1737297,26.020951 28.564711,25.3824136 L25.1283977,21.9461003 C24.7040159,21.5197538 24.1401383,21.2859509 23.5428603,21.2859509 C22.9888063,21.2859509 22.4779764,21.5060007 22.0653831,21.8694758 C22.0378768,21.9028762 22.0241237,21.948065 21.9907233,21.9795007 C21.9592876,22.0148658 21.9140988,22.0246895 21.8787337,22.0561252 C21.0004992,22.8361231 19.6566237,22.82237 18.8137544,21.9795007 L15.3970883,18.5589052 L10.1984118,13.3621934 C9.77206535,12.9378117 9.53826244,12.3719693 9.53826244,11.7746913 C9.53826244,11.1734838 9.77206535,10.6096062 10.1964471,10.1871892 C11.0707521,9.31091947 12.4912521,9.31091947 13.3675219,10.1871892 L18.5524452,15.3681831 C20.0436756,14.4526188 21.7510262,13.9358947 23.544825,13.9378594 C25.3484475,13.9417889 27.0616923,14.458513 28.5529226,15.3819362 C28.1619413,14.7512578 27.7238064,14.1480856 27.1835056,13.6117142 L18.5603041,4.99244219 C14.823387,1.25552509 8.73861719,1.25552509 4.99973536,4.99244219 L4.99973536,4.99244219 Z" id="Stroke-15"></path>
                    <path d="M40.3246045,37.1417177 L45.5173868,42.3325352 C45.937839,42.7549522 46.1755714,43.3207946 46.1755714,43.9180726 C46.1755714,44.5192801 45.937839,45.0851224 45.5173868,45.5075394 C44.6391523,46.3838092 43.2166875,46.3838092 42.3404178,45.5075394 L37.1496002,40.3147571 L33.7250753,36.8863027 C33.296764,36.461921 33.0649259,35.8960786 33.0649259,35.3027301 C33.0649259,34.7329583 33.2889051,34.2064105 33.6720275,33.7918524 C33.6936396,33.7663109 33.6995338,33.73684 33.7250753,33.7132632 C33.7447226,33.6916512 33.7741935,33.6818275 33.7958056,33.664145 C34.5856272,32.8035931 34.5758035,31.390952 33.7466873,30.5657652 L30.3182329,27.1373108 C29.6796955,27.5302568 29.0686644,27.9742859 28.5263988,28.5165515 C27.9821685,29.0627465 27.5440336,29.6796718 27.1668054,30.3280328 C25.3828302,33.3596118 25.3867597,37.2949666 27.1923469,40.3226161 C27.5676104,40.9513298 27.9959216,41.5505725 28.5263988,42.0830145 L37.1456708,50.7003217 C40.8845526,54.443133 46.9712872,54.443133 50.710169,50.7003217 C52.5255799,48.8908051 53.5216981,46.4840104 53.5216981,43.9180726 C53.5216981,41.358029 52.5255799,38.9473048 50.710169,37.1377882 L42.0850029,28.5165515 C41.5486315,27.9782154 40.9454593,27.5381158 40.3147808,27.1490992 C41.2362393,28.6422942 41.7529634,30.3516096 41.7529634,32.1532673 C41.7529634,33.9451014 41.2382041,35.6504873 40.3246045,37.1417177 L40.3246045,37.1417177 Z" id="Stroke-17"></path>
                    <path d="M27.1664124,30.3286223 L25.3942257,28.552506 C22.3410347,30.4170351 18.4881985,30.4189999 15.4310781,28.5642944 C15.8063416,29.1910434 16.2346528,29.784392 16.7612006,30.3109397 L25.3785078,38.9302117 C25.9266676,39.4803362 26.5455577,39.9282947 27.1939187,40.3232055 C25.3883315,37.295556 25.3824373,33.3602012 27.1664124,30.3286223 L27.1664124,30.3286223 Z" id="Stroke-19"></path>
                    <path d="M18.5514629,15.3685761 C17.9129255,15.7595574 17.2999296,16.2075159 16.7596288,16.7478167 C16.2134338,17.2940118 15.7772636,17.9129018 15.3980707,18.5592981 L18.8147367,21.9798936 C19.6556413,22.822763 20.9995169,22.8365161 21.8777513,22.0545534 C21.9111517,22.021153 21.9209754,21.9759642 21.9504463,21.9464932 C21.9858115,21.9130928 22.0310003,21.8993397 22.0644007,21.8698687 C22.4789588,21.5063936 22.9897887,21.2863438 23.5418779,21.2863438 C24.1411207,21.2863438 24.7049983,21.5201467 25.12938,21.9464932 L28.5656934,25.3828066 L30.3182329,27.1373108 L33.7466873,30.5657652 C34.5758035,31.390952 34.5856272,32.8035931 33.7958056,33.6661097 C33.7741935,33.6837923 33.7663346,33.7191574 33.7447226,33.7427342 C33.7250753,33.7623815 33.6936396,33.7682757 33.6720275,33.7918524 C33.2889051,34.2064105 33.0649259,34.7329583 33.0649259,35.3027301 C33.0649259,35.8960786 33.296764,36.461921 33.7250753,36.8863027 L37.1496002,40.3147571 C37.7901023,39.9218111 38.3991687,39.4817115 38.943399,38.9394459 C39.4876293,38.3932509 39.9336231,37.7822197 40.3246045,37.1417177 C41.2382041,35.6504873 41.7529634,33.9451014 41.7529634,32.1532673 C41.7529634,30.3516096 41.2362393,28.6422942 40.3147808,27.1490992 C39.9257642,26.516456 39.4817352,25.911319 38.943399,25.3710182 L30.3260918,16.7517462 C29.7897204,16.2153748 29.1845835,15.7733105 28.553905,15.3823292 C27.06071,14.4589059 25.3474651,13.9402171 23.5458074,13.9362876 C21.7520086,13.9362876 20.0446579,14.4530117 18.5514629,15.3685761 L18.5514629,15.3685761 Z" id="Stroke-21"></path>
                </g>
            </g>
        </g>
    </g>
</svg>