<?xml version="1.0" encoding="UTF-8" standalone="no"?>
<svg width="286px" height="286px" viewBox="0 0 286 286" version="1.1" xmlns="http://www.w3.org/2000/svg" xmlns:xlink="http://www.w3.org/1999/xlink">
    <!-- Generator: Sketch 3.8.2 (29753) - http://www.bohemiancoding.com/sketch -->
    <title>statistics-info</title>
    <desc>Created with Sketch.</desc>
    <defs></defs>
    <g id="Page-1" stroke="none" stroke-width="1" fill="none" fill-rule="evenodd">
        <g id="statistics-info">
            <circle id="Oval-1" fill="#447BC6" cx="143" cy="143" r="143"></circle>
            <path d="M122.982422,182.835938 L122.982422,176.244141 C122.982422,166.722609 124.447251,158.889842 127.376953,152.745605 C130.306655,146.601369 135.759075,140.111362 143.734375,133.275391 C154.802139,123.91662 161.780422,116.877302 164.669434,112.157227 C167.558445,107.437151 169.00293,101.740593 169.00293,95.0673828 C169.00293,86.7665601 166.337755,80.3579327 161.007324,75.8413086 C155.676894,71.3246844 148.006886,69.0664062 137.99707,69.0664062 C131.568002,69.0664062 125.301788,69.8191656 119.198242,71.324707 C113.094696,72.8302484 106.096068,75.576803 98.2021484,79.5644531 L91,63.0849609 C106.380936,55.02828 122.453367,51 139.217773,51 C154.761471,51 166.846311,54.8248315 175.472656,62.4746094 C184.099001,70.1243872 188.412109,80.907157 188.412109,94.8232422 C188.412109,100.764027 187.61866,105.992653 186.031738,110.509277 C184.444816,115.025901 182.105159,119.29832 179.012695,123.32666 C175.920232,127.355001 169.247122,133.845007 158.993164,142.796875 C150.773722,149.795608 145.341647,155.614235 142.696777,160.25293 C140.051907,164.891625 138.729492,171.076459 138.729492,178.807617 L138.729492,182.835938 L122.982422,182.835938 Z M117.000977,219.09082 C117.000977,208.023057 121.88374,202.489258 131.649414,202.489258 C136.36949,202.489258 140.011218,203.913397 142.574707,206.761719 C145.138196,209.61004 146.419922,213.7197 146.419922,219.09082 C146.419922,224.29918 145.117852,228.347805 142.513672,231.236816 C139.909492,234.125828 136.288109,235.570312 131.649414,235.570312 C127.417622,235.570312 123.918308,234.288587 121.151367,231.725098 C118.384426,229.161608 117.000977,224.950225 117.000977,219.09082 L117.000977,219.09082 Z" id="?" fill="#FFFFFF"></path>
        </g>
    </g>
</svg>